G04 #@! TF.GenerationSoftware,KiCad,Pcbnew,(5.1.9)-1*
G04 #@! TF.CreationDate,2022-05-03T11:16:20+09:00*
G04 #@! TF.ProjectId,ZK80,5a4b3830-2e6b-4696-9361-645f70636258,rev?*
G04 #@! TF.SameCoordinates,PX2625a00PY9896800*
G04 #@! TF.FileFunction,Soldermask,Top*
G04 #@! TF.FilePolarity,Negative*
%FSLAX46Y46*%
G04 Gerber Fmt 4.6, Leading zero omitted, Abs format (unit mm)*
G04 Created by KiCad (PCBNEW (5.1.9)-1) date 2022-05-03 11:16:20*
%MOMM*%
%LPD*%
G01*
G04 APERTURE LIST*
%ADD10C,3.200000*%
%ADD11R,1.600000X1.600000*%
%ADD12C,1.600000*%
%ADD13R,1.700000X1.700000*%
%ADD14O,1.700000X1.700000*%
%ADD15C,1.524000*%
%ADD16O,1.000000X1.800000*%
%ADD17R,0.700000X3.000000*%
%ADD18O,1.600000X1.200000*%
%ADD19O,1.200000X1.200000*%
%ADD20O,1.600000X1.600000*%
%ADD21C,1.500000*%
%ADD22R,1.500000X1.500000*%
%ADD23R,1.600000X2.400000*%
%ADD24O,1.600000X2.400000*%
G04 APERTURE END LIST*
D10*
X3000000Y67000000D03*
X97000000Y67000000D03*
X97000000Y3000000D03*
X3000000Y3000000D03*
D11*
X24765000Y59055000D03*
D12*
X24765000Y61555000D03*
X53340000Y15240000D03*
X55840000Y15240000D03*
X27900000Y33020000D03*
X25400000Y33020000D03*
X45720000Y33020000D03*
X48220000Y33020000D03*
X64500000Y61635000D03*
X64500000Y64135000D03*
X52000000Y61500000D03*
X52000000Y64000000D03*
D13*
X33274000Y65405000D03*
D14*
X35814000Y65405000D03*
X38354000Y65405000D03*
X40894000Y65405000D03*
X43434000Y65405000D03*
X45974000Y65405000D03*
D15*
X82550000Y33655000D03*
X82550000Y31115000D03*
X82550000Y28575000D03*
X82550000Y26035000D03*
X82550000Y23495000D03*
X82550000Y20955000D03*
X82550000Y18415000D03*
X82550000Y15875000D03*
X82550000Y13335000D03*
X82550000Y10795000D03*
X95250000Y31115000D03*
X97790000Y31115000D03*
X95250000Y13335000D03*
X97790000Y13335000D03*
D16*
X82750000Y66000000D03*
X90150000Y66000000D03*
D17*
X85300000Y60500000D03*
X87700000Y60500000D03*
D13*
X14224000Y2540000D03*
D14*
X14224000Y5080000D03*
X16764000Y2540000D03*
X16764000Y5080000D03*
X19304000Y2540000D03*
X19304000Y5080000D03*
X21844000Y2540000D03*
X21844000Y5080000D03*
X24384000Y2540000D03*
X24384000Y5080000D03*
X26924000Y2540000D03*
X26924000Y5080000D03*
X29464000Y2540000D03*
X29464000Y5080000D03*
D18*
X10160000Y29210000D03*
D19*
X5080000Y29210000D03*
D12*
X20955000Y66040000D03*
D20*
X28575000Y66040000D03*
X65405000Y33655000D03*
D12*
X65405000Y26035000D03*
X69215000Y26035000D03*
D20*
X69215000Y33655000D03*
X73025000Y33655000D03*
D12*
X73025000Y26035000D03*
X76835000Y26035000D03*
D20*
X76835000Y33655000D03*
D12*
X12700000Y18415000D03*
D20*
X5080000Y18415000D03*
X37465000Y3810000D03*
D12*
X37465000Y11430000D03*
X41275000Y11430000D03*
D20*
X41275000Y3810000D03*
X45085000Y3810000D03*
D12*
X45085000Y11430000D03*
D14*
X15875000Y63754000D03*
X13335000Y63754000D03*
D13*
X10795000Y63754000D03*
X76500000Y63000000D03*
D14*
X73960000Y63000000D03*
X71420000Y63000000D03*
D21*
X17780000Y53975000D03*
X20320000Y53975000D03*
X22860000Y53975000D03*
X25400000Y53975000D03*
X27940000Y53975000D03*
X30480000Y53975000D03*
X30480000Y38735000D03*
X27940000Y38735000D03*
X25400000Y38735000D03*
X22860000Y38735000D03*
X20320000Y38735000D03*
D22*
X17780000Y38735000D03*
X69215000Y38735000D03*
D21*
X71755000Y38735000D03*
X74295000Y38735000D03*
X76835000Y38735000D03*
X79375000Y38735000D03*
X81915000Y38735000D03*
X81915000Y53975000D03*
X79375000Y53975000D03*
X76835000Y53975000D03*
X74295000Y53975000D03*
X71755000Y53975000D03*
X69215000Y53975000D03*
D23*
X25400000Y20320000D03*
D24*
X58420000Y27940000D03*
X27940000Y20320000D03*
X55880000Y27940000D03*
X30480000Y20320000D03*
X53340000Y27940000D03*
X33020000Y20320000D03*
X50800000Y27940000D03*
X35560000Y20320000D03*
X48260000Y27940000D03*
X38100000Y20320000D03*
X45720000Y27940000D03*
X40640000Y20320000D03*
X43180000Y27940000D03*
X43180000Y20320000D03*
X40640000Y27940000D03*
X45720000Y20320000D03*
X38100000Y27940000D03*
X48260000Y20320000D03*
X35560000Y27940000D03*
X50800000Y20320000D03*
X33020000Y27940000D03*
X53340000Y20320000D03*
X30480000Y27940000D03*
X55880000Y20320000D03*
X27940000Y27940000D03*
X58420000Y20320000D03*
X25400000Y27940000D03*
D21*
X58000000Y62460000D03*
X58000000Y59920000D03*
D22*
X58000000Y65000000D03*
M02*
