G04 #@! TF.GenerationSoftware,KiCad,Pcbnew,(5.1.9)-1*
G04 #@! TF.CreationDate,2022-05-03T11:16:20+09:00*
G04 #@! TF.ProjectId,ZK80,5a4b3830-2e6b-4696-9361-645f70636258,rev?*
G04 #@! TF.SameCoordinates,PX2625a00PY9896800*
G04 #@! TF.FileFunction,Legend,Top*
G04 #@! TF.FilePolarity,Positive*
%FSLAX46Y46*%
G04 Gerber Fmt 4.6, Leading zero omitted, Abs format (unit mm)*
G04 Created by KiCad (PCBNEW (5.1.9)-1) date 2022-05-03 11:16:20*
%MOMM*%
%LPD*%
G01*
G04 APERTURE LIST*
%ADD10C,0.100000*%
%ADD11C,0.300000*%
%ADD12C,0.120000*%
%ADD13C,0.150000*%
G04 APERTURE END LIST*
D10*
X46545476Y63412620D02*
X46355000Y63412620D01*
X46259761Y63365000D01*
X46212142Y63317381D01*
X46116904Y63174524D01*
X46069285Y62984048D01*
X46069285Y62603096D01*
X46116904Y62507858D01*
X46164523Y62460239D01*
X46259761Y62412620D01*
X46450238Y62412620D01*
X46545476Y62460239D01*
X46593095Y62507858D01*
X46640714Y62603096D01*
X46640714Y62841191D01*
X46593095Y62936429D01*
X46545476Y62984048D01*
X46450238Y63031667D01*
X46259761Y63031667D01*
X46164523Y62984048D01*
X46116904Y62936429D01*
X46069285Y62841191D01*
X33305714Y62412620D02*
X32734285Y62412620D01*
X33020000Y62412620D02*
X33020000Y63412620D01*
X32924761Y63269762D01*
X32829523Y63174524D01*
X32734285Y63126905D01*
D11*
X53818333Y4369048D02*
X55485000Y4369048D01*
X53818333Y1869048D01*
X55485000Y1869048D01*
X56437380Y1869048D02*
X56437380Y4369048D01*
X57865952Y1869048D02*
X56794523Y3297620D01*
X57865952Y4369048D02*
X56437380Y2940477D01*
X59294523Y3297620D02*
X59056428Y3416667D01*
X58937380Y3535715D01*
X58818333Y3773810D01*
X58818333Y3892858D01*
X58937380Y4130953D01*
X59056428Y4250000D01*
X59294523Y4369048D01*
X59770714Y4369048D01*
X60008809Y4250000D01*
X60127857Y4130953D01*
X60246904Y3892858D01*
X60246904Y3773810D01*
X60127857Y3535715D01*
X60008809Y3416667D01*
X59770714Y3297620D01*
X59294523Y3297620D01*
X59056428Y3178572D01*
X58937380Y3059524D01*
X58818333Y2821429D01*
X58818333Y2345239D01*
X58937380Y2107143D01*
X59056428Y1988096D01*
X59294523Y1869048D01*
X59770714Y1869048D01*
X60008809Y1988096D01*
X60127857Y2107143D01*
X60246904Y2345239D01*
X60246904Y2821429D01*
X60127857Y3059524D01*
X60008809Y3178572D01*
X59770714Y3297620D01*
X61794523Y4369048D02*
X62032619Y4369048D01*
X62270714Y4250000D01*
X62389761Y4130953D01*
X62508809Y3892858D01*
X62627857Y3416667D01*
X62627857Y2821429D01*
X62508809Y2345239D01*
X62389761Y2107143D01*
X62270714Y1988096D01*
X62032619Y1869048D01*
X61794523Y1869048D01*
X61556428Y1988096D01*
X61437380Y2107143D01*
X61318333Y2345239D01*
X61199285Y2821429D01*
X61199285Y3416667D01*
X61318333Y3892858D01*
X61437380Y4130953D01*
X61556428Y4250000D01*
X61794523Y4369048D01*
X63699285Y1869048D02*
X63699285Y3535715D01*
X63699285Y3297620D02*
X63818333Y3416667D01*
X64056428Y3535715D01*
X64413571Y3535715D01*
X64651666Y3416667D01*
X64770714Y3178572D01*
X64770714Y1869048D01*
X64770714Y3178572D02*
X64889761Y3416667D01*
X65127857Y3535715D01*
X65485000Y3535715D01*
X65723095Y3416667D01*
X65842142Y3178572D01*
X65842142Y1869048D01*
X67032619Y1869048D02*
X67032619Y3535715D01*
X67032619Y4369048D02*
X66913571Y4250000D01*
X67032619Y4130953D01*
X67151666Y4250000D01*
X67032619Y4369048D01*
X67032619Y4130953D01*
X68223095Y3535715D02*
X68223095Y1869048D01*
X68223095Y3297620D02*
X68342142Y3416667D01*
X68580238Y3535715D01*
X68937380Y3535715D01*
X69175476Y3416667D01*
X69294523Y3178572D01*
X69294523Y1869048D01*
X70485000Y1869048D02*
X70485000Y3535715D01*
X70485000Y4369048D02*
X70365952Y4250000D01*
X70485000Y4130953D01*
X70604047Y4250000D01*
X70485000Y4369048D01*
X70485000Y4130953D01*
X73342142Y4369048D02*
X73937380Y1869048D01*
X74413571Y3654762D01*
X74889761Y1869048D01*
X75485000Y4369048D01*
X76437380Y1869048D02*
X76437380Y3535715D01*
X76437380Y4369048D02*
X76318333Y4250000D01*
X76437380Y4130953D01*
X76556428Y4250000D01*
X76437380Y4369048D01*
X76437380Y4130953D01*
X77270714Y3535715D02*
X78223095Y3535715D01*
X77627857Y4369048D02*
X77627857Y2226191D01*
X77746904Y1988096D01*
X77985000Y1869048D01*
X78223095Y1869048D01*
X79056428Y1869048D02*
X79056428Y4369048D01*
X80127857Y1869048D02*
X80127857Y3178572D01*
X80008809Y3416667D01*
X79770714Y3535715D01*
X79413571Y3535715D01*
X79175476Y3416667D01*
X79056428Y3297620D01*
X83104047Y1988096D02*
X83461190Y1869048D01*
X84056428Y1869048D01*
X84294523Y1988096D01*
X84413571Y2107143D01*
X84532619Y2345239D01*
X84532619Y2583334D01*
X84413571Y2821429D01*
X84294523Y2940477D01*
X84056428Y3059524D01*
X83580238Y3178572D01*
X83342142Y3297620D01*
X83223095Y3416667D01*
X83104047Y3654762D01*
X83104047Y3892858D01*
X83223095Y4130953D01*
X83342142Y4250000D01*
X83580238Y4369048D01*
X84175476Y4369048D01*
X84532619Y4250000D01*
X85604047Y1869048D02*
X85604047Y4369048D01*
X86199285Y4369048D01*
X86556428Y4250000D01*
X86794523Y4011905D01*
X86913571Y3773810D01*
X87032619Y3297620D01*
X87032619Y2940477D01*
X86913571Y2464286D01*
X86794523Y2226191D01*
X86556428Y1988096D01*
X86199285Y1869048D01*
X85604047Y1869048D01*
D12*
X23040000Y57750225D02*
X23540000Y57750225D01*
X23290000Y57500225D02*
X23290000Y58000225D01*
X24481000Y62906000D02*
X25049000Y62906000D01*
X24247000Y62866000D02*
X25283000Y62866000D01*
X24088000Y62826000D02*
X25442000Y62826000D01*
X23960000Y62786000D02*
X25570000Y62786000D01*
X23850000Y62746000D02*
X25680000Y62746000D01*
X23754000Y62706000D02*
X25776000Y62706000D01*
X23667000Y62666000D02*
X25863000Y62666000D01*
X23587000Y62626000D02*
X25943000Y62626000D01*
X25805000Y62586000D02*
X26016000Y62586000D01*
X23514000Y62586000D02*
X23725000Y62586000D01*
X25805000Y62546000D02*
X26084000Y62546000D01*
X23446000Y62546000D02*
X23725000Y62546000D01*
X25805000Y62506000D02*
X26148000Y62506000D01*
X23382000Y62506000D02*
X23725000Y62506000D01*
X25805000Y62466000D02*
X26208000Y62466000D01*
X23322000Y62466000D02*
X23725000Y62466000D01*
X25805000Y62426000D02*
X26265000Y62426000D01*
X23265000Y62426000D02*
X23725000Y62426000D01*
X25805000Y62386000D02*
X26319000Y62386000D01*
X23211000Y62386000D02*
X23725000Y62386000D01*
X25805000Y62346000D02*
X26370000Y62346000D01*
X23160000Y62346000D02*
X23725000Y62346000D01*
X25805000Y62306000D02*
X26418000Y62306000D01*
X23112000Y62306000D02*
X23725000Y62306000D01*
X25805000Y62266000D02*
X26464000Y62266000D01*
X23066000Y62266000D02*
X23725000Y62266000D01*
X25805000Y62226000D02*
X26508000Y62226000D01*
X23022000Y62226000D02*
X23725000Y62226000D01*
X25805000Y62186000D02*
X26550000Y62186000D01*
X22980000Y62186000D02*
X23725000Y62186000D01*
X25805000Y62146000D02*
X26591000Y62146000D01*
X22939000Y62146000D02*
X23725000Y62146000D01*
X25805000Y62106000D02*
X26629000Y62106000D01*
X22901000Y62106000D02*
X23725000Y62106000D01*
X25805000Y62066000D02*
X26666000Y62066000D01*
X22864000Y62066000D02*
X23725000Y62066000D01*
X25805000Y62026000D02*
X26702000Y62026000D01*
X22828000Y62026000D02*
X23725000Y62026000D01*
X25805000Y61986000D02*
X26736000Y61986000D01*
X22794000Y61986000D02*
X23725000Y61986000D01*
X25805000Y61946000D02*
X26769000Y61946000D01*
X22761000Y61946000D02*
X23725000Y61946000D01*
X25805000Y61906000D02*
X26800000Y61906000D01*
X22730000Y61906000D02*
X23725000Y61906000D01*
X25805000Y61866000D02*
X26830000Y61866000D01*
X22700000Y61866000D02*
X23725000Y61866000D01*
X25805000Y61826000D02*
X26860000Y61826000D01*
X22670000Y61826000D02*
X23725000Y61826000D01*
X25805000Y61786000D02*
X26887000Y61786000D01*
X22643000Y61786000D02*
X23725000Y61786000D01*
X25805000Y61746000D02*
X26914000Y61746000D01*
X22616000Y61746000D02*
X23725000Y61746000D01*
X25805000Y61706000D02*
X26940000Y61706000D01*
X22590000Y61706000D02*
X23725000Y61706000D01*
X25805000Y61666000D02*
X26965000Y61666000D01*
X22565000Y61666000D02*
X23725000Y61666000D01*
X25805000Y61626000D02*
X26989000Y61626000D01*
X22541000Y61626000D02*
X23725000Y61626000D01*
X25805000Y61586000D02*
X27012000Y61586000D01*
X22518000Y61586000D02*
X23725000Y61586000D01*
X25805000Y61546000D02*
X27033000Y61546000D01*
X22497000Y61546000D02*
X23725000Y61546000D01*
X25805000Y61506000D02*
X27055000Y61506000D01*
X22475000Y61506000D02*
X23725000Y61506000D01*
X25805000Y61466000D02*
X27075000Y61466000D01*
X22455000Y61466000D02*
X23725000Y61466000D01*
X25805000Y61426000D02*
X27094000Y61426000D01*
X22436000Y61426000D02*
X23725000Y61426000D01*
X25805000Y61386000D02*
X27113000Y61386000D01*
X22417000Y61386000D02*
X23725000Y61386000D01*
X25805000Y61346000D02*
X27130000Y61346000D01*
X22400000Y61346000D02*
X23725000Y61346000D01*
X25805000Y61306000D02*
X27147000Y61306000D01*
X22383000Y61306000D02*
X23725000Y61306000D01*
X25805000Y61266000D02*
X27163000Y61266000D01*
X22367000Y61266000D02*
X23725000Y61266000D01*
X25805000Y61226000D02*
X27179000Y61226000D01*
X22351000Y61226000D02*
X23725000Y61226000D01*
X25805000Y61186000D02*
X27193000Y61186000D01*
X22337000Y61186000D02*
X23725000Y61186000D01*
X25805000Y61146000D02*
X27207000Y61146000D01*
X22323000Y61146000D02*
X23725000Y61146000D01*
X25805000Y61106000D02*
X27220000Y61106000D01*
X22310000Y61106000D02*
X23725000Y61106000D01*
X25805000Y61066000D02*
X27233000Y61066000D01*
X22297000Y61066000D02*
X23725000Y61066000D01*
X25805000Y61026000D02*
X27245000Y61026000D01*
X22285000Y61026000D02*
X23725000Y61026000D01*
X25805000Y60985000D02*
X27256000Y60985000D01*
X22274000Y60985000D02*
X23725000Y60985000D01*
X25805000Y60945000D02*
X27266000Y60945000D01*
X22264000Y60945000D02*
X23725000Y60945000D01*
X25805000Y60905000D02*
X27276000Y60905000D01*
X22254000Y60905000D02*
X23725000Y60905000D01*
X25805000Y60865000D02*
X27285000Y60865000D01*
X22245000Y60865000D02*
X23725000Y60865000D01*
X25805000Y60825000D02*
X27293000Y60825000D01*
X22237000Y60825000D02*
X23725000Y60825000D01*
X25805000Y60785000D02*
X27301000Y60785000D01*
X22229000Y60785000D02*
X23725000Y60785000D01*
X25805000Y60745000D02*
X27308000Y60745000D01*
X22222000Y60745000D02*
X23725000Y60745000D01*
X25805000Y60705000D02*
X27315000Y60705000D01*
X22215000Y60705000D02*
X23725000Y60705000D01*
X25805000Y60665000D02*
X27321000Y60665000D01*
X22209000Y60665000D02*
X23725000Y60665000D01*
X25805000Y60625000D02*
X27326000Y60625000D01*
X22204000Y60625000D02*
X23725000Y60625000D01*
X25805000Y60585000D02*
X27330000Y60585000D01*
X22200000Y60585000D02*
X23725000Y60585000D01*
X25805000Y60545000D02*
X27334000Y60545000D01*
X22196000Y60545000D02*
X23725000Y60545000D01*
X22192000Y60505000D02*
X27338000Y60505000D01*
X22189000Y60465000D02*
X27341000Y60465000D01*
X22187000Y60425000D02*
X27343000Y60425000D01*
X22186000Y60385000D02*
X27344000Y60385000D01*
X22185000Y60345000D02*
X27345000Y60345000D01*
X22185000Y60305000D02*
X27345000Y60305000D01*
X27385000Y60305000D02*
G75*
G03*
X27385000Y60305000I-2620000J0D01*
G01*
X56710000Y14575000D02*
X56710000Y13870000D01*
X56710000Y16610000D02*
X56710000Y15905000D01*
X52470000Y14575000D02*
X52470000Y13870000D01*
X52470000Y16610000D02*
X52470000Y15905000D01*
X52470000Y13870000D02*
X56710000Y13870000D01*
X52470000Y16610000D02*
X56710000Y16610000D01*
X24530000Y34390000D02*
X28770000Y34390000D01*
X24530000Y31650000D02*
X28770000Y31650000D01*
X24530000Y34390000D02*
X24530000Y33685000D01*
X24530000Y32355000D02*
X24530000Y31650000D01*
X28770000Y34390000D02*
X28770000Y33685000D01*
X28770000Y32355000D02*
X28770000Y31650000D01*
X49090000Y32355000D02*
X49090000Y31650000D01*
X49090000Y34390000D02*
X49090000Y33685000D01*
X44850000Y32355000D02*
X44850000Y31650000D01*
X44850000Y34390000D02*
X44850000Y33685000D01*
X44850000Y31650000D02*
X49090000Y31650000D01*
X44850000Y34390000D02*
X49090000Y34390000D01*
X65870000Y65005000D02*
X65870000Y60765000D01*
X63130000Y65005000D02*
X63130000Y60765000D01*
X65870000Y65005000D02*
X65165000Y65005000D01*
X63835000Y65005000D02*
X63130000Y65005000D01*
X65870000Y60765000D02*
X65165000Y60765000D01*
X63835000Y60765000D02*
X63130000Y60765000D01*
X52665000Y64870000D02*
X53370000Y64870000D01*
X50630000Y64870000D02*
X51335000Y64870000D01*
X52665000Y60630000D02*
X53370000Y60630000D01*
X50630000Y60630000D02*
X51335000Y60630000D01*
X53370000Y60630000D02*
X53370000Y64870000D01*
X50630000Y60630000D02*
X50630000Y64870000D01*
X32004000Y64135000D02*
X32004000Y65405000D01*
X33274000Y64135000D02*
X32004000Y64135000D01*
X46354000Y66447929D02*
X46354000Y66845000D01*
X45594000Y66447929D02*
X45594000Y66845000D01*
X46354000Y75505000D02*
X46354000Y69505000D01*
X45594000Y75505000D02*
X46354000Y75505000D01*
X45594000Y69505000D02*
X45594000Y75505000D01*
X44704000Y66845000D02*
X44704000Y69505000D01*
X43814000Y66447929D02*
X43814000Y66845000D01*
X43054000Y66447929D02*
X43054000Y66845000D01*
X43814000Y75505000D02*
X43814000Y69505000D01*
X43054000Y75505000D02*
X43814000Y75505000D01*
X43054000Y69505000D02*
X43054000Y75505000D01*
X42164000Y66845000D02*
X42164000Y69505000D01*
X41274000Y66447929D02*
X41274000Y66845000D01*
X40514000Y66447929D02*
X40514000Y66845000D01*
X41274000Y75505000D02*
X41274000Y69505000D01*
X40514000Y75505000D02*
X41274000Y75505000D01*
X40514000Y69505000D02*
X40514000Y75505000D01*
X39624000Y66845000D02*
X39624000Y69505000D01*
X38734000Y66447929D02*
X38734000Y66845000D01*
X37974000Y66447929D02*
X37974000Y66845000D01*
X38734000Y75505000D02*
X38734000Y69505000D01*
X37974000Y75505000D02*
X38734000Y75505000D01*
X37974000Y69505000D02*
X37974000Y75505000D01*
X37084000Y66845000D02*
X37084000Y69505000D01*
X36194000Y66447929D02*
X36194000Y66845000D01*
X35434000Y66447929D02*
X35434000Y66845000D01*
X36194000Y75505000D02*
X36194000Y69505000D01*
X35434000Y75505000D02*
X36194000Y75505000D01*
X35434000Y69505000D02*
X35434000Y75505000D01*
X34544000Y66845000D02*
X34544000Y69505000D01*
X33654000Y66515000D02*
X33654000Y66845000D01*
X32894000Y66515000D02*
X32894000Y66845000D01*
X33554000Y69505000D02*
X33554000Y75505000D01*
X33434000Y69505000D02*
X33434000Y75505000D01*
X33314000Y69505000D02*
X33314000Y75505000D01*
X33194000Y69505000D02*
X33194000Y75505000D01*
X33074000Y69505000D02*
X33074000Y75505000D01*
X32954000Y69505000D02*
X32954000Y75505000D01*
X33654000Y75505000D02*
X33654000Y69505000D01*
X32894000Y75505000D02*
X33654000Y75505000D01*
X32894000Y69505000D02*
X32894000Y75505000D01*
X31944000Y69505000D02*
X31944000Y66845000D01*
X47304000Y69505000D02*
X31944000Y69505000D01*
X47304000Y66845000D02*
X47304000Y69505000D01*
X31944000Y66845000D02*
X47304000Y66845000D01*
D13*
X81280000Y9525000D02*
X81280000Y34925000D01*
X100838000Y34925000D02*
X100838000Y9525000D01*
X81280000Y9525000D02*
X100838000Y9525000D01*
X81280000Y34925000D02*
X100838000Y34925000D01*
X82750000Y67500000D02*
X82750000Y70000000D01*
X82750000Y64500000D02*
X82750000Y62000000D01*
X90250000Y64500000D02*
X90250000Y62000000D01*
X90250000Y67500000D02*
X90250000Y70000000D01*
X90250000Y70000000D02*
X82750000Y70000000D01*
X82750000Y62000000D02*
X90250000Y62000000D01*
D12*
X12894000Y1210000D02*
X12894000Y2540000D01*
X14224000Y1210000D02*
X12894000Y1210000D01*
X12894000Y3810000D02*
X12894000Y6410000D01*
X15494000Y3810000D02*
X12894000Y3810000D01*
X15494000Y1210000D02*
X15494000Y3810000D01*
X12894000Y6410000D02*
X30794000Y6410000D01*
X15494000Y1210000D02*
X30794000Y1210000D01*
X30794000Y1210000D02*
X30794000Y6410000D01*
X12285856Y25321961D02*
X11394902Y26212916D01*
X11508039Y24544144D02*
X12285856Y25321961D01*
X10617084Y25435098D02*
X11508039Y24544144D01*
X11394674Y26212629D02*
G75*
G03*
X10617084Y25435098I-3774674J2997371D01*
G01*
X28035000Y64670000D02*
X28035000Y65000000D01*
X21495000Y64670000D02*
X28035000Y64670000D01*
X21495000Y65000000D02*
X21495000Y64670000D01*
X28035000Y67410000D02*
X28035000Y67080000D01*
X21495000Y67410000D02*
X28035000Y67410000D01*
X21495000Y67080000D02*
X21495000Y67410000D01*
X64365000Y26575000D02*
X64035000Y26575000D01*
X64035000Y26575000D02*
X64035000Y33115000D01*
X64035000Y33115000D02*
X64365000Y33115000D01*
X66445000Y26575000D02*
X66775000Y26575000D01*
X66775000Y26575000D02*
X66775000Y33115000D01*
X66775000Y33115000D02*
X66445000Y33115000D01*
X70585000Y33115000D02*
X70255000Y33115000D01*
X70585000Y26575000D02*
X70585000Y33115000D01*
X70255000Y26575000D02*
X70585000Y26575000D01*
X67845000Y33115000D02*
X68175000Y33115000D01*
X67845000Y26575000D02*
X67845000Y33115000D01*
X68175000Y26575000D02*
X67845000Y26575000D01*
X71985000Y26575000D02*
X71655000Y26575000D01*
X71655000Y26575000D02*
X71655000Y33115000D01*
X71655000Y33115000D02*
X71985000Y33115000D01*
X74065000Y26575000D02*
X74395000Y26575000D01*
X74395000Y26575000D02*
X74395000Y33115000D01*
X74395000Y33115000D02*
X74065000Y33115000D01*
X78205000Y33115000D02*
X77875000Y33115000D01*
X78205000Y26575000D02*
X78205000Y33115000D01*
X77875000Y26575000D02*
X78205000Y26575000D01*
X75465000Y33115000D02*
X75795000Y33115000D01*
X75465000Y26575000D02*
X75465000Y33115000D01*
X75795000Y26575000D02*
X75465000Y26575000D01*
X5620000Y19785000D02*
X5620000Y19455000D01*
X12160000Y19785000D02*
X5620000Y19785000D01*
X12160000Y19455000D02*
X12160000Y19785000D01*
X5620000Y17045000D02*
X5620000Y17375000D01*
X12160000Y17045000D02*
X5620000Y17045000D01*
X12160000Y17375000D02*
X12160000Y17045000D01*
X38505000Y10890000D02*
X38835000Y10890000D01*
X38835000Y10890000D02*
X38835000Y4350000D01*
X38835000Y4350000D02*
X38505000Y4350000D01*
X36425000Y10890000D02*
X36095000Y10890000D01*
X36095000Y10890000D02*
X36095000Y4350000D01*
X36095000Y4350000D02*
X36425000Y4350000D01*
X39905000Y4350000D02*
X40235000Y4350000D01*
X39905000Y10890000D02*
X39905000Y4350000D01*
X40235000Y10890000D02*
X39905000Y10890000D01*
X42645000Y4350000D02*
X42315000Y4350000D01*
X42645000Y10890000D02*
X42645000Y4350000D01*
X42315000Y10890000D02*
X42645000Y10890000D01*
X46125000Y10890000D02*
X46455000Y10890000D01*
X46455000Y10890000D02*
X46455000Y4350000D01*
X46455000Y4350000D02*
X46125000Y4350000D01*
X44045000Y10890000D02*
X43715000Y10890000D01*
X43715000Y10890000D02*
X43715000Y4350000D01*
X43715000Y4350000D02*
X44045000Y4350000D01*
X17205000Y62424000D02*
X17205000Y65084000D01*
X12065000Y62424000D02*
X17205000Y62424000D01*
X12065000Y65084000D02*
X17205000Y65084000D01*
X12065000Y62424000D02*
X12065000Y65084000D01*
X10795000Y62424000D02*
X9465000Y62424000D01*
X9465000Y62424000D02*
X9465000Y63754000D01*
X77830000Y64330000D02*
X77830000Y63000000D01*
X76500000Y64330000D02*
X77830000Y64330000D01*
X75230000Y64330000D02*
X75230000Y61670000D01*
X75230000Y61670000D02*
X70090000Y61670000D01*
X75230000Y64330000D02*
X70090000Y64330000D01*
X70090000Y64330000D02*
X70090000Y61670000D01*
X-1140000Y36735000D02*
X-1140000Y55975000D01*
X-1140000Y36735000D02*
X49400000Y36735000D01*
X49400000Y36735000D02*
X49400000Y55975000D01*
X49400000Y55975000D02*
X-1140000Y55975000D01*
X16780000Y36355000D02*
X18780000Y36355000D01*
X68215000Y36355000D02*
X70215000Y36355000D01*
X100835000Y55975000D02*
X50295000Y55975000D01*
X100835000Y36735000D02*
X100835000Y55975000D01*
X50295000Y36735000D02*
X100835000Y36735000D01*
X50295000Y36735000D02*
X50295000Y55975000D01*
X24070000Y26380000D02*
X24070000Y25130000D01*
X59750000Y26380000D02*
X24070000Y26380000D01*
X59750000Y21880000D02*
X59750000Y26380000D01*
X24070000Y21880000D02*
X59750000Y21880000D01*
X24070000Y23130000D02*
X24070000Y21880000D01*
X24070000Y25130000D02*
G75*
G02*
X24070000Y23130000I0J-1000000D01*
G01*
X56150000Y64260000D02*
X56150000Y60660000D01*
X56877205Y64784184D02*
G75*
G03*
X56150000Y64260000I1122795J-2324184D01*
G01*
X59098807Y64816400D02*
G75*
G02*
X60600000Y62460000I-1098807J-2356400D01*
G01*
X59098807Y60103600D02*
G75*
G03*
X60600000Y62460000I-1098807J2356400D01*
G01*
X56877205Y60135816D02*
G75*
G02*
X56150000Y60660000I1122795J2324184D01*
G01*
D13*
X20788333Y58062858D02*
X20740714Y58015239D01*
X20597857Y57967620D01*
X20502619Y57967620D01*
X20359761Y58015239D01*
X20264523Y58110477D01*
X20216904Y58205715D01*
X20169285Y58396191D01*
X20169285Y58539048D01*
X20216904Y58729524D01*
X20264523Y58824762D01*
X20359761Y58920000D01*
X20502619Y58967620D01*
X20597857Y58967620D01*
X20740714Y58920000D01*
X20788333Y58872381D01*
X21740714Y57967620D02*
X21169285Y57967620D01*
X21455000Y57967620D02*
X21455000Y58967620D01*
X21359761Y58824762D01*
X21264523Y58729524D01*
X21169285Y58681905D01*
X28138571Y57967620D02*
X27567142Y57967620D01*
X27852857Y57967620D02*
X27852857Y58967620D01*
X27757619Y58824762D01*
X27662380Y58729524D01*
X27567142Y58681905D01*
X28757619Y58967620D02*
X28852857Y58967620D01*
X28948095Y58920000D01*
X28995714Y58872381D01*
X29043333Y58777143D01*
X29090952Y58586667D01*
X29090952Y58348572D01*
X29043333Y58158096D01*
X28995714Y58062858D01*
X28948095Y58015239D01*
X28852857Y57967620D01*
X28757619Y57967620D01*
X28662380Y58015239D01*
X28614761Y58062858D01*
X28567142Y58158096D01*
X28519523Y58348572D01*
X28519523Y58586667D01*
X28567142Y58777143D01*
X28614761Y58872381D01*
X28662380Y58920000D01*
X28757619Y58967620D01*
X29948095Y58634286D02*
X29948095Y57967620D01*
X29519523Y58634286D02*
X29519523Y58110477D01*
X29567142Y58015239D01*
X29662380Y57967620D01*
X29805238Y57967620D01*
X29900476Y58015239D01*
X29948095Y58062858D01*
X30757619Y58491429D02*
X30424285Y58491429D01*
X30424285Y57967620D02*
X30424285Y58967620D01*
X30900476Y58967620D01*
X53173333Y12342858D02*
X53125714Y12295239D01*
X52982857Y12247620D01*
X52887619Y12247620D01*
X52744761Y12295239D01*
X52649523Y12390477D01*
X52601904Y12485715D01*
X52554285Y12676191D01*
X52554285Y12819048D01*
X52601904Y13009524D01*
X52649523Y13104762D01*
X52744761Y13200000D01*
X52887619Y13247620D01*
X52982857Y13247620D01*
X53125714Y13200000D01*
X53173333Y13152381D01*
X53554285Y13152381D02*
X53601904Y13200000D01*
X53697142Y13247620D01*
X53935238Y13247620D01*
X54030476Y13200000D01*
X54078095Y13152381D01*
X54125714Y13057143D01*
X54125714Y12961905D01*
X54078095Y12819048D01*
X53506666Y12247620D01*
X54125714Y12247620D01*
X56142142Y13247620D02*
X56237380Y13247620D01*
X56332619Y13200000D01*
X56380238Y13152381D01*
X56427857Y13057143D01*
X56475476Y12866667D01*
X56475476Y12628572D01*
X56427857Y12438096D01*
X56380238Y12342858D01*
X56332619Y12295239D01*
X56237380Y12247620D01*
X56142142Y12247620D01*
X56046904Y12295239D01*
X55999285Y12342858D01*
X55951666Y12438096D01*
X55904047Y12628572D01*
X55904047Y12866667D01*
X55951666Y13057143D01*
X55999285Y13152381D01*
X56046904Y13200000D01*
X56142142Y13247620D01*
X56904047Y12342858D02*
X56951666Y12295239D01*
X56904047Y12247620D01*
X56856428Y12295239D01*
X56904047Y12342858D01*
X56904047Y12247620D01*
X57904047Y12247620D02*
X57332619Y12247620D01*
X57618333Y12247620D02*
X57618333Y13247620D01*
X57523095Y13104762D01*
X57427857Y13009524D01*
X57332619Y12961905D01*
X58761190Y12914286D02*
X58761190Y12247620D01*
X58332619Y12914286D02*
X58332619Y12390477D01*
X58380238Y12295239D01*
X58475476Y12247620D01*
X58618333Y12247620D01*
X58713571Y12295239D01*
X58761190Y12342858D01*
X59570714Y12771429D02*
X59237380Y12771429D01*
X59237380Y12247620D02*
X59237380Y13247620D01*
X59713571Y13247620D01*
X26333333Y30142858D02*
X26285714Y30095239D01*
X26142857Y30047620D01*
X26047619Y30047620D01*
X25904761Y30095239D01*
X25809523Y30190477D01*
X25761904Y30285715D01*
X25714285Y30476191D01*
X25714285Y30619048D01*
X25761904Y30809524D01*
X25809523Y30904762D01*
X25904761Y31000000D01*
X26047619Y31047620D01*
X26142857Y31047620D01*
X26285714Y31000000D01*
X26333333Y30952381D01*
X26666666Y31047620D02*
X27285714Y31047620D01*
X26952380Y30666667D01*
X27095238Y30666667D01*
X27190476Y30619048D01*
X27238095Y30571429D01*
X27285714Y30476191D01*
X27285714Y30238096D01*
X27238095Y30142858D01*
X27190476Y30095239D01*
X27095238Y30047620D01*
X26809523Y30047620D01*
X26714285Y30095239D01*
X26666666Y30142858D01*
X24857142Y36047620D02*
X24952380Y36047620D01*
X25047619Y36000000D01*
X25095238Y35952381D01*
X25142857Y35857143D01*
X25190476Y35666667D01*
X25190476Y35428572D01*
X25142857Y35238096D01*
X25095238Y35142858D01*
X25047619Y35095239D01*
X24952380Y35047620D01*
X24857142Y35047620D01*
X24761904Y35095239D01*
X24714285Y35142858D01*
X24666666Y35238096D01*
X24619047Y35428572D01*
X24619047Y35666667D01*
X24666666Y35857143D01*
X24714285Y35952381D01*
X24761904Y36000000D01*
X24857142Y36047620D01*
X25619047Y35142858D02*
X25666666Y35095239D01*
X25619047Y35047620D01*
X25571428Y35095239D01*
X25619047Y35142858D01*
X25619047Y35047620D01*
X26619047Y35047620D02*
X26047619Y35047620D01*
X26333333Y35047620D02*
X26333333Y36047620D01*
X26238095Y35904762D01*
X26142857Y35809524D01*
X26047619Y35761905D01*
X27476190Y35714286D02*
X27476190Y35047620D01*
X27047619Y35714286D02*
X27047619Y35190477D01*
X27095238Y35095239D01*
X27190476Y35047620D01*
X27333333Y35047620D01*
X27428571Y35095239D01*
X27476190Y35142858D01*
X28285714Y35571429D02*
X27952380Y35571429D01*
X27952380Y35047620D02*
X27952380Y36047620D01*
X28428571Y36047620D01*
X46833333Y30142858D02*
X46785714Y30095239D01*
X46642857Y30047620D01*
X46547619Y30047620D01*
X46404761Y30095239D01*
X46309523Y30190477D01*
X46261904Y30285715D01*
X46214285Y30476191D01*
X46214285Y30619048D01*
X46261904Y30809524D01*
X46309523Y30904762D01*
X46404761Y31000000D01*
X46547619Y31047620D01*
X46642857Y31047620D01*
X46785714Y31000000D01*
X46833333Y30952381D01*
X47690476Y30714286D02*
X47690476Y30047620D01*
X47452380Y31095239D02*
X47214285Y30380953D01*
X47833333Y30380953D01*
X45357142Y36047620D02*
X45452380Y36047620D01*
X45547619Y36000000D01*
X45595238Y35952381D01*
X45642857Y35857143D01*
X45690476Y35666667D01*
X45690476Y35428572D01*
X45642857Y35238096D01*
X45595238Y35142858D01*
X45547619Y35095239D01*
X45452380Y35047620D01*
X45357142Y35047620D01*
X45261904Y35095239D01*
X45214285Y35142858D01*
X45166666Y35238096D01*
X45119047Y35428572D01*
X45119047Y35666667D01*
X45166666Y35857143D01*
X45214285Y35952381D01*
X45261904Y36000000D01*
X45357142Y36047620D01*
X46119047Y35142858D02*
X46166666Y35095239D01*
X46119047Y35047620D01*
X46071428Y35095239D01*
X46119047Y35142858D01*
X46119047Y35047620D01*
X47119047Y35047620D02*
X46547619Y35047620D01*
X46833333Y35047620D02*
X46833333Y36047620D01*
X46738095Y35904762D01*
X46642857Y35809524D01*
X46547619Y35761905D01*
X47976190Y35714286D02*
X47976190Y35047620D01*
X47547619Y35714286D02*
X47547619Y35190477D01*
X47595238Y35095239D01*
X47690476Y35047620D01*
X47833333Y35047620D01*
X47928571Y35095239D01*
X47976190Y35142858D01*
X48785714Y35571429D02*
X48452380Y35571429D01*
X48452380Y35047620D02*
X48452380Y36047620D01*
X48928571Y36047620D01*
X64333333Y66277858D02*
X64285714Y66230239D01*
X64142857Y66182620D01*
X64047619Y66182620D01*
X63904761Y66230239D01*
X63809523Y66325477D01*
X63761904Y66420715D01*
X63714285Y66611191D01*
X63714285Y66754048D01*
X63761904Y66944524D01*
X63809523Y67039762D01*
X63904761Y67135000D01*
X64047619Y67182620D01*
X64142857Y67182620D01*
X64285714Y67135000D01*
X64333333Y67087381D01*
X65238095Y67182620D02*
X64761904Y67182620D01*
X64714285Y66706429D01*
X64761904Y66754048D01*
X64857142Y66801667D01*
X65095238Y66801667D01*
X65190476Y66754048D01*
X65238095Y66706429D01*
X65285714Y66611191D01*
X65285714Y66373096D01*
X65238095Y66277858D01*
X65190476Y66230239D01*
X65095238Y66182620D01*
X64857142Y66182620D01*
X64761904Y66230239D01*
X64714285Y66277858D01*
X63428571Y58682620D02*
X62857142Y58682620D01*
X63142857Y58682620D02*
X63142857Y59682620D01*
X63047619Y59539762D01*
X62952380Y59444524D01*
X62857142Y59396905D01*
X64047619Y59682620D02*
X64142857Y59682620D01*
X64238095Y59635000D01*
X64285714Y59587381D01*
X64333333Y59492143D01*
X64380952Y59301667D01*
X64380952Y59063572D01*
X64333333Y58873096D01*
X64285714Y58777858D01*
X64238095Y58730239D01*
X64142857Y58682620D01*
X64047619Y58682620D01*
X63952380Y58730239D01*
X63904761Y58777858D01*
X63857142Y58873096D01*
X63809523Y59063572D01*
X63809523Y59301667D01*
X63857142Y59492143D01*
X63904761Y59587381D01*
X63952380Y59635000D01*
X64047619Y59682620D01*
X65238095Y59349286D02*
X65238095Y58682620D01*
X64809523Y59349286D02*
X64809523Y58825477D01*
X64857142Y58730239D01*
X64952380Y58682620D01*
X65095238Y58682620D01*
X65190476Y58730239D01*
X65238095Y58777858D01*
X66047619Y59206429D02*
X65714285Y59206429D01*
X65714285Y58682620D02*
X65714285Y59682620D01*
X66190476Y59682620D01*
X51833333Y58642858D02*
X51785714Y58595239D01*
X51642857Y58547620D01*
X51547619Y58547620D01*
X51404761Y58595239D01*
X51309523Y58690477D01*
X51261904Y58785715D01*
X51214285Y58976191D01*
X51214285Y59119048D01*
X51261904Y59309524D01*
X51309523Y59404762D01*
X51404761Y59500000D01*
X51547619Y59547620D01*
X51642857Y59547620D01*
X51785714Y59500000D01*
X51833333Y59452381D01*
X52690476Y59547620D02*
X52500000Y59547620D01*
X52404761Y59500000D01*
X52357142Y59452381D01*
X52261904Y59309524D01*
X52214285Y59119048D01*
X52214285Y58738096D01*
X52261904Y58642858D01*
X52309523Y58595239D01*
X52404761Y58547620D01*
X52595238Y58547620D01*
X52690476Y58595239D01*
X52738095Y58642858D01*
X52785714Y58738096D01*
X52785714Y58976191D01*
X52738095Y59071429D01*
X52690476Y59119048D01*
X52595238Y59166667D01*
X52404761Y59166667D01*
X52309523Y59119048D01*
X52261904Y59071429D01*
X52214285Y58976191D01*
X50928571Y66047620D02*
X50357142Y66047620D01*
X50642857Y66047620D02*
X50642857Y67047620D01*
X50547619Y66904762D01*
X50452380Y66809524D01*
X50357142Y66761905D01*
X51547619Y67047620D02*
X51642857Y67047620D01*
X51738095Y67000000D01*
X51785714Y66952381D01*
X51833333Y66857143D01*
X51880952Y66666667D01*
X51880952Y66428572D01*
X51833333Y66238096D01*
X51785714Y66142858D01*
X51738095Y66095239D01*
X51642857Y66047620D01*
X51547619Y66047620D01*
X51452380Y66095239D01*
X51404761Y66142858D01*
X51357142Y66238096D01*
X51309523Y66428572D01*
X51309523Y66666667D01*
X51357142Y66857143D01*
X51404761Y66952381D01*
X51452380Y67000000D01*
X51547619Y67047620D01*
X52738095Y66714286D02*
X52738095Y66047620D01*
X52309523Y66714286D02*
X52309523Y66190477D01*
X52357142Y66095239D01*
X52452380Y66047620D01*
X52595238Y66047620D01*
X52690476Y66095239D01*
X52738095Y66142858D01*
X53547619Y66571429D02*
X53214285Y66571429D01*
X53214285Y66047620D02*
X53214285Y67047620D01*
X53690476Y67047620D01*
X39420666Y62992620D02*
X39420666Y62278334D01*
X39373047Y62135477D01*
X39277809Y62040239D01*
X39134952Y61992620D01*
X39039714Y61992620D01*
X40420666Y61992620D02*
X39849238Y61992620D01*
X40134952Y61992620D02*
X40134952Y62992620D01*
X40039714Y62849762D01*
X39944476Y62754524D01*
X39849238Y62706905D01*
X28777809Y70992620D02*
X28777809Y71992620D01*
X29825428Y71087858D02*
X29777809Y71040239D01*
X29634952Y70992620D01*
X29539714Y70992620D01*
X29396857Y71040239D01*
X29301619Y71135477D01*
X29254000Y71230715D01*
X29206380Y71421191D01*
X29206380Y71564048D01*
X29254000Y71754524D01*
X29301619Y71849762D01*
X29396857Y71945000D01*
X29539714Y71992620D01*
X29634952Y71992620D01*
X29777809Y71945000D01*
X29825428Y71897381D01*
X30206380Y71040239D02*
X30349238Y70992620D01*
X30587333Y70992620D01*
X30682571Y71040239D01*
X30730190Y71087858D01*
X30777809Y71183096D01*
X30777809Y71278334D01*
X30730190Y71373572D01*
X30682571Y71421191D01*
X30587333Y71468810D01*
X30396857Y71516429D01*
X30301619Y71564048D01*
X30254000Y71611667D01*
X30206380Y71706905D01*
X30206380Y71802143D01*
X30254000Y71897381D01*
X30301619Y71945000D01*
X30396857Y71992620D01*
X30634952Y71992620D01*
X30777809Y71945000D01*
X31206380Y70992620D02*
X31206380Y71992620D01*
X31587333Y71992620D01*
X31682571Y71945000D01*
X31730190Y71897381D01*
X31777809Y71802143D01*
X31777809Y71659286D01*
X31730190Y71564048D01*
X31682571Y71516429D01*
X31587333Y71468810D01*
X31206380Y71468810D01*
X79666666Y8047620D02*
X79666666Y7333334D01*
X79619047Y7190477D01*
X79523809Y7095239D01*
X79380952Y7047620D01*
X79285714Y7047620D01*
X80095238Y7952381D02*
X80142857Y8000000D01*
X80238095Y8047620D01*
X80476190Y8047620D01*
X80571428Y8000000D01*
X80619047Y7952381D01*
X80666666Y7857143D01*
X80666666Y7761905D01*
X80619047Y7619048D01*
X80047619Y7047620D01*
X80666666Y7047620D01*
X83904761Y7333334D02*
X84380952Y7333334D01*
X83809523Y7047620D02*
X84142857Y8047620D01*
X84476190Y7047620D01*
X84809523Y7571429D02*
X85142857Y7571429D01*
X85285714Y7047620D02*
X84809523Y7047620D01*
X84809523Y8047620D01*
X85285714Y8047620D01*
X85714285Y7428572D02*
X86476190Y7428572D01*
X86952380Y7047620D02*
X86952380Y8047620D01*
X87285714Y7333334D01*
X87619047Y8047620D01*
X87619047Y7047620D01*
X88095238Y7047620D02*
X88095238Y8047620D01*
X89142857Y7142858D02*
X89095238Y7095239D01*
X88952380Y7047620D01*
X88857142Y7047620D01*
X88714285Y7095239D01*
X88619047Y7190477D01*
X88571428Y7285715D01*
X88523809Y7476191D01*
X88523809Y7619048D01*
X88571428Y7809524D01*
X88619047Y7904762D01*
X88714285Y8000000D01*
X88857142Y8047620D01*
X88952380Y8047620D01*
X89095238Y8000000D01*
X89142857Y7952381D01*
X90142857Y7047620D02*
X89809523Y7523810D01*
X89571428Y7047620D02*
X89571428Y8047620D01*
X89952380Y8047620D01*
X90047619Y8000000D01*
X90095238Y7952381D01*
X90142857Y7857143D01*
X90142857Y7714286D01*
X90095238Y7619048D01*
X90047619Y7571429D01*
X89952380Y7523810D01*
X89571428Y7523810D01*
X90761904Y8047620D02*
X90952380Y8047620D01*
X91047619Y8000000D01*
X91142857Y7904762D01*
X91190476Y7714286D01*
X91190476Y7380953D01*
X91142857Y7190477D01*
X91047619Y7095239D01*
X90952380Y7047620D01*
X90761904Y7047620D01*
X90666666Y7095239D01*
X90571428Y7190477D01*
X90523809Y7380953D01*
X90523809Y7714286D01*
X90571428Y7904762D01*
X90666666Y8000000D01*
X90761904Y8047620D01*
X91619047Y7428572D02*
X92380952Y7428572D01*
X92809523Y7095239D02*
X92952380Y7047620D01*
X93190476Y7047620D01*
X93285714Y7095239D01*
X93333333Y7142858D01*
X93380952Y7238096D01*
X93380952Y7333334D01*
X93333333Y7428572D01*
X93285714Y7476191D01*
X93190476Y7523810D01*
X93000000Y7571429D01*
X92904761Y7619048D01*
X92857142Y7666667D01*
X92809523Y7761905D01*
X92809523Y7857143D01*
X92857142Y7952381D01*
X92904761Y8000000D01*
X93000000Y8047620D01*
X93238095Y8047620D01*
X93380952Y8000000D01*
X93809523Y7047620D02*
X93809523Y8047620D01*
X94047619Y8047620D01*
X94190476Y8000000D01*
X94285714Y7904762D01*
X94333333Y7809524D01*
X94380952Y7619048D01*
X94380952Y7476191D01*
X94333333Y7285715D01*
X94285714Y7190477D01*
X94190476Y7095239D01*
X94047619Y7047620D01*
X93809523Y7047620D01*
X94809523Y7428572D02*
X95571428Y7428572D01*
X96047619Y7047620D02*
X96047619Y8047620D01*
X96285714Y8047620D01*
X96428571Y8000000D01*
X96523809Y7904762D01*
X96571428Y7809524D01*
X96619047Y7619048D01*
X96619047Y7476191D01*
X96571428Y7285715D01*
X96523809Y7190477D01*
X96428571Y7095239D01*
X96285714Y7047620D01*
X96047619Y7047620D01*
X97047619Y7047620D02*
X97047619Y8047620D01*
X97523809Y7047620D02*
X97523809Y8047620D01*
X97904761Y8047620D01*
X98000000Y8000000D01*
X98047619Y7952381D01*
X98095238Y7857143D01*
X98095238Y7714286D01*
X98047619Y7619048D01*
X98000000Y7571429D01*
X97904761Y7523810D01*
X97523809Y7523810D01*
X82806666Y60777620D02*
X82806666Y60063334D01*
X82759047Y59920477D01*
X82663809Y59825239D01*
X82520952Y59777620D01*
X82425714Y59777620D01*
X83187619Y60777620D02*
X83806666Y60777620D01*
X83473333Y60396667D01*
X83616190Y60396667D01*
X83711428Y60349048D01*
X83759047Y60301429D01*
X83806666Y60206191D01*
X83806666Y59968096D01*
X83759047Y59872858D01*
X83711428Y59825239D01*
X83616190Y59777620D01*
X83330476Y59777620D01*
X83235238Y59825239D01*
X83187619Y59872858D01*
X84354285Y62777620D02*
X84354285Y63777620D01*
X84687619Y63063334D01*
X85020952Y63777620D01*
X85020952Y62777620D01*
X86068571Y62777620D02*
X85735238Y63253810D01*
X85497142Y62777620D02*
X85497142Y63777620D01*
X85878095Y63777620D01*
X85973333Y63730000D01*
X86020952Y63682381D01*
X86068571Y63587143D01*
X86068571Y63444286D01*
X86020952Y63349048D01*
X85973333Y63301429D01*
X85878095Y63253810D01*
X85497142Y63253810D01*
X86497142Y63777620D02*
X86497142Y62968096D01*
X86544761Y62872858D01*
X86592380Y62825239D01*
X86687619Y62777620D01*
X86878095Y62777620D01*
X86973333Y62825239D01*
X87020952Y62872858D01*
X87068571Y62968096D01*
X87068571Y63777620D01*
X87497142Y62825239D02*
X87640000Y62777620D01*
X87878095Y62777620D01*
X87973333Y62825239D01*
X88020952Y62872858D01*
X88068571Y62968096D01*
X88068571Y63063334D01*
X88020952Y63158572D01*
X87973333Y63206191D01*
X87878095Y63253810D01*
X87687619Y63301429D01*
X87592380Y63349048D01*
X87544761Y63396667D01*
X87497142Y63491905D01*
X87497142Y63587143D01*
X87544761Y63682381D01*
X87592380Y63730000D01*
X87687619Y63777620D01*
X87925714Y63777620D01*
X88068571Y63730000D01*
X88830476Y63301429D02*
X88973333Y63253810D01*
X89020952Y63206191D01*
X89068571Y63110953D01*
X89068571Y62968096D01*
X89020952Y62872858D01*
X88973333Y62825239D01*
X88878095Y62777620D01*
X88497142Y62777620D01*
X88497142Y63777620D01*
X88830476Y63777620D01*
X88925714Y63730000D01*
X88973333Y63682381D01*
X89020952Y63587143D01*
X89020952Y63491905D01*
X88973333Y63396667D01*
X88925714Y63349048D01*
X88830476Y63301429D01*
X88497142Y63301429D01*
X89497142Y63158572D02*
X90259047Y63158572D01*
X90687619Y63682381D02*
X90735238Y63730000D01*
X90830476Y63777620D01*
X91068571Y63777620D01*
X91163809Y63730000D01*
X91211428Y63682381D01*
X91259047Y63587143D01*
X91259047Y63491905D01*
X91211428Y63349048D01*
X90640000Y62777620D01*
X91259047Y62777620D01*
X92020952Y63301429D02*
X92163809Y63253810D01*
X92211428Y63206191D01*
X92259047Y63110953D01*
X92259047Y62968096D01*
X92211428Y62872858D01*
X92163809Y62825239D01*
X92068571Y62777620D01*
X91687619Y62777620D01*
X91687619Y63777620D01*
X92020952Y63777620D01*
X92116190Y63730000D01*
X92163809Y63682381D01*
X92211428Y63587143D01*
X92211428Y63491905D01*
X92163809Y63396667D01*
X92116190Y63349048D01*
X92020952Y63301429D01*
X91687619Y63301429D01*
X92687619Y63158572D02*
X93449523Y63158572D01*
X93925714Y62777620D02*
X93925714Y63777620D01*
X94163809Y63777620D01*
X94306666Y63730000D01*
X94401904Y63634762D01*
X94449523Y63539524D01*
X94497142Y63349048D01*
X94497142Y63206191D01*
X94449523Y63015715D01*
X94401904Y62920477D01*
X94306666Y62825239D01*
X94163809Y62777620D01*
X93925714Y62777620D01*
X95449523Y62777620D02*
X94878095Y62777620D01*
X95163809Y62777620D02*
X95163809Y63777620D01*
X95068571Y63634762D01*
X94973333Y63539524D01*
X94878095Y63491905D01*
X96306666Y63444286D02*
X96306666Y62777620D01*
X96068571Y63825239D02*
X95830476Y63110953D01*
X96449523Y63110953D01*
X96830476Y62777620D02*
X96830476Y63777620D01*
X97401904Y62777620D01*
X97401904Y63777620D01*
X97878095Y62777620D02*
X97878095Y63777620D01*
X98354285Y63158572D02*
X99116190Y63158572D01*
X99544761Y62825239D02*
X99687619Y62777620D01*
X99925714Y62777620D01*
X100020952Y62825239D01*
X100068571Y62872858D01*
X100116190Y62968096D01*
X100116190Y63063334D01*
X100068571Y63158572D01*
X100020952Y63206191D01*
X99925714Y63253810D01*
X99735238Y63301429D01*
X99640000Y63349048D01*
X99592380Y63396667D01*
X99544761Y63491905D01*
X99544761Y63587143D01*
X99592380Y63682381D01*
X99640000Y63730000D01*
X99735238Y63777620D01*
X99973333Y63777620D01*
X100116190Y63730000D01*
X100449523Y63777620D02*
X101068571Y63777620D01*
X100735238Y63396667D01*
X100878095Y63396667D01*
X100973333Y63349048D01*
X101020952Y63301429D01*
X101068571Y63206191D01*
X101068571Y62968096D01*
X101020952Y62872858D01*
X100973333Y62825239D01*
X100878095Y62777620D01*
X100592380Y62777620D01*
X100497142Y62825239D01*
X100449523Y62872858D01*
X101687619Y63777620D02*
X101782857Y63777620D01*
X101878095Y63730000D01*
X101925714Y63682381D01*
X101973333Y63587143D01*
X102020952Y63396667D01*
X102020952Y63158572D01*
X101973333Y62968096D01*
X101925714Y62872858D01*
X101878095Y62825239D01*
X101782857Y62777620D01*
X101687619Y62777620D01*
X101592380Y62825239D01*
X101544761Y62872858D01*
X101497142Y62968096D01*
X101449523Y63158572D01*
X101449523Y63396667D01*
X101497142Y63587143D01*
X101544761Y63682381D01*
X101592380Y63730000D01*
X101687619Y63777620D01*
X102878095Y63777620D02*
X102687619Y63777620D01*
X102592380Y63730000D01*
X102544761Y63682381D01*
X102449523Y63539524D01*
X102401904Y63349048D01*
X102401904Y62968096D01*
X102449523Y62872858D01*
X102497142Y62825239D01*
X102592380Y62777620D01*
X102782857Y62777620D01*
X102878095Y62825239D01*
X102925714Y62872858D01*
X102973333Y62968096D01*
X102973333Y63206191D01*
X102925714Y63301429D01*
X102878095Y63349048D01*
X102782857Y63396667D01*
X102592380Y63396667D01*
X102497142Y63349048D01*
X102449523Y63301429D01*
X102401904Y63206191D01*
X88369047Y58928572D02*
X89130952Y58928572D01*
X88750000Y58547620D02*
X88750000Y59309524D01*
X13555666Y8182620D02*
X13555666Y7468334D01*
X13508047Y7325477D01*
X13412809Y7230239D01*
X13269952Y7182620D01*
X13174714Y7182620D01*
X14460428Y7849286D02*
X14460428Y7182620D01*
X14222333Y8230239D02*
X13984238Y7515953D01*
X14603285Y7515953D01*
X19150904Y7182620D02*
X19150904Y8182620D01*
X19722333Y7182620D02*
X19293761Y7754048D01*
X19722333Y8182620D02*
X19150904Y7611191D01*
X20531857Y7230239D02*
X20436619Y7182620D01*
X20246142Y7182620D01*
X20150904Y7230239D01*
X20103285Y7325477D01*
X20103285Y7706429D01*
X20150904Y7801667D01*
X20246142Y7849286D01*
X20436619Y7849286D01*
X20531857Y7801667D01*
X20579476Y7706429D01*
X20579476Y7611191D01*
X20103285Y7515953D01*
X20912809Y7849286D02*
X21150904Y7182620D01*
X21389000Y7849286D02*
X21150904Y7182620D01*
X21055666Y6944524D01*
X21008047Y6896905D01*
X20912809Y6849286D01*
X22103285Y7706429D02*
X22246142Y7658810D01*
X22293761Y7611191D01*
X22341380Y7515953D01*
X22341380Y7373096D01*
X22293761Y7277858D01*
X22246142Y7230239D01*
X22150904Y7182620D01*
X21769952Y7182620D01*
X21769952Y8182620D01*
X22103285Y8182620D01*
X22198523Y8135000D01*
X22246142Y8087381D01*
X22293761Y7992143D01*
X22293761Y7896905D01*
X22246142Y7801667D01*
X22198523Y7754048D01*
X22103285Y7706429D01*
X21769952Y7706429D01*
X22912809Y7182620D02*
X22817571Y7230239D01*
X22769952Y7277858D01*
X22722333Y7373096D01*
X22722333Y7658810D01*
X22769952Y7754048D01*
X22817571Y7801667D01*
X22912809Y7849286D01*
X23055666Y7849286D01*
X23150904Y7801667D01*
X23198523Y7754048D01*
X23246142Y7658810D01*
X23246142Y7373096D01*
X23198523Y7277858D01*
X23150904Y7230239D01*
X23055666Y7182620D01*
X22912809Y7182620D01*
X24103285Y7182620D02*
X24103285Y7706429D01*
X24055666Y7801667D01*
X23960428Y7849286D01*
X23769952Y7849286D01*
X23674714Y7801667D01*
X24103285Y7230239D02*
X24008047Y7182620D01*
X23769952Y7182620D01*
X23674714Y7230239D01*
X23627095Y7325477D01*
X23627095Y7420715D01*
X23674714Y7515953D01*
X23769952Y7563572D01*
X24008047Y7563572D01*
X24103285Y7611191D01*
X24579476Y7182620D02*
X24579476Y7849286D01*
X24579476Y7658810D02*
X24627095Y7754048D01*
X24674714Y7801667D01*
X24769952Y7849286D01*
X24865190Y7849286D01*
X25627095Y7182620D02*
X25627095Y8182620D01*
X25627095Y7230239D02*
X25531857Y7182620D01*
X25341380Y7182620D01*
X25246142Y7230239D01*
X25198523Y7277858D01*
X25150904Y7373096D01*
X25150904Y7658810D01*
X25198523Y7754048D01*
X25246142Y7801667D01*
X25341380Y7849286D01*
X25531857Y7849286D01*
X25627095Y7801667D01*
X1962142Y33332620D02*
X1485952Y33332620D01*
X1485952Y34332620D01*
X2247857Y33380239D02*
X2390714Y33332620D01*
X2628809Y33332620D01*
X2724047Y33380239D01*
X2771666Y33427858D01*
X2819285Y33523096D01*
X2819285Y33618334D01*
X2771666Y33713572D01*
X2724047Y33761191D01*
X2628809Y33808810D01*
X2438333Y33856429D01*
X2343095Y33904048D01*
X2295476Y33951667D01*
X2247857Y34046905D01*
X2247857Y34142143D01*
X2295476Y34237381D01*
X2343095Y34285000D01*
X2438333Y34332620D01*
X2676428Y34332620D01*
X2819285Y34285000D01*
X3771666Y33332620D02*
X3200238Y33332620D01*
X3485952Y33332620D02*
X3485952Y34332620D01*
X3390714Y34189762D01*
X3295476Y34094524D01*
X3200238Y34046905D01*
X3343095Y22880239D02*
X3485952Y22832620D01*
X3724047Y22832620D01*
X3819285Y22880239D01*
X3866904Y22927858D01*
X3914523Y23023096D01*
X3914523Y23118334D01*
X3866904Y23213572D01*
X3819285Y23261191D01*
X3724047Y23308810D01*
X3533571Y23356429D01*
X3438333Y23404048D01*
X3390714Y23451667D01*
X3343095Y23546905D01*
X3343095Y23642143D01*
X3390714Y23737381D01*
X3438333Y23785000D01*
X3533571Y23832620D01*
X3771666Y23832620D01*
X3914523Y23785000D01*
X4343095Y23499286D02*
X4343095Y22499286D01*
X4343095Y23451667D02*
X4438333Y23499286D01*
X4628809Y23499286D01*
X4724047Y23451667D01*
X4771666Y23404048D01*
X4819285Y23308810D01*
X4819285Y23023096D01*
X4771666Y22927858D01*
X4724047Y22880239D01*
X4628809Y22832620D01*
X4438333Y22832620D01*
X4343095Y22880239D01*
X5628809Y22880239D02*
X5533571Y22832620D01*
X5343095Y22832620D01*
X5247857Y22880239D01*
X5200238Y22975477D01*
X5200238Y23356429D01*
X5247857Y23451667D01*
X5343095Y23499286D01*
X5533571Y23499286D01*
X5628809Y23451667D01*
X5676428Y23356429D01*
X5676428Y23261191D01*
X5200238Y23165953D01*
X6533571Y22832620D02*
X6533571Y23356429D01*
X6485952Y23451667D01*
X6390714Y23499286D01*
X6200238Y23499286D01*
X6105000Y23451667D01*
X6533571Y22880239D02*
X6438333Y22832620D01*
X6200238Y22832620D01*
X6105000Y22880239D01*
X6057380Y22975477D01*
X6057380Y23070715D01*
X6105000Y23165953D01*
X6200238Y23213572D01*
X6438333Y23213572D01*
X6533571Y23261191D01*
X7009761Y22832620D02*
X7009761Y23832620D01*
X7105000Y23213572D02*
X7390714Y22832620D01*
X7390714Y23499286D02*
X7009761Y23118334D01*
X8200238Y22880239D02*
X8105000Y22832620D01*
X7914523Y22832620D01*
X7819285Y22880239D01*
X7771666Y22975477D01*
X7771666Y23356429D01*
X7819285Y23451667D01*
X7914523Y23499286D01*
X8105000Y23499286D01*
X8200238Y23451667D01*
X8247857Y23356429D01*
X8247857Y23261191D01*
X7771666Y23165953D01*
X8676428Y22832620D02*
X8676428Y23499286D01*
X8676428Y23308810D02*
X8724047Y23404048D01*
X8771666Y23451667D01*
X8866904Y23499286D01*
X8962142Y23499286D01*
X21423333Y63127620D02*
X21090000Y63603810D01*
X20851904Y63127620D02*
X20851904Y64127620D01*
X21232857Y64127620D01*
X21328095Y64080000D01*
X21375714Y64032381D01*
X21423333Y63937143D01*
X21423333Y63794286D01*
X21375714Y63699048D01*
X21328095Y63651429D01*
X21232857Y63603810D01*
X20851904Y63603810D01*
X22375714Y63127620D02*
X21804285Y63127620D01*
X22090000Y63127620D02*
X22090000Y64127620D01*
X21994761Y63984762D01*
X21899523Y63889524D01*
X21804285Y63841905D01*
X26019285Y64047620D02*
X26638333Y64047620D01*
X26305000Y63666667D01*
X26447857Y63666667D01*
X26543095Y63619048D01*
X26590714Y63571429D01*
X26638333Y63476191D01*
X26638333Y63238096D01*
X26590714Y63142858D01*
X26543095Y63095239D01*
X26447857Y63047620D01*
X26162142Y63047620D01*
X26066904Y63095239D01*
X26019285Y63142858D01*
X26971666Y64047620D02*
X27590714Y64047620D01*
X27257380Y63666667D01*
X27400238Y63666667D01*
X27495476Y63619048D01*
X27543095Y63571429D01*
X27590714Y63476191D01*
X27590714Y63238096D01*
X27543095Y63142858D01*
X27495476Y63095239D01*
X27400238Y63047620D01*
X27114523Y63047620D01*
X27019285Y63095239D01*
X26971666Y63142858D01*
X28209761Y64047620D02*
X28305000Y64047620D01*
X28400238Y64000000D01*
X28447857Y63952381D01*
X28495476Y63857143D01*
X28543095Y63666667D01*
X28543095Y63428572D01*
X28495476Y63238096D01*
X28447857Y63142858D01*
X28400238Y63095239D01*
X28305000Y63047620D01*
X28209761Y63047620D01*
X28114523Y63095239D01*
X28066904Y63142858D01*
X28019285Y63238096D01*
X27971666Y63428572D01*
X27971666Y63666667D01*
X28019285Y63857143D01*
X28066904Y63952381D01*
X28114523Y64000000D01*
X28209761Y64047620D01*
X65333333Y23047620D02*
X65000000Y23523810D01*
X64761904Y23047620D02*
X64761904Y24047620D01*
X65142857Y24047620D01*
X65238095Y24000000D01*
X65285714Y23952381D01*
X65333333Y23857143D01*
X65333333Y23714286D01*
X65285714Y23619048D01*
X65238095Y23571429D01*
X65142857Y23523810D01*
X64761904Y23523810D01*
X65714285Y23952381D02*
X65761904Y24000000D01*
X65857142Y24047620D01*
X66095238Y24047620D01*
X66190476Y24000000D01*
X66238095Y23952381D01*
X66285714Y23857143D01*
X66285714Y23761905D01*
X66238095Y23619048D01*
X65666666Y23047620D01*
X66285714Y23047620D01*
X70333333Y20547620D02*
X69761904Y20547620D01*
X70047619Y20547620D02*
X70047619Y21547620D01*
X69952380Y21404762D01*
X69857142Y21309524D01*
X69761904Y21261905D01*
X70952380Y21547620D02*
X71047619Y21547620D01*
X71142857Y21500000D01*
X71190476Y21452381D01*
X71238095Y21357143D01*
X71285714Y21166667D01*
X71285714Y20928572D01*
X71238095Y20738096D01*
X71190476Y20642858D01*
X71142857Y20595239D01*
X71047619Y20547620D01*
X70952380Y20547620D01*
X70857142Y20595239D01*
X70809523Y20642858D01*
X70761904Y20738096D01*
X70714285Y20928572D01*
X70714285Y21166667D01*
X70761904Y21357143D01*
X70809523Y21452381D01*
X70857142Y21500000D01*
X70952380Y21547620D01*
X71904761Y21547620D02*
X72000000Y21547620D01*
X72095238Y21500000D01*
X72142857Y21452381D01*
X72190476Y21357143D01*
X72238095Y21166667D01*
X72238095Y20928572D01*
X72190476Y20738096D01*
X72142857Y20642858D01*
X72095238Y20595239D01*
X72000000Y20547620D01*
X71904761Y20547620D01*
X71809523Y20595239D01*
X71761904Y20642858D01*
X71714285Y20738096D01*
X71666666Y20928572D01*
X71666666Y21166667D01*
X71714285Y21357143D01*
X71761904Y21452381D01*
X71809523Y21500000D01*
X71904761Y21547620D01*
X68833333Y23047620D02*
X68500000Y23523810D01*
X68261904Y23047620D02*
X68261904Y24047620D01*
X68642857Y24047620D01*
X68738095Y24000000D01*
X68785714Y23952381D01*
X68833333Y23857143D01*
X68833333Y23714286D01*
X68785714Y23619048D01*
X68738095Y23571429D01*
X68642857Y23523810D01*
X68261904Y23523810D01*
X69166666Y24047620D02*
X69785714Y24047620D01*
X69452380Y23666667D01*
X69595238Y23666667D01*
X69690476Y23619048D01*
X69738095Y23571429D01*
X69785714Y23476191D01*
X69785714Y23238096D01*
X69738095Y23142858D01*
X69690476Y23095239D01*
X69595238Y23047620D01*
X69309523Y23047620D01*
X69214285Y23095239D01*
X69166666Y23142858D01*
X72833333Y23047620D02*
X72500000Y23523810D01*
X72261904Y23047620D02*
X72261904Y24047620D01*
X72642857Y24047620D01*
X72738095Y24000000D01*
X72785714Y23952381D01*
X72833333Y23857143D01*
X72833333Y23714286D01*
X72785714Y23619048D01*
X72738095Y23571429D01*
X72642857Y23523810D01*
X72261904Y23523810D01*
X73690476Y23714286D02*
X73690476Y23047620D01*
X73452380Y24095239D02*
X73214285Y23380953D01*
X73833333Y23380953D01*
X76833333Y23047620D02*
X76500000Y23523810D01*
X76261904Y23047620D02*
X76261904Y24047620D01*
X76642857Y24047620D01*
X76738095Y24000000D01*
X76785714Y23952381D01*
X76833333Y23857143D01*
X76833333Y23714286D01*
X76785714Y23619048D01*
X76738095Y23571429D01*
X76642857Y23523810D01*
X76261904Y23523810D01*
X77738095Y24047620D02*
X77261904Y24047620D01*
X77214285Y23571429D01*
X77261904Y23619048D01*
X77357142Y23666667D01*
X77595238Y23666667D01*
X77690476Y23619048D01*
X77738095Y23571429D01*
X77785714Y23476191D01*
X77785714Y23238096D01*
X77738095Y23142858D01*
X77690476Y23095239D01*
X77595238Y23047620D01*
X77357142Y23047620D01*
X77261904Y23095239D01*
X77214285Y23142858D01*
X8708333Y20512620D02*
X8375000Y20988810D01*
X8136904Y20512620D02*
X8136904Y21512620D01*
X8517857Y21512620D01*
X8613095Y21465000D01*
X8660714Y21417381D01*
X8708333Y21322143D01*
X8708333Y21179286D01*
X8660714Y21084048D01*
X8613095Y21036429D01*
X8517857Y20988810D01*
X8136904Y20988810D01*
X9565476Y21512620D02*
X9375000Y21512620D01*
X9279761Y21465000D01*
X9232142Y21417381D01*
X9136904Y21274524D01*
X9089285Y21084048D01*
X9089285Y20703096D01*
X9136904Y20607858D01*
X9184523Y20560239D01*
X9279761Y20512620D01*
X9470238Y20512620D01*
X9565476Y20560239D01*
X9613095Y20607858D01*
X9660714Y20703096D01*
X9660714Y20941191D01*
X9613095Y21036429D01*
X9565476Y21084048D01*
X9470238Y21131667D01*
X9279761Y21131667D01*
X9184523Y21084048D01*
X9136904Y21036429D01*
X9089285Y20941191D01*
X8279761Y15512620D02*
X7708333Y15512620D01*
X7994047Y15512620D02*
X7994047Y16512620D01*
X7898809Y16369762D01*
X7803571Y16274524D01*
X7708333Y16226905D01*
X8898809Y16512620D02*
X8994047Y16512620D01*
X9089285Y16465000D01*
X9136904Y16417381D01*
X9184523Y16322143D01*
X9232142Y16131667D01*
X9232142Y15893572D01*
X9184523Y15703096D01*
X9136904Y15607858D01*
X9089285Y15560239D01*
X8994047Y15512620D01*
X8898809Y15512620D01*
X8803571Y15560239D01*
X8755952Y15607858D01*
X8708333Y15703096D01*
X8660714Y15893572D01*
X8660714Y16131667D01*
X8708333Y16322143D01*
X8755952Y16417381D01*
X8803571Y16465000D01*
X8898809Y16512620D01*
X9660714Y15512620D02*
X9660714Y16512620D01*
X9755952Y15893572D02*
X10041666Y15512620D01*
X10041666Y16179286D02*
X9660714Y15798334D01*
X37078333Y1047620D02*
X36745000Y1523810D01*
X36506904Y1047620D02*
X36506904Y2047620D01*
X36887857Y2047620D01*
X36983095Y2000000D01*
X37030714Y1952381D01*
X37078333Y1857143D01*
X37078333Y1714286D01*
X37030714Y1619048D01*
X36983095Y1571429D01*
X36887857Y1523810D01*
X36506904Y1523810D01*
X37411666Y2047620D02*
X38078333Y2047620D01*
X37649761Y1047620D01*
X41149761Y13047620D02*
X40578333Y13047620D01*
X40864047Y13047620D02*
X40864047Y14047620D01*
X40768809Y13904762D01*
X40673571Y13809524D01*
X40578333Y13761905D01*
X41768809Y14047620D02*
X41864047Y14047620D01*
X41959285Y14000000D01*
X42006904Y13952381D01*
X42054523Y13857143D01*
X42102142Y13666667D01*
X42102142Y13428572D01*
X42054523Y13238096D01*
X42006904Y13142858D01*
X41959285Y13095239D01*
X41864047Y13047620D01*
X41768809Y13047620D01*
X41673571Y13095239D01*
X41625952Y13142858D01*
X41578333Y13238096D01*
X41530714Y13428572D01*
X41530714Y13666667D01*
X41578333Y13857143D01*
X41625952Y13952381D01*
X41673571Y14000000D01*
X41768809Y14047620D01*
X42530714Y13047620D02*
X42530714Y14047620D01*
X42625952Y13428572D02*
X42911666Y13047620D01*
X42911666Y13714286D02*
X42530714Y13333334D01*
X41078333Y1047620D02*
X40745000Y1523810D01*
X40506904Y1047620D02*
X40506904Y2047620D01*
X40887857Y2047620D01*
X40983095Y2000000D01*
X41030714Y1952381D01*
X41078333Y1857143D01*
X41078333Y1714286D01*
X41030714Y1619048D01*
X40983095Y1571429D01*
X40887857Y1523810D01*
X40506904Y1523810D01*
X41649761Y1619048D02*
X41554523Y1666667D01*
X41506904Y1714286D01*
X41459285Y1809524D01*
X41459285Y1857143D01*
X41506904Y1952381D01*
X41554523Y2000000D01*
X41649761Y2047620D01*
X41840238Y2047620D01*
X41935476Y2000000D01*
X41983095Y1952381D01*
X42030714Y1857143D01*
X42030714Y1809524D01*
X41983095Y1714286D01*
X41935476Y1666667D01*
X41840238Y1619048D01*
X41649761Y1619048D01*
X41554523Y1571429D01*
X41506904Y1523810D01*
X41459285Y1428572D01*
X41459285Y1238096D01*
X41506904Y1142858D01*
X41554523Y1095239D01*
X41649761Y1047620D01*
X41840238Y1047620D01*
X41935476Y1095239D01*
X41983095Y1142858D01*
X42030714Y1238096D01*
X42030714Y1428572D01*
X41983095Y1523810D01*
X41935476Y1571429D01*
X41840238Y1619048D01*
X45078333Y1047620D02*
X44745000Y1523810D01*
X44506904Y1047620D02*
X44506904Y2047620D01*
X44887857Y2047620D01*
X44983095Y2000000D01*
X45030714Y1952381D01*
X45078333Y1857143D01*
X45078333Y1714286D01*
X45030714Y1619048D01*
X44983095Y1571429D01*
X44887857Y1523810D01*
X44506904Y1523810D01*
X45554523Y1047620D02*
X45745000Y1047620D01*
X45840238Y1095239D01*
X45887857Y1142858D01*
X45983095Y1285715D01*
X46030714Y1476191D01*
X46030714Y1857143D01*
X45983095Y1952381D01*
X45935476Y2000000D01*
X45840238Y2047620D01*
X45649761Y2047620D01*
X45554523Y2000000D01*
X45506904Y1952381D01*
X45459285Y1857143D01*
X45459285Y1619048D01*
X45506904Y1523810D01*
X45554523Y1476191D01*
X45649761Y1428572D01*
X45840238Y1428572D01*
X45935476Y1476191D01*
X45983095Y1523810D01*
X46030714Y1619048D01*
X15238095Y60889239D02*
X15380952Y60841620D01*
X15619047Y60841620D01*
X15714285Y60889239D01*
X15761904Y60936858D01*
X15809523Y61032096D01*
X15809523Y61127334D01*
X15761904Y61222572D01*
X15714285Y61270191D01*
X15619047Y61317810D01*
X15428571Y61365429D01*
X15333333Y61413048D01*
X15285714Y61460667D01*
X15238095Y61555905D01*
X15238095Y61651143D01*
X15285714Y61746381D01*
X15333333Y61794000D01*
X15428571Y61841620D01*
X15666666Y61841620D01*
X15809523Y61794000D01*
X16761904Y60841620D02*
X16190476Y60841620D01*
X16476190Y60841620D02*
X16476190Y61841620D01*
X16380952Y61698762D01*
X16285714Y61603524D01*
X16190476Y61555905D01*
X8880952Y65889239D02*
X9023809Y65841620D01*
X9261904Y65841620D01*
X9357142Y65889239D01*
X9404761Y65936858D01*
X9452380Y66032096D01*
X9452380Y66127334D01*
X9404761Y66222572D01*
X9357142Y66270191D01*
X9261904Y66317810D01*
X9071428Y66365429D01*
X8976190Y66413048D01*
X8928571Y66460667D01*
X8880952Y66555905D01*
X8880952Y66651143D01*
X8928571Y66746381D01*
X8976190Y66794000D01*
X9071428Y66841620D01*
X9309523Y66841620D01*
X9452380Y66794000D01*
X9738095Y66841620D02*
X10309523Y66841620D01*
X10023809Y65841620D02*
X10023809Y66841620D01*
X10642857Y66365429D02*
X10976190Y66365429D01*
X11119047Y65841620D02*
X10642857Y65841620D01*
X10642857Y66841620D01*
X11119047Y66841620D01*
X11547619Y65841620D02*
X11547619Y66841620D01*
X11928571Y66841620D01*
X12023809Y66794000D01*
X12071428Y66746381D01*
X12119047Y66651143D01*
X12119047Y66508286D01*
X12071428Y66413048D01*
X12023809Y66365429D01*
X11928571Y66317810D01*
X11547619Y66317810D01*
X14785714Y66127334D02*
X15261904Y66127334D01*
X14690476Y65841620D02*
X15023809Y66841620D01*
X15357142Y65841620D01*
X15690476Y66841620D02*
X15690476Y66032096D01*
X15738095Y65936858D01*
X15785714Y65889239D01*
X15880952Y65841620D01*
X16071428Y65841620D01*
X16166666Y65889239D01*
X16214285Y65936858D01*
X16261904Y66032096D01*
X16261904Y66841620D01*
X16595238Y66841620D02*
X17166666Y66841620D01*
X16880952Y65841620D02*
X16880952Y66841620D01*
X17690476Y66841620D02*
X17880952Y66841620D01*
X17976190Y66794000D01*
X18071428Y66698762D01*
X18119047Y66508286D01*
X18119047Y66174953D01*
X18071428Y65984477D01*
X17976190Y65889239D01*
X17880952Y65841620D01*
X17690476Y65841620D01*
X17595238Y65889239D01*
X17500000Y65984477D01*
X17452380Y66174953D01*
X17452380Y66508286D01*
X17500000Y66698762D01*
X17595238Y66794000D01*
X17690476Y66841620D01*
X72738095Y59595239D02*
X72880952Y59547620D01*
X73119047Y59547620D01*
X73214285Y59595239D01*
X73261904Y59642858D01*
X73309523Y59738096D01*
X73309523Y59833334D01*
X73261904Y59928572D01*
X73214285Y59976191D01*
X73119047Y60023810D01*
X72928571Y60071429D01*
X72833333Y60119048D01*
X72785714Y60166667D01*
X72738095Y60261905D01*
X72738095Y60357143D01*
X72785714Y60452381D01*
X72833333Y60500000D01*
X72928571Y60547620D01*
X73166666Y60547620D01*
X73309523Y60500000D01*
X73690476Y60452381D02*
X73738095Y60500000D01*
X73833333Y60547620D01*
X74071428Y60547620D01*
X74166666Y60500000D01*
X74214285Y60452381D01*
X74261904Y60357143D01*
X74261904Y60261905D01*
X74214285Y60119048D01*
X73642857Y59547620D01*
X74261904Y59547620D01*
X70476190Y66547620D02*
X70666666Y66547620D01*
X70761904Y66500000D01*
X70857142Y66404762D01*
X70904761Y66214286D01*
X70904761Y65880953D01*
X70857142Y65690477D01*
X70761904Y65595239D01*
X70666666Y65547620D01*
X70476190Y65547620D01*
X70380952Y65595239D01*
X70285714Y65690477D01*
X70238095Y65880953D01*
X70238095Y66214286D01*
X70285714Y66404762D01*
X70380952Y66500000D01*
X70476190Y66547620D01*
X71666666Y66071429D02*
X71333333Y66071429D01*
X71333333Y65547620D02*
X71333333Y66547620D01*
X71809523Y66547620D01*
X72523809Y66071429D02*
X72190476Y66071429D01*
X72190476Y65547620D02*
X72190476Y66547620D01*
X72666666Y66547620D01*
X76285714Y66547620D02*
X76476190Y66547620D01*
X76571428Y66500000D01*
X76666666Y66404762D01*
X76714285Y66214286D01*
X76714285Y65880953D01*
X76666666Y65690477D01*
X76571428Y65595239D01*
X76476190Y65547620D01*
X76285714Y65547620D01*
X76190476Y65595239D01*
X76095238Y65690477D01*
X76047619Y65880953D01*
X76047619Y66214286D01*
X76095238Y66404762D01*
X76190476Y66500000D01*
X76285714Y66547620D01*
X77142857Y65547620D02*
X77142857Y66547620D01*
X77714285Y65547620D01*
X77714285Y66547620D01*
X2738095Y36047620D02*
X2738095Y35238096D01*
X2785714Y35142858D01*
X2833333Y35095239D01*
X2928571Y35047620D01*
X3119047Y35047620D01*
X3214285Y35095239D01*
X3261904Y35142858D01*
X3309523Y35238096D01*
X3309523Y36047620D01*
X4309523Y35047620D02*
X3738095Y35047620D01*
X4023809Y35047620D02*
X4023809Y36047620D01*
X3928571Y35904762D01*
X3833333Y35809524D01*
X3738095Y35761905D01*
X1857142Y58047620D02*
X2047619Y58047620D01*
X2142857Y58000000D01*
X2238095Y57904762D01*
X2285714Y57714286D01*
X2285714Y57380953D01*
X2238095Y57190477D01*
X2142857Y57095239D01*
X2047619Y57047620D01*
X1857142Y57047620D01*
X1761904Y57095239D01*
X1666666Y57190477D01*
X1619047Y57380953D01*
X1619047Y57714286D01*
X1666666Y57904762D01*
X1761904Y58000000D01*
X1857142Y58047620D01*
X2666666Y57095239D02*
X2809523Y57047620D01*
X3047619Y57047620D01*
X3142857Y57095239D01*
X3190476Y57142858D01*
X3238095Y57238096D01*
X3238095Y57333334D01*
X3190476Y57428572D01*
X3142857Y57476191D01*
X3047619Y57523810D01*
X2857142Y57571429D01*
X2761904Y57619048D01*
X2714285Y57666667D01*
X2666666Y57761905D01*
X2666666Y57857143D01*
X2714285Y57952381D01*
X2761904Y58000000D01*
X2857142Y58047620D01*
X3095238Y58047620D01*
X3238095Y58000000D01*
X4142857Y57047620D02*
X3666666Y57047620D01*
X3666666Y58047620D01*
X4904761Y57714286D02*
X4904761Y57047620D01*
X4666666Y58095239D02*
X4428571Y57380953D01*
X5047619Y57380953D01*
X5619047Y58047620D02*
X5714285Y58047620D01*
X5809523Y58000000D01*
X5857142Y57952381D01*
X5904761Y57857143D01*
X5952380Y57666667D01*
X5952380Y57428572D01*
X5904761Y57238096D01*
X5857142Y57142858D01*
X5809523Y57095239D01*
X5714285Y57047620D01*
X5619047Y57047620D01*
X5523809Y57095239D01*
X5476190Y57142858D01*
X5428571Y57238096D01*
X5380952Y57428572D01*
X5380952Y57666667D01*
X5428571Y57857143D01*
X5476190Y57952381D01*
X5523809Y58000000D01*
X5619047Y58047620D01*
X6857142Y58047620D02*
X6380952Y58047620D01*
X6333333Y57571429D01*
X6380952Y57619048D01*
X6476190Y57666667D01*
X6714285Y57666667D01*
X6809523Y57619048D01*
X6857142Y57571429D01*
X6904761Y57476191D01*
X6904761Y57238096D01*
X6857142Y57142858D01*
X6809523Y57095239D01*
X6714285Y57047620D01*
X6476190Y57047620D01*
X6380952Y57095239D01*
X6333333Y57142858D01*
X7761904Y58047620D02*
X7571428Y58047620D01*
X7476190Y58000000D01*
X7428571Y57952381D01*
X7333333Y57809524D01*
X7285714Y57619048D01*
X7285714Y57238096D01*
X7333333Y57142858D01*
X7380952Y57095239D01*
X7476190Y57047620D01*
X7666666Y57047620D01*
X7761904Y57095239D01*
X7809523Y57142858D01*
X7857142Y57238096D01*
X7857142Y57476191D01*
X7809523Y57571429D01*
X7761904Y57619048D01*
X7666666Y57666667D01*
X7476190Y57666667D01*
X7380952Y57619048D01*
X7333333Y57571429D01*
X7285714Y57476191D01*
X8238095Y57952381D02*
X8285714Y58000000D01*
X8380952Y58047620D01*
X8619047Y58047620D01*
X8714285Y58000000D01*
X8761904Y57952381D01*
X8809523Y57857143D01*
X8809523Y57761905D01*
X8761904Y57619048D01*
X8190476Y57047620D01*
X8809523Y57047620D01*
X9238095Y57428572D02*
X10000000Y57428572D01*
X10476190Y57047620D02*
X10476190Y58047620D01*
X11523809Y57047620D02*
X11190476Y57523810D01*
X10952380Y57047620D02*
X10952380Y58047620D01*
X11333333Y58047620D01*
X11428571Y58000000D01*
X11476190Y57952381D01*
X11523809Y57857143D01*
X11523809Y57714286D01*
X11476190Y57619048D01*
X11428571Y57571429D01*
X11333333Y57523810D01*
X10952380Y57523810D01*
X11904761Y57333334D02*
X12380952Y57333334D01*
X11809523Y57047620D02*
X12142857Y58047620D01*
X12476190Y57047620D01*
X53738095Y36047620D02*
X53738095Y35238096D01*
X53785714Y35142858D01*
X53833333Y35095239D01*
X53928571Y35047620D01*
X54119047Y35047620D01*
X54214285Y35095239D01*
X54261904Y35142858D01*
X54309523Y35238096D01*
X54309523Y36047620D01*
X54738095Y35952381D02*
X54785714Y36000000D01*
X54880952Y36047620D01*
X55119047Y36047620D01*
X55214285Y36000000D01*
X55261904Y35952381D01*
X55309523Y35857143D01*
X55309523Y35761905D01*
X55261904Y35619048D01*
X54690476Y35047620D01*
X55309523Y35047620D01*
X67690476Y57547620D02*
X67880952Y57547620D01*
X67976190Y57500000D01*
X68071428Y57404762D01*
X68119047Y57214286D01*
X68119047Y56880953D01*
X68071428Y56690477D01*
X67976190Y56595239D01*
X67880952Y56547620D01*
X67690476Y56547620D01*
X67595238Y56595239D01*
X67500000Y56690477D01*
X67452380Y56880953D01*
X67452380Y57214286D01*
X67500000Y57404762D01*
X67595238Y57500000D01*
X67690476Y57547620D01*
X68500000Y56595239D02*
X68642857Y56547620D01*
X68880952Y56547620D01*
X68976190Y56595239D01*
X69023809Y56642858D01*
X69071428Y56738096D01*
X69071428Y56833334D01*
X69023809Y56928572D01*
X68976190Y56976191D01*
X68880952Y57023810D01*
X68690476Y57071429D01*
X68595238Y57119048D01*
X68547619Y57166667D01*
X68500000Y57261905D01*
X68500000Y57357143D01*
X68547619Y57452381D01*
X68595238Y57500000D01*
X68690476Y57547620D01*
X68928571Y57547620D01*
X69071428Y57500000D01*
X69976190Y56547620D02*
X69500000Y56547620D01*
X69500000Y57547620D01*
X70738095Y57214286D02*
X70738095Y56547620D01*
X70500000Y57595239D02*
X70261904Y56880953D01*
X70880952Y56880953D01*
X71452380Y57547620D02*
X71547619Y57547620D01*
X71642857Y57500000D01*
X71690476Y57452381D01*
X71738095Y57357143D01*
X71785714Y57166667D01*
X71785714Y56928572D01*
X71738095Y56738096D01*
X71690476Y56642858D01*
X71642857Y56595239D01*
X71547619Y56547620D01*
X71452380Y56547620D01*
X71357142Y56595239D01*
X71309523Y56642858D01*
X71261904Y56738096D01*
X71214285Y56928572D01*
X71214285Y57166667D01*
X71261904Y57357143D01*
X71309523Y57452381D01*
X71357142Y57500000D01*
X71452380Y57547620D01*
X72690476Y57547620D02*
X72214285Y57547620D01*
X72166666Y57071429D01*
X72214285Y57119048D01*
X72309523Y57166667D01*
X72547619Y57166667D01*
X72642857Y57119048D01*
X72690476Y57071429D01*
X72738095Y56976191D01*
X72738095Y56738096D01*
X72690476Y56642858D01*
X72642857Y56595239D01*
X72547619Y56547620D01*
X72309523Y56547620D01*
X72214285Y56595239D01*
X72166666Y56642858D01*
X73595238Y57547620D02*
X73404761Y57547620D01*
X73309523Y57500000D01*
X73261904Y57452381D01*
X73166666Y57309524D01*
X73119047Y57119048D01*
X73119047Y56738096D01*
X73166666Y56642858D01*
X73214285Y56595239D01*
X73309523Y56547620D01*
X73500000Y56547620D01*
X73595238Y56595239D01*
X73642857Y56642858D01*
X73690476Y56738096D01*
X73690476Y56976191D01*
X73642857Y57071429D01*
X73595238Y57119048D01*
X73500000Y57166667D01*
X73309523Y57166667D01*
X73214285Y57119048D01*
X73166666Y57071429D01*
X73119047Y56976191D01*
X74071428Y57452381D02*
X74119047Y57500000D01*
X74214285Y57547620D01*
X74452380Y57547620D01*
X74547619Y57500000D01*
X74595238Y57452381D01*
X74642857Y57357143D01*
X74642857Y57261905D01*
X74595238Y57119048D01*
X74023809Y56547620D01*
X74642857Y56547620D01*
X75071428Y56928572D02*
X75833333Y56928572D01*
X76785714Y56547620D02*
X76309523Y56547620D01*
X76309523Y57547620D01*
X77690476Y56547620D02*
X77357142Y57023810D01*
X77119047Y56547620D02*
X77119047Y57547620D01*
X77500000Y57547620D01*
X77595238Y57500000D01*
X77642857Y57452381D01*
X77690476Y57357143D01*
X77690476Y57214286D01*
X77642857Y57119048D01*
X77595238Y57071429D01*
X77500000Y57023810D01*
X77119047Y57023810D01*
X78071428Y56833334D02*
X78547619Y56833334D01*
X77976190Y56547620D02*
X78309523Y57547620D01*
X78642857Y56547620D01*
X29238095Y17547620D02*
X29238095Y16738096D01*
X29285714Y16642858D01*
X29333333Y16595239D01*
X29428571Y16547620D01*
X29619047Y16547620D01*
X29714285Y16595239D01*
X29761904Y16642858D01*
X29809523Y16738096D01*
X29809523Y17547620D01*
X30190476Y17547620D02*
X30809523Y17547620D01*
X30476190Y17166667D01*
X30619047Y17166667D01*
X30714285Y17119048D01*
X30761904Y17071429D01*
X30809523Y16976191D01*
X30809523Y16738096D01*
X30761904Y16642858D01*
X30714285Y16595239D01*
X30619047Y16547620D01*
X30333333Y16547620D01*
X30238095Y16595239D01*
X30190476Y16642858D01*
X35124285Y16547620D02*
X35124285Y17547620D01*
X35505238Y17547620D01*
X35600476Y17500000D01*
X35648095Y17452381D01*
X35695714Y17357143D01*
X35695714Y17214286D01*
X35648095Y17119048D01*
X35600476Y17071429D01*
X35505238Y17023810D01*
X35124285Y17023810D01*
X36124285Y16547620D02*
X36124285Y17547620D01*
X37171904Y16642858D02*
X37124285Y16595239D01*
X36981428Y16547620D01*
X36886190Y16547620D01*
X36743333Y16595239D01*
X36648095Y16690477D01*
X36600476Y16785715D01*
X36552857Y16976191D01*
X36552857Y17119048D01*
X36600476Y17309524D01*
X36648095Y17404762D01*
X36743333Y17500000D01*
X36886190Y17547620D01*
X36981428Y17547620D01*
X37124285Y17500000D01*
X37171904Y17452381D01*
X37505238Y17547620D02*
X38124285Y17547620D01*
X37790952Y17166667D01*
X37933809Y17166667D01*
X38029047Y17119048D01*
X38076666Y17071429D01*
X38124285Y16976191D01*
X38124285Y16738096D01*
X38076666Y16642858D01*
X38029047Y16595239D01*
X37933809Y16547620D01*
X37648095Y16547620D01*
X37552857Y16595239D01*
X37505238Y16642858D01*
X38505238Y17452381D02*
X38552857Y17500000D01*
X38648095Y17547620D01*
X38886190Y17547620D01*
X38981428Y17500000D01*
X39029047Y17452381D01*
X39076666Y17357143D01*
X39076666Y17261905D01*
X39029047Y17119048D01*
X38457619Y16547620D01*
X39076666Y16547620D01*
X39505238Y16547620D02*
X39505238Y17547620D01*
X39838571Y16833334D01*
X40171904Y17547620D01*
X40171904Y16547620D01*
X40552857Y17547620D02*
X41219523Y16547620D01*
X41219523Y17547620D02*
X40552857Y16547620D01*
X42124285Y16547620D02*
X41552857Y16547620D01*
X41838571Y16547620D02*
X41838571Y17547620D01*
X41743333Y17404762D01*
X41648095Y17309524D01*
X41552857Y17261905D01*
X43029047Y17547620D02*
X42552857Y17547620D01*
X42505238Y17071429D01*
X42552857Y17119048D01*
X42648095Y17166667D01*
X42886190Y17166667D01*
X42981428Y17119048D01*
X43029047Y17071429D01*
X43076666Y16976191D01*
X43076666Y16738096D01*
X43029047Y16642858D01*
X42981428Y16595239D01*
X42886190Y16547620D01*
X42648095Y16547620D01*
X42552857Y16595239D01*
X42505238Y16642858D01*
X43695714Y17547620D02*
X43790952Y17547620D01*
X43886190Y17500000D01*
X43933809Y17452381D01*
X43981428Y17357143D01*
X44029047Y17166667D01*
X44029047Y16928572D01*
X43981428Y16738096D01*
X43933809Y16642858D01*
X43886190Y16595239D01*
X43790952Y16547620D01*
X43695714Y16547620D01*
X43600476Y16595239D01*
X43552857Y16642858D01*
X43505238Y16738096D01*
X43457619Y16928572D01*
X43457619Y17166667D01*
X43505238Y17357143D01*
X43552857Y17452381D01*
X43600476Y17500000D01*
X43695714Y17547620D01*
X44790952Y17071429D02*
X44457619Y17071429D01*
X44457619Y16547620D02*
X44457619Y17547620D01*
X44933809Y17547620D01*
X45838571Y16547620D02*
X45267142Y16547620D01*
X45552857Y16547620D02*
X45552857Y17547620D01*
X45457619Y17404762D01*
X45362380Y17309524D01*
X45267142Y17261905D01*
X46219523Y17452381D02*
X46267142Y17500000D01*
X46362380Y17547620D01*
X46600476Y17547620D01*
X46695714Y17500000D01*
X46743333Y17452381D01*
X46790952Y17357143D01*
X46790952Y17261905D01*
X46743333Y17119048D01*
X46171904Y16547620D01*
X46790952Y16547620D01*
X47362380Y17119048D02*
X47267142Y17166667D01*
X47219523Y17214286D01*
X47171904Y17309524D01*
X47171904Y17357143D01*
X47219523Y17452381D01*
X47267142Y17500000D01*
X47362380Y17547620D01*
X47552857Y17547620D01*
X47648095Y17500000D01*
X47695714Y17452381D01*
X47743333Y17357143D01*
X47743333Y17309524D01*
X47695714Y17214286D01*
X47648095Y17166667D01*
X47552857Y17119048D01*
X47362380Y17119048D01*
X47267142Y17071429D01*
X47219523Y17023810D01*
X47171904Y16928572D01*
X47171904Y16738096D01*
X47219523Y16642858D01*
X47267142Y16595239D01*
X47362380Y16547620D01*
X47552857Y16547620D01*
X47648095Y16595239D01*
X47695714Y16642858D01*
X47743333Y16738096D01*
X47743333Y16928572D01*
X47695714Y17023810D01*
X47648095Y17071429D01*
X47552857Y17119048D01*
X48505238Y17071429D02*
X48648095Y17023810D01*
X48695714Y16976191D01*
X48743333Y16880953D01*
X48743333Y16738096D01*
X48695714Y16642858D01*
X48648095Y16595239D01*
X48552857Y16547620D01*
X48171904Y16547620D01*
X48171904Y17547620D01*
X48505238Y17547620D01*
X48600476Y17500000D01*
X48648095Y17452381D01*
X48695714Y17357143D01*
X48695714Y17261905D01*
X48648095Y17166667D01*
X48600476Y17119048D01*
X48505238Y17071429D01*
X48171904Y17071429D01*
X57238095Y58047620D02*
X57238095Y57238096D01*
X57285714Y57142858D01*
X57333333Y57095239D01*
X57428571Y57047620D01*
X57619047Y57047620D01*
X57714285Y57095239D01*
X57761904Y57142858D01*
X57809523Y57238096D01*
X57809523Y58047620D01*
X58714285Y57714286D02*
X58714285Y57047620D01*
X58476190Y58095239D02*
X58238095Y57380953D01*
X58857142Y57380953D01*
X55190476Y67547620D02*
X55857142Y67547620D01*
X55428571Y66547620D01*
X56142857Y67547620D02*
X56761904Y67547620D01*
X56428571Y67166667D01*
X56571428Y67166667D01*
X56666666Y67119048D01*
X56714285Y67071429D01*
X56761904Y66976191D01*
X56761904Y66738096D01*
X56714285Y66642858D01*
X56666666Y66595239D01*
X56571428Y66547620D01*
X56285714Y66547620D01*
X56190476Y66595239D01*
X56142857Y66642858D01*
X57095238Y67547620D02*
X57714285Y67547620D01*
X57380952Y67166667D01*
X57523809Y67166667D01*
X57619047Y67119048D01*
X57666666Y67071429D01*
X57714285Y66976191D01*
X57714285Y66738096D01*
X57666666Y66642858D01*
X57619047Y66595239D01*
X57523809Y66547620D01*
X57238095Y66547620D01*
X57142857Y66595239D01*
X57095238Y66642858D01*
X58047619Y67547620D02*
X58666666Y67547620D01*
X58333333Y67166667D01*
X58476190Y67166667D01*
X58571428Y67119048D01*
X58619047Y67071429D01*
X58666666Y66976191D01*
X58666666Y66738096D01*
X58619047Y66642858D01*
X58571428Y66595239D01*
X58476190Y66547620D01*
X58190476Y66547620D01*
X58095238Y66595239D01*
X58047619Y66642858D01*
X59095238Y66928572D02*
X59857142Y66928572D01*
X60285714Y66833334D02*
X60761904Y66833334D01*
X60190476Y66547620D02*
X60523809Y67547620D01*
X60857142Y66547620D01*
M02*
