G04 #@! TF.GenerationSoftware,KiCad,Pcbnew,(5.1.9)-1*
G04 #@! TF.CreationDate,2022-05-03T11:16:20+09:00*
G04 #@! TF.ProjectId,ZK80,5a4b3830-2e6b-4696-9361-645f70636258,rev?*
G04 #@! TF.SameCoordinates,PX2625a00PY9896800*
G04 #@! TF.FileFunction,Copper,L1,Top*
G04 #@! TF.FilePolarity,Positive*
%FSLAX46Y46*%
G04 Gerber Fmt 4.6, Leading zero omitted, Abs format (unit mm)*
G04 Created by KiCad (PCBNEW (5.1.9)-1) date 2022-05-03 11:16:20*
%MOMM*%
%LPD*%
G01*
G04 APERTURE LIST*
G04 #@! TA.AperFunction,ComponentPad*
%ADD10R,1.600000X1.600000*%
G04 #@! TD*
G04 #@! TA.AperFunction,ComponentPad*
%ADD11C,1.600000*%
G04 #@! TD*
G04 #@! TA.AperFunction,ComponentPad*
%ADD12R,1.700000X1.700000*%
G04 #@! TD*
G04 #@! TA.AperFunction,ComponentPad*
%ADD13O,1.700000X1.700000*%
G04 #@! TD*
G04 #@! TA.AperFunction,ComponentPad*
%ADD14C,1.524000*%
G04 #@! TD*
G04 #@! TA.AperFunction,ComponentPad*
%ADD15O,1.000000X1.800000*%
G04 #@! TD*
G04 #@! TA.AperFunction,SMDPad,CuDef*
%ADD16R,0.700000X3.000000*%
G04 #@! TD*
G04 #@! TA.AperFunction,ComponentPad*
%ADD17O,1.600000X1.200000*%
G04 #@! TD*
G04 #@! TA.AperFunction,ComponentPad*
%ADD18O,1.200000X1.200000*%
G04 #@! TD*
G04 #@! TA.AperFunction,ComponentPad*
%ADD19O,1.600000X1.600000*%
G04 #@! TD*
G04 #@! TA.AperFunction,ComponentPad*
%ADD20C,1.500000*%
G04 #@! TD*
G04 #@! TA.AperFunction,ComponentPad*
%ADD21R,1.500000X1.500000*%
G04 #@! TD*
G04 #@! TA.AperFunction,ComponentPad*
%ADD22R,1.600000X2.400000*%
G04 #@! TD*
G04 #@! TA.AperFunction,ComponentPad*
%ADD23O,1.600000X2.400000*%
G04 #@! TD*
G04 #@! TA.AperFunction,ViaPad*
%ADD24C,0.500000*%
G04 #@! TD*
G04 #@! TA.AperFunction,Conductor*
%ADD25C,0.400000*%
G04 #@! TD*
G04 #@! TA.AperFunction,Conductor*
%ADD26C,0.200000*%
G04 #@! TD*
G04 #@! TA.AperFunction,Conductor*
%ADD27C,0.254000*%
G04 #@! TD*
G04 #@! TA.AperFunction,Conductor*
%ADD28C,0.100000*%
G04 #@! TD*
G04 APERTURE END LIST*
D10*
X24765000Y59055000D03*
D11*
X24765000Y61555000D03*
X53340000Y15240000D03*
X55840000Y15240000D03*
X27900000Y33020000D03*
X25400000Y33020000D03*
X45720000Y33020000D03*
X48220000Y33020000D03*
X64500000Y61635000D03*
X64500000Y64135000D03*
X52000000Y61500000D03*
X52000000Y64000000D03*
D12*
X33274000Y65405000D03*
D13*
X35814000Y65405000D03*
X38354000Y65405000D03*
X40894000Y65405000D03*
X43434000Y65405000D03*
X45974000Y65405000D03*
D14*
X82550000Y33655000D03*
X82550000Y31115000D03*
X82550000Y28575000D03*
X82550000Y26035000D03*
X82550000Y23495000D03*
X82550000Y20955000D03*
X82550000Y18415000D03*
X82550000Y15875000D03*
X82550000Y13335000D03*
X82550000Y10795000D03*
X95250000Y31115000D03*
X97790000Y31115000D03*
X95250000Y13335000D03*
X97790000Y13335000D03*
D15*
X82750000Y66000000D03*
X90150000Y66000000D03*
D16*
X85300000Y60500000D03*
X87700000Y60500000D03*
D12*
X14224000Y2540000D03*
D13*
X14224000Y5080000D03*
X16764000Y2540000D03*
X16764000Y5080000D03*
X19304000Y2540000D03*
X19304000Y5080000D03*
X21844000Y2540000D03*
X21844000Y5080000D03*
X24384000Y2540000D03*
X24384000Y5080000D03*
X26924000Y2540000D03*
X26924000Y5080000D03*
X29464000Y2540000D03*
X29464000Y5080000D03*
D17*
X10160000Y29210000D03*
D18*
X5080000Y29210000D03*
D11*
X20955000Y66040000D03*
D19*
X28575000Y66040000D03*
X65405000Y33655000D03*
D11*
X65405000Y26035000D03*
X69215000Y26035000D03*
D19*
X69215000Y33655000D03*
X73025000Y33655000D03*
D11*
X73025000Y26035000D03*
X76835000Y26035000D03*
D19*
X76835000Y33655000D03*
D11*
X12700000Y18415000D03*
D19*
X5080000Y18415000D03*
X37465000Y3810000D03*
D11*
X37465000Y11430000D03*
X41275000Y11430000D03*
D19*
X41275000Y3810000D03*
X45085000Y3810000D03*
D11*
X45085000Y11430000D03*
D13*
X15875000Y63754000D03*
X13335000Y63754000D03*
D12*
X10795000Y63754000D03*
X76500000Y63000000D03*
D13*
X73960000Y63000000D03*
X71420000Y63000000D03*
D20*
X17780000Y53975000D03*
X20320000Y53975000D03*
X22860000Y53975000D03*
X25400000Y53975000D03*
X27940000Y53975000D03*
X30480000Y53975000D03*
X30480000Y38735000D03*
X27940000Y38735000D03*
X25400000Y38735000D03*
X22860000Y38735000D03*
X20320000Y38735000D03*
D21*
X17780000Y38735000D03*
X69215000Y38735000D03*
D20*
X71755000Y38735000D03*
X74295000Y38735000D03*
X76835000Y38735000D03*
X79375000Y38735000D03*
X81915000Y38735000D03*
X81915000Y53975000D03*
X79375000Y53975000D03*
X76835000Y53975000D03*
X74295000Y53975000D03*
X71755000Y53975000D03*
X69215000Y53975000D03*
D22*
X25400000Y20320000D03*
D23*
X58420000Y27940000D03*
X27940000Y20320000D03*
X55880000Y27940000D03*
X30480000Y20320000D03*
X53340000Y27940000D03*
X33020000Y20320000D03*
X50800000Y27940000D03*
X35560000Y20320000D03*
X48260000Y27940000D03*
X38100000Y20320000D03*
X45720000Y27940000D03*
X40640000Y20320000D03*
X43180000Y27940000D03*
X43180000Y20320000D03*
X40640000Y27940000D03*
X45720000Y20320000D03*
X38100000Y27940000D03*
X48260000Y20320000D03*
X35560000Y27940000D03*
X50800000Y20320000D03*
X33020000Y27940000D03*
X53340000Y20320000D03*
X30480000Y27940000D03*
X55880000Y20320000D03*
X27940000Y27940000D03*
X58420000Y20320000D03*
X25400000Y27940000D03*
D20*
X58000000Y62460000D03*
X58000000Y59920000D03*
D21*
X58000000Y65000000D03*
D24*
X29407200Y7926200D03*
X22930500Y60886300D03*
X42899000Y30654400D03*
X40226000Y63319100D03*
X45114000Y39841600D03*
X18945100Y6903200D03*
X34973700Y10406400D03*
X40514600Y62158800D03*
X35338000Y649500D03*
X39945500Y12145100D03*
X42667900Y13242200D03*
X35242900Y24965900D03*
X35314700Y51551900D03*
X11547400Y37420900D03*
X70304200Y34777600D03*
X17537300Y16298200D03*
X11545100Y35667800D03*
X28144500Y10284600D03*
X35970400Y23114300D03*
X45795100Y40516900D03*
X35559900Y22282700D03*
X44453000Y54241400D03*
X36109800Y10406400D03*
X37782000Y13327100D03*
X47097300Y34486000D03*
X18230000Y30158800D03*
D25*
X41275000Y11430000D02*
X45085000Y11430000D01*
X37465000Y11430000D02*
X41275000Y11430000D01*
X55840000Y15240000D02*
X71755000Y15240000D01*
X71755000Y15240000D02*
X82550000Y26035000D01*
X55840000Y15240000D02*
X55840000Y20280000D01*
X55840000Y20280000D02*
X55880000Y20320000D01*
X45085000Y11430000D02*
X52030000Y11430000D01*
X52030000Y11430000D02*
X55840000Y15240000D01*
X25400000Y27940000D02*
X24200000Y26740000D01*
X24200000Y26740000D02*
X24200000Y18800000D01*
X24200000Y18800000D02*
X31570000Y11430000D01*
X31570000Y11430000D02*
X37465000Y11430000D01*
X25400000Y33020000D02*
X25400000Y27940000D01*
X24765000Y59055000D02*
X15240000Y59055000D01*
X15240000Y59055000D02*
X12700000Y56515000D01*
X12700000Y56515000D02*
X12700000Y35560000D01*
X12700000Y35560000D02*
X15240000Y33020000D01*
X15240000Y33020000D02*
X25400000Y33020000D01*
X28575000Y66040000D02*
X28575000Y62865000D01*
X28575000Y62865000D02*
X24765000Y59055000D01*
X35814000Y65405000D02*
X34564000Y66655000D01*
X34564000Y66655000D02*
X29190000Y66655000D01*
X29190000Y66655000D02*
X28575000Y66040000D01*
X52000000Y61500000D02*
X39719000Y61500000D01*
X39719000Y61500000D02*
X35814000Y65405000D01*
X58000000Y59920000D02*
X53580000Y59920000D01*
X53580000Y59920000D02*
X52000000Y61500000D01*
X85300000Y60500000D02*
X65635000Y60500000D01*
X65635000Y60500000D02*
X64500000Y61635000D01*
X64750000Y61750000D02*
X64500000Y61500000D01*
X64500000Y64135000D02*
X59675000Y64135000D01*
X59675000Y64135000D02*
X58000000Y62460000D01*
X73960000Y63000000D02*
X72710000Y64250000D01*
X72710000Y64250000D02*
X64615000Y64250000D01*
X64615000Y64250000D02*
X64500000Y64135000D01*
D26*
X29407200Y7926200D02*
X29464000Y7869400D01*
X29464000Y7869400D02*
X29464000Y5080000D01*
X32123700Y65405000D02*
X32123700Y64326600D01*
X32123700Y64326600D02*
X25751800Y57954700D01*
X25751800Y57954700D02*
X20256500Y57954700D01*
X20256500Y57954700D02*
X16267900Y53966100D01*
X16267900Y53966100D02*
X16267900Y37647000D01*
X16267900Y37647000D02*
X19384000Y34530900D01*
X19384000Y34530900D02*
X25475200Y34530900D01*
X25475200Y34530900D02*
X26500400Y33505700D01*
X26500400Y33505700D02*
X26500400Y22920700D01*
X26500400Y22920700D02*
X25400000Y21820300D01*
X20955000Y66040000D02*
X22930500Y64064500D01*
X22930500Y64064500D02*
X22930500Y60886300D01*
X33274000Y65405000D02*
X32123700Y65405000D01*
X25400000Y20320000D02*
X25400000Y21820300D01*
X33020000Y20320000D02*
X33020000Y21820300D01*
X33020000Y21820300D02*
X34868100Y23668400D01*
X34868100Y23668400D02*
X35789100Y23668400D01*
X35789100Y23668400D02*
X39370000Y27249300D01*
X39370000Y27249300D02*
X39370000Y28661600D01*
X39370000Y28661600D02*
X41362800Y30654400D01*
X41362800Y30654400D02*
X42899000Y30654400D01*
X45114000Y39841600D02*
X23966600Y39841600D01*
X23966600Y39841600D02*
X22860000Y38735000D01*
X74295000Y38735000D02*
X73188400Y39841600D01*
X73188400Y39841600D02*
X45114000Y39841600D01*
X40226000Y63319100D02*
X40894000Y63987100D01*
X40894000Y63987100D02*
X40894000Y65405000D01*
X35560000Y20320000D02*
X35560000Y18819700D01*
X35560000Y18819700D02*
X32546000Y18819700D01*
X32546000Y18819700D02*
X31750000Y19615700D01*
X31750000Y19615700D02*
X31750000Y30737000D01*
X31750000Y30737000D02*
X26984600Y35502400D01*
X26984600Y35502400D02*
X18978800Y35502400D01*
X18978800Y35502400D02*
X16729600Y37751600D01*
X16729600Y37751600D02*
X16729600Y50384600D01*
X16729600Y50384600D02*
X20320000Y53975000D01*
X34973700Y10406400D02*
X34545200Y10834900D01*
X34545200Y10834900D02*
X22876800Y10834900D01*
X22876800Y10834900D02*
X18945100Y6903200D01*
X43434000Y65405000D02*
X43434000Y64254700D01*
X40514600Y62158800D02*
X42610500Y64254700D01*
X42610500Y64254700D02*
X43434000Y64254700D01*
X27940000Y20320000D02*
X27940000Y18819700D01*
X27940000Y18819700D02*
X28343400Y18416300D01*
X28343400Y18416300D02*
X35748800Y18416300D01*
X35748800Y18416300D02*
X36688400Y19355900D01*
X36688400Y19355900D02*
X36688400Y20882100D01*
X36688400Y20882100D02*
X39779700Y23973400D01*
X39779700Y23973400D02*
X41237200Y23973400D01*
X41237200Y23973400D02*
X44450000Y27186200D01*
X44450000Y27186200D02*
X44450000Y28679400D01*
X44450000Y28679400D02*
X46885600Y31115000D01*
X46885600Y31115000D02*
X82550000Y31115000D01*
X53340000Y27940000D02*
X53340000Y29440300D01*
X53340000Y29440300D02*
X81684700Y29440300D01*
X81684700Y29440300D02*
X82550000Y28575000D01*
X30480000Y27940000D02*
X30480000Y26334000D01*
X30480000Y26334000D02*
X26838200Y22692200D01*
X26838200Y22692200D02*
X26838200Y19262300D01*
X26838200Y19262300D02*
X28096000Y18004500D01*
X28096000Y18004500D02*
X37810800Y18004500D01*
X37810800Y18004500D02*
X39370000Y19563700D01*
X39370000Y19563700D02*
X39370000Y21032700D01*
X39370000Y21032700D02*
X43502300Y25165000D01*
X43502300Y25165000D02*
X44991100Y25165000D01*
X44991100Y25165000D02*
X46990000Y27163900D01*
X46990000Y27163900D02*
X46990000Y28664900D01*
X46990000Y28664900D02*
X48170100Y29845000D01*
X48170100Y29845000D02*
X82825000Y29845000D01*
X82825000Y29845000D02*
X83651800Y29018200D01*
X83651800Y29018200D02*
X83651800Y24596800D01*
X83651800Y24596800D02*
X82550000Y23495000D01*
D25*
X87700000Y60500000D02*
X87700000Y61650000D01*
X87700000Y61650000D02*
X86350000Y63000000D01*
X86350000Y63000000D02*
X76500000Y63000000D01*
D26*
X14224000Y2540000D02*
X15374300Y2540000D01*
X35338000Y649500D02*
X16977200Y649500D01*
X16977200Y649500D02*
X15374300Y2252400D01*
X15374300Y2252400D02*
X15374300Y2540000D01*
X45720000Y20320000D02*
X45720000Y18819700D01*
X45720000Y18819700D02*
X39945500Y13045200D01*
X39945500Y13045200D02*
X39945500Y12145100D01*
X14224000Y5080000D02*
X15374300Y5080000D01*
X41275000Y3810000D02*
X40174700Y3810000D01*
X40174700Y3810000D02*
X39059000Y2694300D01*
X39059000Y2694300D02*
X31961900Y2694300D01*
X31961900Y2694300D02*
X30787700Y3868500D01*
X30787700Y3868500D02*
X16347400Y3868500D01*
X16347400Y3868500D02*
X15374300Y4841600D01*
X15374300Y4841600D02*
X15374300Y5080000D01*
X48260000Y20320000D02*
X48260000Y18819700D01*
X48260000Y18819700D02*
X48245400Y18819700D01*
X48245400Y18819700D02*
X42667900Y13242200D01*
X16764000Y2540000D02*
X17914300Y2540000D01*
X45085000Y3810000D02*
X43984700Y3810000D01*
X43984700Y3810000D02*
X41563600Y1388900D01*
X41563600Y1388900D02*
X18827000Y1388900D01*
X18827000Y1388900D02*
X17914300Y2301600D01*
X17914300Y2301600D02*
X17914300Y2540000D01*
X33020000Y27940000D02*
X33020000Y26439700D01*
X33020000Y26439700D02*
X33769100Y26439700D01*
X33769100Y26439700D02*
X35242900Y24965900D01*
X35314700Y51551900D02*
X79491900Y51551900D01*
X79491900Y51551900D02*
X81915000Y53975000D01*
X76835000Y38735000D02*
X74472900Y36372900D01*
X74472900Y36372900D02*
X55074100Y36372900D01*
X55074100Y36372900D02*
X50620900Y31919700D01*
X50620900Y31919700D02*
X38039400Y31919700D01*
X38039400Y31919700D02*
X35560000Y29440300D01*
X35560000Y27940000D02*
X35560000Y29440300D01*
X35560000Y29440300D02*
X34694700Y29440300D01*
X34694700Y29440300D02*
X25400000Y38735000D01*
X19304000Y5080000D02*
X19304000Y6230300D01*
X11547400Y37420900D02*
X9038100Y34911600D01*
X9038100Y34911600D02*
X9038100Y16019500D01*
X9038100Y16019500D02*
X18827300Y6230300D01*
X18827300Y6230300D02*
X19304000Y6230300D01*
X38100000Y27940000D02*
X38100000Y29440300D01*
X20320000Y38735000D02*
X22297800Y36757200D01*
X22297800Y36757200D02*
X26296100Y36757200D01*
X26296100Y36757200D02*
X34459600Y28593700D01*
X34459600Y28593700D02*
X34459600Y27044700D01*
X34459600Y27044700D02*
X35099600Y26404700D01*
X35099600Y26404700D02*
X36564700Y26404700D01*
X36564700Y26404700D02*
X38100000Y27940000D01*
X38100000Y29440300D02*
X40175100Y31515400D01*
X40175100Y31515400D02*
X61465200Y31515400D01*
X61465200Y31515400D02*
X64727400Y34777600D01*
X64727400Y34777600D02*
X70304200Y34777600D01*
X11545100Y35667800D02*
X11545100Y22290400D01*
X11545100Y22290400D02*
X17537300Y16298200D01*
X40640000Y26439700D02*
X39295800Y26439700D01*
X39295800Y26439700D02*
X35970400Y23114300D01*
X40640000Y27940000D02*
X40640000Y26439700D01*
X21844000Y5080000D02*
X22994300Y5080000D01*
X28144500Y10284600D02*
X27933300Y10284600D01*
X27933300Y10284600D02*
X22994300Y5345600D01*
X22994300Y5345600D02*
X22994300Y5080000D01*
X17780000Y38735000D02*
X18830300Y38735000D01*
X45795100Y40516900D02*
X20612200Y40516900D01*
X20612200Y40516900D02*
X18830300Y38735000D01*
X44453000Y54241400D02*
X45238600Y55027000D01*
X45238600Y55027000D02*
X73243000Y55027000D01*
X73243000Y55027000D02*
X74295000Y53975000D01*
X43180000Y27940000D02*
X37522700Y22282700D01*
X37522700Y22282700D02*
X35559900Y22282700D01*
X50800000Y27940000D02*
X50800000Y26439700D01*
X24384000Y5080000D02*
X25534300Y5080000D01*
X36109800Y10406400D02*
X34420300Y8716900D01*
X34420300Y8716900D02*
X28932800Y8716900D01*
X28932800Y8716900D02*
X25534300Y5318400D01*
X25534300Y5318400D02*
X25534300Y5080000D01*
X50800000Y26439700D02*
X49862300Y26439700D01*
X49862300Y26439700D02*
X44450000Y21027400D01*
X44450000Y21027400D02*
X44450000Y19586800D01*
X44450000Y19586800D02*
X38190300Y13327100D01*
X38190300Y13327100D02*
X37782000Y13327100D01*
X47097300Y34486000D02*
X32189000Y34486000D01*
X32189000Y34486000D02*
X27940000Y38735000D01*
X69215000Y53975000D02*
X68928500Y53688500D01*
X68928500Y53688500D02*
X33563600Y53688500D01*
X33563600Y53688500D02*
X32204600Y55047500D01*
X32204600Y55047500D02*
X18852500Y55047500D01*
X18852500Y55047500D02*
X17780000Y53975000D01*
X50800000Y20320000D02*
X50800000Y21820300D01*
X50800000Y21820300D02*
X55014700Y26035000D01*
X55014700Y26035000D02*
X65405000Y26035000D01*
X58420000Y20320000D02*
X58420000Y21820300D01*
X58420000Y21820300D02*
X65000300Y21820300D01*
X65000300Y21820300D02*
X69215000Y26035000D01*
X25400000Y53975000D02*
X26859400Y52515600D01*
X26859400Y52515600D02*
X79423100Y52515600D01*
X79423100Y52515600D02*
X80449800Y53542300D01*
X80449800Y53542300D02*
X80449800Y54444000D01*
X80449800Y54444000D02*
X79866800Y55027000D01*
X79866800Y55027000D02*
X77887000Y55027000D01*
X77887000Y55027000D02*
X76835000Y53975000D01*
X79375000Y53975000D02*
X78318100Y52918100D01*
X78318100Y52918100D02*
X28996900Y52918100D01*
X28996900Y52918100D02*
X27940000Y53975000D01*
X58420000Y27940000D02*
X58420000Y26439700D01*
X58420000Y26439700D02*
X58875800Y26439700D01*
X58875800Y26439700D02*
X59626000Y27189900D01*
X59626000Y27189900D02*
X71870100Y27189900D01*
X71870100Y27189900D02*
X73025000Y26035000D01*
X79210800Y37368300D02*
X78105000Y38474100D01*
X78105000Y38474100D02*
X78105000Y39036300D01*
X78105000Y39036300D02*
X77347900Y39793400D01*
X77347900Y39793400D02*
X76389800Y39793400D01*
X76389800Y39793400D02*
X75565000Y38968600D01*
X75565000Y38968600D02*
X75565000Y38410100D01*
X75565000Y38410100D02*
X74839600Y37684700D01*
X74839600Y37684700D02*
X31530300Y37684700D01*
X31530300Y37684700D02*
X30480000Y38735000D01*
X81915000Y38735000D02*
X80548300Y37368300D01*
X80548300Y37368300D02*
X79210800Y37368300D01*
X79210800Y37368300D02*
X79210800Y37131100D01*
X79210800Y37131100D02*
X76835000Y34755300D01*
X76835000Y33655000D02*
X76835000Y34755300D01*
X13335000Y63754000D02*
X13335000Y62603700D01*
X18230000Y30158800D02*
X17337400Y30158800D01*
X17337400Y30158800D02*
X12199700Y35296500D01*
X12199700Y35296500D02*
X12199700Y61468400D01*
X12199700Y61468400D02*
X13335000Y62603700D01*
D27*
X99373000Y627000D02*
X36065000Y627000D01*
X36065000Y721103D01*
X36046940Y811900D01*
X41535269Y811900D01*
X41563600Y809110D01*
X41591931Y811900D01*
X41591936Y811900D01*
X41621645Y814826D01*
X41676711Y820249D01*
X41721370Y833797D01*
X41785476Y853243D01*
X41885715Y906821D01*
X41973574Y978926D01*
X41991639Y1000938D01*
X44050460Y3059759D01*
X44093089Y2995960D01*
X44270960Y2818089D01*
X44480114Y2678337D01*
X44712513Y2582074D01*
X44959226Y2533000D01*
X45210774Y2533000D01*
X45457487Y2582074D01*
X45689886Y2678337D01*
X45899040Y2818089D01*
X46076911Y2995960D01*
X46216297Y3204567D01*
X94923000Y3204567D01*
X94923000Y2795433D01*
X95002818Y2394161D01*
X95159386Y2016171D01*
X95386689Y1675989D01*
X95675989Y1386689D01*
X96016171Y1159386D01*
X96394161Y1002818D01*
X96795433Y923000D01*
X97204567Y923000D01*
X97605839Y1002818D01*
X97983829Y1159386D01*
X98324011Y1386689D01*
X98613311Y1675989D01*
X98840614Y2016171D01*
X98997182Y2394161D01*
X99077000Y2795433D01*
X99077000Y3204567D01*
X98997182Y3605839D01*
X98840614Y3983829D01*
X98613311Y4324011D01*
X98324011Y4613311D01*
X97983829Y4840614D01*
X97605839Y4997182D01*
X97204567Y5077000D01*
X96795433Y5077000D01*
X96394161Y4997182D01*
X96016171Y4840614D01*
X95675989Y4613311D01*
X95386689Y4324011D01*
X95159386Y3983829D01*
X95002818Y3605839D01*
X94923000Y3204567D01*
X46216297Y3204567D01*
X46216663Y3205114D01*
X46312926Y3437513D01*
X46362000Y3684226D01*
X46362000Y3935774D01*
X46312926Y4182487D01*
X46216663Y4414886D01*
X46076911Y4624040D01*
X45899040Y4801911D01*
X45689886Y4941663D01*
X45457487Y5037926D01*
X45210774Y5087000D01*
X44959226Y5087000D01*
X44712513Y5037926D01*
X44480114Y4941663D01*
X44270960Y4801911D01*
X44093089Y4624040D01*
X43953337Y4414886D01*
X43941166Y4385503D01*
X43871588Y4378650D01*
X43762824Y4345657D01*
X43662585Y4292079D01*
X43574726Y4219974D01*
X43556661Y4197962D01*
X41324599Y1965900D01*
X30828431Y1965900D01*
X30905481Y2183109D01*
X30784814Y2413000D01*
X29591000Y2413000D01*
X29591000Y2393000D01*
X29337000Y2393000D01*
X29337000Y2413000D01*
X29317000Y2413000D01*
X29317000Y2667000D01*
X29337000Y2667000D01*
X29337000Y2687000D01*
X29591000Y2687000D01*
X29591000Y2667000D01*
X30784814Y2667000D01*
X30905481Y2896891D01*
X30884686Y2955513D01*
X31533861Y2306338D01*
X31551926Y2284326D01*
X31639785Y2212221D01*
X31694251Y2183109D01*
X31740023Y2158643D01*
X31848788Y2125649D01*
X31961900Y2114509D01*
X31990239Y2117300D01*
X39030669Y2117300D01*
X39059000Y2114510D01*
X39087331Y2117300D01*
X39087336Y2117300D01*
X39117045Y2120226D01*
X39172111Y2125649D01*
X39217074Y2139289D01*
X39280876Y2158643D01*
X39381115Y2212221D01*
X39468974Y2284326D01*
X39487039Y2306338D01*
X40240460Y3059759D01*
X40283089Y2995960D01*
X40460960Y2818089D01*
X40670114Y2678337D01*
X40902513Y2582074D01*
X41149226Y2533000D01*
X41400774Y2533000D01*
X41647487Y2582074D01*
X41879886Y2678337D01*
X42089040Y2818089D01*
X42266911Y2995960D01*
X42406663Y3205114D01*
X42502926Y3437513D01*
X42552000Y3684226D01*
X42552000Y3935774D01*
X42502926Y4182487D01*
X42406663Y4414886D01*
X42266911Y4624040D01*
X42089040Y4801911D01*
X41879886Y4941663D01*
X41647487Y5037926D01*
X41400774Y5087000D01*
X41149226Y5087000D01*
X40902513Y5037926D01*
X40670114Y4941663D01*
X40460960Y4801911D01*
X40283089Y4624040D01*
X40143337Y4414886D01*
X40131166Y4385503D01*
X40061588Y4378650D01*
X39952824Y4345657D01*
X39852585Y4292079D01*
X39809190Y4256465D01*
X39786735Y4238037D01*
X39786734Y4238036D01*
X39764726Y4219974D01*
X39746665Y4197967D01*
X38819999Y3271300D01*
X38624078Y3271300D01*
X38692926Y3437513D01*
X38742000Y3684226D01*
X38742000Y3935774D01*
X38692926Y4182487D01*
X38596663Y4414886D01*
X38456911Y4624040D01*
X38279040Y4801911D01*
X38069886Y4941663D01*
X37837487Y5037926D01*
X37590774Y5087000D01*
X37339226Y5087000D01*
X37092513Y5037926D01*
X36860114Y4941663D01*
X36650960Y4801911D01*
X36473089Y4624040D01*
X36333337Y4414886D01*
X36237074Y4182487D01*
X36188000Y3935774D01*
X36188000Y3684226D01*
X36237074Y3437513D01*
X36305922Y3271300D01*
X32200901Y3271300D01*
X31215739Y4256462D01*
X31197674Y4278474D01*
X31109815Y4350579D01*
X31009576Y4404157D01*
X30945470Y4423603D01*
X30900811Y4437151D01*
X30845745Y4442574D01*
X30816036Y4445500D01*
X30816031Y4445500D01*
X30787700Y4448290D01*
X30759369Y4445500D01*
X30636010Y4445500D01*
X30639972Y4451430D01*
X30740004Y4692928D01*
X30791000Y4949302D01*
X30791000Y5210698D01*
X30740004Y5467072D01*
X30639972Y5708570D01*
X30494748Y5925913D01*
X30309913Y6110748D01*
X30092570Y6255972D01*
X30041000Y6277333D01*
X30041000Y7566183D01*
X30051459Y7581836D01*
X30106262Y7714142D01*
X30134200Y7854597D01*
X30134200Y7997803D01*
X30106262Y8138258D01*
X30105582Y8139900D01*
X34391969Y8139900D01*
X34420300Y8137110D01*
X34448631Y8139900D01*
X34448636Y8139900D01*
X34478345Y8142826D01*
X34533411Y8148249D01*
X34578070Y8161797D01*
X34642176Y8181243D01*
X34742415Y8234821D01*
X34830274Y8306926D01*
X34848339Y8328938D01*
X36203121Y9683720D01*
X36321858Y9707338D01*
X36454164Y9762141D01*
X36573236Y9841702D01*
X36674498Y9942964D01*
X36754059Y10062036D01*
X36808862Y10194342D01*
X36833134Y10316365D01*
X36860114Y10298337D01*
X37092513Y10202074D01*
X37339226Y10153000D01*
X37590774Y10153000D01*
X37837487Y10202074D01*
X38069886Y10298337D01*
X38279040Y10438089D01*
X38456911Y10615960D01*
X38548478Y10753000D01*
X40191522Y10753000D01*
X40283089Y10615960D01*
X40460960Y10438089D01*
X40670114Y10298337D01*
X40902513Y10202074D01*
X41149226Y10153000D01*
X41400774Y10153000D01*
X41647487Y10202074D01*
X41879886Y10298337D01*
X42089040Y10438089D01*
X42266911Y10615960D01*
X42358478Y10753000D01*
X44001522Y10753000D01*
X44093089Y10615960D01*
X44270960Y10438089D01*
X44480114Y10298337D01*
X44712513Y10202074D01*
X44959226Y10153000D01*
X45210774Y10153000D01*
X45457487Y10202074D01*
X45689886Y10298337D01*
X45899040Y10438089D01*
X46076911Y10615960D01*
X46168478Y10753000D01*
X51996755Y10753000D01*
X52030000Y10749726D01*
X52063245Y10753000D01*
X52063252Y10753000D01*
X52162715Y10762796D01*
X52290330Y10801508D01*
X52407941Y10864372D01*
X52472105Y10917031D01*
X81311000Y10917031D01*
X81311000Y10672969D01*
X81358614Y10433597D01*
X81452012Y10208113D01*
X81587606Y10005184D01*
X81760184Y9832606D01*
X81963113Y9697012D01*
X82188597Y9603614D01*
X82427969Y9556000D01*
X82672031Y9556000D01*
X82911403Y9603614D01*
X83136887Y9697012D01*
X83339816Y9832606D01*
X83512394Y10005184D01*
X83647988Y10208113D01*
X83741386Y10433597D01*
X83789000Y10672969D01*
X83789000Y10917031D01*
X83741386Y11156403D01*
X83647988Y11381887D01*
X83512394Y11584816D01*
X83339816Y11757394D01*
X83136887Y11892988D01*
X82911403Y11986386D01*
X82672031Y12034000D01*
X82427969Y12034000D01*
X82188597Y11986386D01*
X81963113Y11892988D01*
X81760184Y11757394D01*
X81587606Y11584816D01*
X81452012Y11381887D01*
X81358614Y11156403D01*
X81311000Y10917031D01*
X52472105Y10917031D01*
X52511027Y10948973D01*
X52532226Y10974804D01*
X55014453Y13457031D01*
X81311000Y13457031D01*
X81311000Y13212969D01*
X81358614Y12973597D01*
X81452012Y12748113D01*
X81587606Y12545184D01*
X81760184Y12372606D01*
X81963113Y12237012D01*
X82188597Y12143614D01*
X82427969Y12096000D01*
X82672031Y12096000D01*
X82911403Y12143614D01*
X83136887Y12237012D01*
X83339816Y12372606D01*
X83512394Y12545184D01*
X83647988Y12748113D01*
X83741386Y12973597D01*
X83789000Y13212969D01*
X83789000Y13457031D01*
X94011000Y13457031D01*
X94011000Y13212969D01*
X94058614Y12973597D01*
X94152012Y12748113D01*
X94287606Y12545184D01*
X94460184Y12372606D01*
X94663113Y12237012D01*
X94888597Y12143614D01*
X95127969Y12096000D01*
X95372031Y12096000D01*
X95611403Y12143614D01*
X95836887Y12237012D01*
X96039816Y12372606D01*
X96212394Y12545184D01*
X96347988Y12748113D01*
X96441386Y12973597D01*
X96489000Y13212969D01*
X96489000Y13457031D01*
X96551000Y13457031D01*
X96551000Y13212969D01*
X96598614Y12973597D01*
X96692012Y12748113D01*
X96827606Y12545184D01*
X97000184Y12372606D01*
X97203113Y12237012D01*
X97428597Y12143614D01*
X97667969Y12096000D01*
X97912031Y12096000D01*
X98151403Y12143614D01*
X98376887Y12237012D01*
X98579816Y12372606D01*
X98752394Y12545184D01*
X98887988Y12748113D01*
X98981386Y12973597D01*
X99029000Y13212969D01*
X99029000Y13457031D01*
X98981386Y13696403D01*
X98887988Y13921887D01*
X98752394Y14124816D01*
X98579816Y14297394D01*
X98376887Y14432988D01*
X98151403Y14526386D01*
X97912031Y14574000D01*
X97667969Y14574000D01*
X97428597Y14526386D01*
X97203113Y14432988D01*
X97000184Y14297394D01*
X96827606Y14124816D01*
X96692012Y13921887D01*
X96598614Y13696403D01*
X96551000Y13457031D01*
X96489000Y13457031D01*
X96441386Y13696403D01*
X96347988Y13921887D01*
X96212394Y14124816D01*
X96039816Y14297394D01*
X95836887Y14432988D01*
X95611403Y14526386D01*
X95372031Y14574000D01*
X95127969Y14574000D01*
X94888597Y14526386D01*
X94663113Y14432988D01*
X94460184Y14297394D01*
X94287606Y14124816D01*
X94152012Y13921887D01*
X94058614Y13696403D01*
X94011000Y13457031D01*
X83789000Y13457031D01*
X83741386Y13696403D01*
X83647988Y13921887D01*
X83512394Y14124816D01*
X83339816Y14297394D01*
X83136887Y14432988D01*
X82911403Y14526386D01*
X82672031Y14574000D01*
X82427969Y14574000D01*
X82188597Y14526386D01*
X81963113Y14432988D01*
X81760184Y14297394D01*
X81587606Y14124816D01*
X81452012Y13921887D01*
X81358614Y13696403D01*
X81311000Y13457031D01*
X55014453Y13457031D01*
X55552577Y13995154D01*
X55714226Y13963000D01*
X55965774Y13963000D01*
X56212487Y14012074D01*
X56444886Y14108337D01*
X56654040Y14248089D01*
X56831911Y14425960D01*
X56923478Y14563000D01*
X71721755Y14563000D01*
X71755000Y14559726D01*
X71788245Y14563000D01*
X71788252Y14563000D01*
X71887715Y14572796D01*
X72015330Y14611508D01*
X72132941Y14674372D01*
X72236027Y14758973D01*
X72257226Y14784804D01*
X73469453Y15997031D01*
X81311000Y15997031D01*
X81311000Y15752969D01*
X81358614Y15513597D01*
X81452012Y15288113D01*
X81587606Y15085184D01*
X81760184Y14912606D01*
X81963113Y14777012D01*
X82188597Y14683614D01*
X82427969Y14636000D01*
X82672031Y14636000D01*
X82911403Y14683614D01*
X83136887Y14777012D01*
X83339816Y14912606D01*
X83512394Y15085184D01*
X83647988Y15288113D01*
X83741386Y15513597D01*
X83789000Y15752969D01*
X83789000Y15997031D01*
X83741386Y16236403D01*
X83647988Y16461887D01*
X83512394Y16664816D01*
X83339816Y16837394D01*
X83136887Y16972988D01*
X82911403Y17066386D01*
X82672031Y17114000D01*
X82427969Y17114000D01*
X82188597Y17066386D01*
X81963113Y16972988D01*
X81760184Y16837394D01*
X81587606Y16664816D01*
X81452012Y16461887D01*
X81358614Y16236403D01*
X81311000Y15997031D01*
X73469453Y15997031D01*
X76009453Y18537031D01*
X81311000Y18537031D01*
X81311000Y18292969D01*
X81358614Y18053597D01*
X81452012Y17828113D01*
X81587606Y17625184D01*
X81760184Y17452606D01*
X81963113Y17317012D01*
X82188597Y17223614D01*
X82427969Y17176000D01*
X82672031Y17176000D01*
X82911403Y17223614D01*
X83136887Y17317012D01*
X83339816Y17452606D01*
X83512394Y17625184D01*
X83647988Y17828113D01*
X83741386Y18053597D01*
X83789000Y18292969D01*
X83789000Y18537031D01*
X83741386Y18776403D01*
X83647988Y19001887D01*
X83512394Y19204816D01*
X83339816Y19377394D01*
X83136887Y19512988D01*
X82919259Y19603132D01*
X83153023Y19687364D01*
X83268980Y19749344D01*
X83335960Y19989435D01*
X82550000Y20775395D01*
X81764040Y19989435D01*
X81831020Y19749344D01*
X82080048Y19632244D01*
X82186975Y19605714D01*
X81963113Y19512988D01*
X81760184Y19377394D01*
X81587606Y19204816D01*
X81452012Y19001887D01*
X81358614Y18776403D01*
X81311000Y18537031D01*
X76009453Y18537031D01*
X78355405Y20882983D01*
X81148090Y20882983D01*
X81189078Y20610867D01*
X81282364Y20351977D01*
X81344344Y20236020D01*
X81584435Y20169040D01*
X82370395Y20955000D01*
X82729605Y20955000D01*
X83515565Y20169040D01*
X83755656Y20236020D01*
X83872756Y20485048D01*
X83939023Y20752135D01*
X83951910Y21027017D01*
X83910922Y21299133D01*
X83817636Y21558023D01*
X83755656Y21673980D01*
X83515565Y21740960D01*
X82729605Y20955000D01*
X82370395Y20955000D01*
X81584435Y21740960D01*
X81344344Y21673980D01*
X81227244Y21424952D01*
X81160977Y21157865D01*
X81148090Y20882983D01*
X78355405Y20882983D01*
X81379678Y23907256D01*
X81358614Y23856403D01*
X81311000Y23617031D01*
X81311000Y23372969D01*
X81358614Y23133597D01*
X81452012Y22908113D01*
X81587606Y22705184D01*
X81760184Y22532606D01*
X81963113Y22397012D01*
X82180741Y22306868D01*
X81946977Y22222636D01*
X81831020Y22160656D01*
X81764040Y21920565D01*
X82550000Y21134605D01*
X83335960Y21920565D01*
X83268980Y22160656D01*
X83019952Y22277756D01*
X82913025Y22304286D01*
X83136887Y22397012D01*
X83339816Y22532606D01*
X83512394Y22705184D01*
X83647988Y22908113D01*
X83741386Y23133597D01*
X83789000Y23372969D01*
X83789000Y23617031D01*
X83741386Y23856403D01*
X83737291Y23866290D01*
X84039762Y24168761D01*
X84061774Y24186826D01*
X84133879Y24274685D01*
X84180209Y24361364D01*
X84187457Y24374923D01*
X84220451Y24483688D01*
X84231591Y24596800D01*
X84228800Y24625139D01*
X84228800Y28989869D01*
X84231590Y29018200D01*
X84228502Y29049564D01*
X84225920Y29075779D01*
X84220451Y29131312D01*
X84194025Y29218424D01*
X84187457Y29240076D01*
X84133879Y29340315D01*
X84061774Y29428174D01*
X84039763Y29446238D01*
X83335967Y30150034D01*
X83339816Y30152606D01*
X83512394Y30325184D01*
X83647988Y30528113D01*
X83741386Y30753597D01*
X83789000Y30992969D01*
X83789000Y31237031D01*
X94011000Y31237031D01*
X94011000Y30992969D01*
X94058614Y30753597D01*
X94152012Y30528113D01*
X94287606Y30325184D01*
X94460184Y30152606D01*
X94663113Y30017012D01*
X94888597Y29923614D01*
X95127969Y29876000D01*
X95372031Y29876000D01*
X95611403Y29923614D01*
X95836887Y30017012D01*
X96039816Y30152606D01*
X96212394Y30325184D01*
X96347988Y30528113D01*
X96441386Y30753597D01*
X96489000Y30992969D01*
X96489000Y31237031D01*
X96551000Y31237031D01*
X96551000Y30992969D01*
X96598614Y30753597D01*
X96692012Y30528113D01*
X96827606Y30325184D01*
X97000184Y30152606D01*
X97203113Y30017012D01*
X97428597Y29923614D01*
X97667969Y29876000D01*
X97912031Y29876000D01*
X98151403Y29923614D01*
X98376887Y30017012D01*
X98579816Y30152606D01*
X98752394Y30325184D01*
X98887988Y30528113D01*
X98981386Y30753597D01*
X99029000Y30992969D01*
X99029000Y31237031D01*
X98981386Y31476403D01*
X98887988Y31701887D01*
X98752394Y31904816D01*
X98579816Y32077394D01*
X98376887Y32212988D01*
X98151403Y32306386D01*
X97912031Y32354000D01*
X97667969Y32354000D01*
X97428597Y32306386D01*
X97203113Y32212988D01*
X97000184Y32077394D01*
X96827606Y31904816D01*
X96692012Y31701887D01*
X96598614Y31476403D01*
X96551000Y31237031D01*
X96489000Y31237031D01*
X96441386Y31476403D01*
X96347988Y31701887D01*
X96212394Y31904816D01*
X96039816Y32077394D01*
X95836887Y32212988D01*
X95611403Y32306386D01*
X95372031Y32354000D01*
X95127969Y32354000D01*
X94888597Y32306386D01*
X94663113Y32212988D01*
X94460184Y32077394D01*
X94287606Y31904816D01*
X94152012Y31701887D01*
X94058614Y31476403D01*
X94011000Y31237031D01*
X83789000Y31237031D01*
X83741386Y31476403D01*
X83647988Y31701887D01*
X83512394Y31904816D01*
X83339816Y32077394D01*
X83136887Y32212988D01*
X82911403Y32306386D01*
X82672031Y32354000D01*
X82427969Y32354000D01*
X82188597Y32306386D01*
X81963113Y32212988D01*
X81760184Y32077394D01*
X81587606Y31904816D01*
X81452012Y31701887D01*
X81447917Y31692000D01*
X62457801Y31692000D01*
X64155711Y33389910D01*
X64177074Y33282513D01*
X64273337Y33050114D01*
X64413089Y32840960D01*
X64590960Y32663089D01*
X64800114Y32523337D01*
X65032513Y32427074D01*
X65279226Y32378000D01*
X65530774Y32378000D01*
X65777487Y32427074D01*
X66009886Y32523337D01*
X66219040Y32663089D01*
X66396911Y32840960D01*
X66536663Y33050114D01*
X66632926Y33282513D01*
X66682000Y33529226D01*
X66682000Y33780774D01*
X66632926Y34027487D01*
X66561220Y34200600D01*
X68058780Y34200600D01*
X67987074Y34027487D01*
X67938000Y33780774D01*
X67938000Y33529226D01*
X67987074Y33282513D01*
X68083337Y33050114D01*
X68223089Y32840960D01*
X68400960Y32663089D01*
X68610114Y32523337D01*
X68842513Y32427074D01*
X69089226Y32378000D01*
X69340774Y32378000D01*
X69587487Y32427074D01*
X69819886Y32523337D01*
X70029040Y32663089D01*
X70206911Y32840960D01*
X70346663Y33050114D01*
X70442926Y33282513D01*
X70492000Y33529226D01*
X70492000Y33780774D01*
X71748000Y33780774D01*
X71748000Y33529226D01*
X71797074Y33282513D01*
X71893337Y33050114D01*
X72033089Y32840960D01*
X72210960Y32663089D01*
X72420114Y32523337D01*
X72652513Y32427074D01*
X72899226Y32378000D01*
X73150774Y32378000D01*
X73397487Y32427074D01*
X73629886Y32523337D01*
X73839040Y32663089D01*
X74016911Y32840960D01*
X74156663Y33050114D01*
X74252926Y33282513D01*
X74302000Y33529226D01*
X74302000Y33780774D01*
X74252926Y34027487D01*
X74156663Y34259886D01*
X74016911Y34469040D01*
X73839040Y34646911D01*
X73629886Y34786663D01*
X73397487Y34882926D01*
X73150774Y34932000D01*
X72899226Y34932000D01*
X72652513Y34882926D01*
X72420114Y34786663D01*
X72210960Y34646911D01*
X72033089Y34469040D01*
X71893337Y34259886D01*
X71797074Y34027487D01*
X71748000Y33780774D01*
X70492000Y33780774D01*
X70442926Y34027487D01*
X70428972Y34061176D01*
X70516258Y34078538D01*
X70648564Y34133341D01*
X70767636Y34212902D01*
X70868898Y34314164D01*
X70948459Y34433236D01*
X71003262Y34565542D01*
X71031200Y34705997D01*
X71031200Y34849203D01*
X71003262Y34989658D01*
X70948459Y35121964D01*
X70868898Y35241036D01*
X70767636Y35342298D01*
X70648564Y35421859D01*
X70516258Y35476662D01*
X70375803Y35504600D01*
X70232597Y35504600D01*
X70092142Y35476662D01*
X69959836Y35421859D01*
X69859175Y35354600D01*
X64755728Y35354600D01*
X64727399Y35357390D01*
X64699070Y35354600D01*
X64699064Y35354600D01*
X64614288Y35346250D01*
X64505524Y35313257D01*
X64405285Y35259679D01*
X64317426Y35187574D01*
X64299361Y35165562D01*
X61226199Y32092400D01*
X51609601Y32092400D01*
X55313101Y35795900D01*
X74444569Y35795900D01*
X74472900Y35793110D01*
X74501231Y35795900D01*
X74501236Y35795900D01*
X74530945Y35798826D01*
X74586011Y35804249D01*
X74630670Y35817797D01*
X74694776Y35837243D01*
X74795015Y35890821D01*
X74882874Y35962926D01*
X74900939Y35984938D01*
X76472895Y37556894D01*
X76477097Y37555153D01*
X76714151Y37508000D01*
X76955849Y37508000D01*
X77192903Y37555153D01*
X77416202Y37647647D01*
X77617167Y37781927D01*
X77788073Y37952833D01*
X77796962Y37966137D01*
X78513399Y37249700D01*
X76447034Y35183335D01*
X76425027Y35165274D01*
X76406966Y35143267D01*
X76406963Y35143264D01*
X76389483Y35121964D01*
X76352922Y35077415D01*
X76308535Y34994372D01*
X76299344Y34977176D01*
X76266349Y34868411D01*
X76259497Y34798834D01*
X76230114Y34786663D01*
X76020960Y34646911D01*
X75843089Y34469040D01*
X75703337Y34259886D01*
X75607074Y34027487D01*
X75558000Y33780774D01*
X75558000Y33529226D01*
X75607074Y33282513D01*
X75703337Y33050114D01*
X75843089Y32840960D01*
X76020960Y32663089D01*
X76230114Y32523337D01*
X76462513Y32427074D01*
X76709226Y32378000D01*
X76960774Y32378000D01*
X77207487Y32427074D01*
X77439886Y32523337D01*
X77649040Y32663089D01*
X77826911Y32840960D01*
X77966663Y33050114D01*
X78062926Y33282513D01*
X78112000Y33529226D01*
X78112000Y33777031D01*
X81311000Y33777031D01*
X81311000Y33532969D01*
X81358614Y33293597D01*
X81452012Y33068113D01*
X81587606Y32865184D01*
X81760184Y32692606D01*
X81963113Y32557012D01*
X82188597Y32463614D01*
X82427969Y32416000D01*
X82672031Y32416000D01*
X82911403Y32463614D01*
X83136887Y32557012D01*
X83339816Y32692606D01*
X83512394Y32865184D01*
X83647988Y33068113D01*
X83741386Y33293597D01*
X83789000Y33532969D01*
X83789000Y33777031D01*
X83741386Y34016403D01*
X83647988Y34241887D01*
X83512394Y34444816D01*
X83339816Y34617394D01*
X83136887Y34752988D01*
X82911403Y34846386D01*
X82672031Y34894000D01*
X82427969Y34894000D01*
X82188597Y34846386D01*
X81963113Y34752988D01*
X81760184Y34617394D01*
X81587606Y34444816D01*
X81452012Y34241887D01*
X81358614Y34016403D01*
X81311000Y33777031D01*
X78112000Y33777031D01*
X78112000Y33780774D01*
X78062926Y34027487D01*
X77966663Y34259886D01*
X77826911Y34469040D01*
X77649040Y34646911D01*
X77585241Y34689540D01*
X79598762Y36703061D01*
X79620774Y36721126D01*
X79678365Y36791300D01*
X80519969Y36791300D01*
X80548300Y36788510D01*
X80576631Y36791300D01*
X80576636Y36791300D01*
X80606345Y36794226D01*
X80661411Y36799649D01*
X80706070Y36813197D01*
X80770176Y36832643D01*
X80870415Y36886221D01*
X80958274Y36958326D01*
X80976339Y36980338D01*
X81552895Y37556894D01*
X81557097Y37555153D01*
X81794151Y37508000D01*
X82035849Y37508000D01*
X82272903Y37555153D01*
X82496202Y37647647D01*
X82697167Y37781927D01*
X82868073Y37952833D01*
X83002353Y38153798D01*
X83094847Y38377097D01*
X83142000Y38614151D01*
X83142000Y38855849D01*
X83094847Y39092903D01*
X83002353Y39316202D01*
X82868073Y39517167D01*
X82697167Y39688073D01*
X82496202Y39822353D01*
X82272903Y39914847D01*
X82035849Y39962000D01*
X81794151Y39962000D01*
X81557097Y39914847D01*
X81333798Y39822353D01*
X81132833Y39688073D01*
X80961927Y39517167D01*
X80827647Y39316202D01*
X80735153Y39092903D01*
X80688000Y38855849D01*
X80688000Y38614151D01*
X80735153Y38377097D01*
X80736894Y38372895D01*
X80350708Y37986709D01*
X80462353Y38153798D01*
X80554847Y38377097D01*
X80602000Y38614151D01*
X80602000Y38855849D01*
X80554847Y39092903D01*
X80462353Y39316202D01*
X80328073Y39517167D01*
X80157167Y39688073D01*
X79956202Y39822353D01*
X79732903Y39914847D01*
X79495849Y39962000D01*
X79254151Y39962000D01*
X79017097Y39914847D01*
X78793798Y39822353D01*
X78592833Y39688073D01*
X78431031Y39526271D01*
X77775939Y40181362D01*
X77757874Y40203374D01*
X77670015Y40275479D01*
X77569776Y40329057D01*
X77505670Y40348503D01*
X77461011Y40362051D01*
X77405945Y40367474D01*
X77376236Y40370400D01*
X77376231Y40370400D01*
X77347900Y40373190D01*
X77319569Y40370400D01*
X76418128Y40370400D01*
X76389799Y40373190D01*
X76361470Y40370400D01*
X76361464Y40370400D01*
X76276688Y40362050D01*
X76167924Y40329057D01*
X76067685Y40275479D01*
X75979826Y40203374D01*
X75961761Y40181362D01*
X75267897Y39487498D01*
X75248073Y39517167D01*
X75077167Y39688073D01*
X74876202Y39822353D01*
X74652903Y39914847D01*
X74415849Y39962000D01*
X74174151Y39962000D01*
X73937097Y39914847D01*
X73932895Y39913106D01*
X73616439Y40229562D01*
X73598374Y40251574D01*
X73510515Y40323679D01*
X73410276Y40377257D01*
X73346170Y40396703D01*
X73301511Y40410251D01*
X73246445Y40415674D01*
X73216736Y40418600D01*
X73216731Y40418600D01*
X73188400Y40421390D01*
X73160069Y40418600D01*
X46516790Y40418600D01*
X46522100Y40445297D01*
X46522100Y40588503D01*
X46494162Y40728958D01*
X46439359Y40861264D01*
X46359798Y40980336D01*
X46258536Y41081598D01*
X46139464Y41161159D01*
X46007158Y41215962D01*
X45866703Y41243900D01*
X45723497Y41243900D01*
X45583042Y41215962D01*
X45450736Y41161159D01*
X45350075Y41093900D01*
X20640528Y41093900D01*
X20612199Y41096690D01*
X20583870Y41093900D01*
X20583864Y41093900D01*
X20499088Y41085550D01*
X20390324Y41052557D01*
X20290085Y40998979D01*
X20267369Y40980336D01*
X20224235Y40944937D01*
X20224233Y40944935D01*
X20202226Y40926874D01*
X20184165Y40904867D01*
X18964079Y39684780D01*
X18928529Y39751289D01*
X18868921Y39823921D01*
X18796289Y39883529D01*
X18713423Y39927822D01*
X18623508Y39955097D01*
X18530000Y39964307D01*
X17306600Y39964307D01*
X17306600Y50145599D01*
X19957895Y52796894D01*
X19962097Y52795153D01*
X20199151Y52748000D01*
X20440849Y52748000D01*
X20677903Y52795153D01*
X20901202Y52887647D01*
X21102167Y53021927D01*
X21273073Y53192833D01*
X21407353Y53393798D01*
X21499847Y53617097D01*
X21547000Y53854151D01*
X21547000Y54095849D01*
X21499847Y54332903D01*
X21442852Y54470500D01*
X21737148Y54470500D01*
X21680153Y54332903D01*
X21633000Y54095849D01*
X21633000Y53854151D01*
X21680153Y53617097D01*
X21772647Y53393798D01*
X21906927Y53192833D01*
X22077833Y53021927D01*
X22278798Y52887647D01*
X22502097Y52795153D01*
X22739151Y52748000D01*
X22980849Y52748000D01*
X23217903Y52795153D01*
X23441202Y52887647D01*
X23642167Y53021927D01*
X23813073Y53192833D01*
X23947353Y53393798D01*
X24039847Y53617097D01*
X24087000Y53854151D01*
X24087000Y54095849D01*
X24039847Y54332903D01*
X23982852Y54470500D01*
X24277148Y54470500D01*
X24220153Y54332903D01*
X24173000Y54095849D01*
X24173000Y53854151D01*
X24220153Y53617097D01*
X24312647Y53393798D01*
X24446927Y53192833D01*
X24617833Y53021927D01*
X24818798Y52887647D01*
X25042097Y52795153D01*
X25279151Y52748000D01*
X25520849Y52748000D01*
X25757903Y52795153D01*
X25762105Y52796894D01*
X26431361Y52127638D01*
X26449426Y52105626D01*
X26537285Y52033521D01*
X26637524Y51979943D01*
X26746288Y51946950D01*
X26831064Y51938600D01*
X26831070Y51938600D01*
X26859399Y51935810D01*
X26887728Y51938600D01*
X34698729Y51938600D01*
X34670441Y51896264D01*
X34615638Y51763958D01*
X34587700Y51623503D01*
X34587700Y51480297D01*
X34615638Y51339842D01*
X34670441Y51207536D01*
X34750002Y51088464D01*
X34851264Y50987202D01*
X34970336Y50907641D01*
X35102642Y50852838D01*
X35243097Y50824900D01*
X35386303Y50824900D01*
X35526758Y50852838D01*
X35659064Y50907641D01*
X35759725Y50974900D01*
X79463569Y50974900D01*
X79491900Y50972110D01*
X79520231Y50974900D01*
X79520236Y50974900D01*
X79549945Y50977826D01*
X79605011Y50983249D01*
X79649670Y50996797D01*
X79713776Y51016243D01*
X79814015Y51069821D01*
X79901874Y51141926D01*
X79919939Y51163938D01*
X81552895Y52796894D01*
X81557097Y52795153D01*
X81794151Y52748000D01*
X82035849Y52748000D01*
X82272903Y52795153D01*
X82496202Y52887647D01*
X82697167Y53021927D01*
X82868073Y53192833D01*
X83002353Y53393798D01*
X83094847Y53617097D01*
X83142000Y53854151D01*
X83142000Y54095849D01*
X83094847Y54332903D01*
X83002353Y54556202D01*
X82868073Y54757167D01*
X82697167Y54928073D01*
X82496202Y55062353D01*
X82272903Y55154847D01*
X82035849Y55202000D01*
X81794151Y55202000D01*
X81557097Y55154847D01*
X81333798Y55062353D01*
X81132833Y54928073D01*
X80961927Y54757167D01*
X80947890Y54736159D01*
X80931879Y54766115D01*
X80859774Y54853974D01*
X80837762Y54872039D01*
X80294839Y55414962D01*
X80276774Y55436974D01*
X80188915Y55509079D01*
X80088676Y55562657D01*
X80024570Y55582103D01*
X79979911Y55595651D01*
X79924845Y55601074D01*
X79895136Y55604000D01*
X79895131Y55604000D01*
X79866800Y55606790D01*
X79838469Y55604000D01*
X77915339Y55604000D01*
X77887000Y55606791D01*
X77773888Y55595651D01*
X77709782Y55576204D01*
X77665124Y55562657D01*
X77564885Y55509079D01*
X77477026Y55436974D01*
X77458961Y55414962D01*
X77197105Y55153106D01*
X77192903Y55154847D01*
X76955849Y55202000D01*
X76714151Y55202000D01*
X76477097Y55154847D01*
X76253798Y55062353D01*
X76052833Y54928073D01*
X75881927Y54757167D01*
X75747647Y54556202D01*
X75655153Y54332903D01*
X75608000Y54095849D01*
X75608000Y53854151D01*
X75655153Y53617097D01*
X75705686Y53495100D01*
X75424314Y53495100D01*
X75474847Y53617097D01*
X75522000Y53854151D01*
X75522000Y54095849D01*
X75474847Y54332903D01*
X75382353Y54556202D01*
X75248073Y54757167D01*
X75077167Y54928073D01*
X74876202Y55062353D01*
X74652903Y55154847D01*
X74415849Y55202000D01*
X74174151Y55202000D01*
X73937097Y55154847D01*
X73932895Y55153106D01*
X73671039Y55414962D01*
X73652974Y55436974D01*
X73565115Y55509079D01*
X73464876Y55562657D01*
X73400770Y55582103D01*
X73356111Y55595651D01*
X73301045Y55601074D01*
X73271336Y55604000D01*
X73271331Y55604000D01*
X73243000Y55606790D01*
X73214669Y55604000D01*
X45266928Y55604000D01*
X45238599Y55606790D01*
X45210270Y55604000D01*
X45210264Y55604000D01*
X45125488Y55595650D01*
X45016724Y55562657D01*
X44916485Y55509079D01*
X44875615Y55475537D01*
X44850635Y55455037D01*
X44850633Y55455035D01*
X44828626Y55436974D01*
X44810565Y55414967D01*
X44359679Y54964080D01*
X44240942Y54940462D01*
X44108636Y54885659D01*
X43989564Y54806098D01*
X43888302Y54704836D01*
X43808741Y54585764D01*
X43753938Y54453458D01*
X43726000Y54313003D01*
X43726000Y54265500D01*
X33802602Y54265500D01*
X32632639Y55435462D01*
X32614574Y55457474D01*
X32526715Y55529579D01*
X32426476Y55583157D01*
X32362370Y55602603D01*
X32317711Y55616151D01*
X32262645Y55621574D01*
X32232936Y55624500D01*
X32232931Y55624500D01*
X32204600Y55627290D01*
X32176269Y55624500D01*
X18880828Y55624500D01*
X18852499Y55627290D01*
X18824170Y55624500D01*
X18824164Y55624500D01*
X18739388Y55616150D01*
X18731584Y55613783D01*
X20495502Y57377700D01*
X25723469Y57377700D01*
X25751800Y57374910D01*
X25780131Y57377700D01*
X25780136Y57377700D01*
X25809845Y57380626D01*
X25864911Y57386049D01*
X25909570Y57399597D01*
X25973676Y57419043D01*
X26073915Y57472621D01*
X26161774Y57544726D01*
X26179839Y57566738D01*
X32511662Y63898561D01*
X32533674Y63916626D01*
X32605779Y64004485D01*
X32643840Y64075693D01*
X34124000Y64075693D01*
X34217508Y64084903D01*
X34307423Y64112178D01*
X34390289Y64156471D01*
X34462921Y64216079D01*
X34522529Y64288711D01*
X34566822Y64371577D01*
X34594097Y64461492D01*
X34603307Y64555000D01*
X34603307Y64860254D01*
X34638028Y64776430D01*
X34783252Y64559087D01*
X34968087Y64374252D01*
X35185430Y64229028D01*
X35426928Y64128996D01*
X35683302Y64078000D01*
X35944698Y64078000D01*
X36143945Y64117633D01*
X39216778Y61044799D01*
X39237973Y61018973D01*
X39263799Y60997778D01*
X39263801Y60997776D01*
X39335776Y60938708D01*
X39341059Y60934372D01*
X39458670Y60871508D01*
X39586285Y60832796D01*
X39685748Y60823000D01*
X39685755Y60823000D01*
X39719000Y60819726D01*
X39752245Y60823000D01*
X50916522Y60823000D01*
X51008089Y60685960D01*
X51185960Y60508089D01*
X51395114Y60368337D01*
X51627513Y60272074D01*
X51874226Y60223000D01*
X52125774Y60223000D01*
X52287424Y60255154D01*
X53077774Y59464804D01*
X53098973Y59438973D01*
X53202059Y59354372D01*
X53319670Y59291508D01*
X53447285Y59252796D01*
X53546748Y59243000D01*
X53546757Y59243000D01*
X53579999Y59239726D01*
X53613241Y59243000D01*
X56976657Y59243000D01*
X57046927Y59137833D01*
X57217833Y58966927D01*
X57418798Y58832647D01*
X57642097Y58740153D01*
X57879151Y58693000D01*
X58120849Y58693000D01*
X58357903Y58740153D01*
X58581202Y58832647D01*
X58782167Y58966927D01*
X58815240Y59000000D01*
X84311928Y59000000D01*
X84324188Y58875518D01*
X84360498Y58755820D01*
X84419463Y58645506D01*
X84498815Y58548815D01*
X84595506Y58469463D01*
X84705820Y58410498D01*
X84825518Y58374188D01*
X84950000Y58361928D01*
X85014250Y58365000D01*
X85173000Y58523750D01*
X85173000Y60373000D01*
X85427000Y60373000D01*
X85427000Y58523750D01*
X85585750Y58365000D01*
X85650000Y58361928D01*
X85774482Y58374188D01*
X85894180Y58410498D01*
X86004494Y58469463D01*
X86101185Y58548815D01*
X86180537Y58645506D01*
X86239502Y58755820D01*
X86275812Y58875518D01*
X86288072Y59000000D01*
X86285000Y60214250D01*
X86126250Y60373000D01*
X85427000Y60373000D01*
X85173000Y60373000D01*
X84473750Y60373000D01*
X84315000Y60214250D01*
X84311928Y59000000D01*
X58815240Y59000000D01*
X58953073Y59137833D01*
X59087353Y59338798D01*
X59179847Y59562097D01*
X59227000Y59799151D01*
X59227000Y60040849D01*
X59179847Y60277903D01*
X59087353Y60501202D01*
X58993077Y60642298D01*
X63686903Y60642298D01*
X63758486Y60398329D01*
X64013996Y60277429D01*
X64288184Y60208700D01*
X64570512Y60194783D01*
X64850130Y60236213D01*
X65116292Y60331397D01*
X65241514Y60398329D01*
X65313097Y60642298D01*
X64500000Y61455395D01*
X63686903Y60642298D01*
X58993077Y60642298D01*
X58953073Y60702167D01*
X58782167Y60873073D01*
X58581202Y61007353D01*
X58357903Y61099847D01*
X58120849Y61147000D01*
X57879151Y61147000D01*
X57642097Y61099847D01*
X57418798Y61007353D01*
X57217833Y60873073D01*
X57046927Y60702167D01*
X56976657Y60597000D01*
X53860422Y60597000D01*
X53244846Y61212576D01*
X53277000Y61374226D01*
X53277000Y61625774D01*
X53227926Y61872487D01*
X53131663Y62104886D01*
X52991911Y62314040D01*
X52814040Y62491911D01*
X52604886Y62631663D01*
X52526300Y62664214D01*
X52616292Y62696397D01*
X52741514Y62763329D01*
X52813097Y63007298D01*
X52000000Y63820395D01*
X51186903Y63007298D01*
X51258486Y62763329D01*
X51470636Y62662945D01*
X51395114Y62631663D01*
X51185960Y62491911D01*
X51008089Y62314040D01*
X50916522Y62177000D01*
X41348801Y62177000D01*
X42849502Y63677700D01*
X43405664Y63677700D01*
X43434000Y63674909D01*
X43462336Y63677700D01*
X43488470Y63680274D01*
X43547112Y63686050D01*
X43655876Y63719043D01*
X43756115Y63772621D01*
X43843974Y63844726D01*
X43913537Y63929488D01*
X50559783Y63929488D01*
X50601213Y63649870D01*
X50696397Y63383708D01*
X50763329Y63258486D01*
X51007298Y63186903D01*
X51820395Y64000000D01*
X52179605Y64000000D01*
X52992702Y63186903D01*
X53236671Y63258486D01*
X53357571Y63513996D01*
X53426300Y63788184D01*
X53440217Y64070512D01*
X53413623Y64250000D01*
X56611928Y64250000D01*
X56624188Y64125518D01*
X56660498Y64005820D01*
X56719463Y63895506D01*
X56798815Y63798815D01*
X56895506Y63719463D01*
X57005820Y63660498D01*
X57125518Y63624188D01*
X57250000Y63611928D01*
X57579966Y63614111D01*
X57418798Y63547353D01*
X57217833Y63413073D01*
X57046927Y63242167D01*
X56912647Y63041202D01*
X56820153Y62817903D01*
X56773000Y62580849D01*
X56773000Y62339151D01*
X56820153Y62102097D01*
X56912647Y61878798D01*
X57046927Y61677833D01*
X57217833Y61506927D01*
X57418798Y61372647D01*
X57642097Y61280153D01*
X57879151Y61233000D01*
X58120849Y61233000D01*
X58357903Y61280153D01*
X58581202Y61372647D01*
X58782167Y61506927D01*
X58839728Y61564488D01*
X63059783Y61564488D01*
X63101213Y61284870D01*
X63196397Y61018708D01*
X63263329Y60893486D01*
X63507298Y60821903D01*
X64320395Y61635000D01*
X64679605Y61635000D01*
X65492702Y60821903D01*
X65736671Y60893486D01*
X65857571Y61148996D01*
X65926300Y61423184D01*
X65940217Y61705512D01*
X65898787Y61985130D01*
X65803603Y62251292D01*
X65736671Y62376514D01*
X65492702Y62448097D01*
X64679605Y61635000D01*
X64320395Y61635000D01*
X63507298Y62448097D01*
X63263329Y62376514D01*
X63142429Y62121004D01*
X63073700Y61846816D01*
X63059783Y61564488D01*
X58839728Y61564488D01*
X58953073Y61677833D01*
X59087353Y61878798D01*
X59179847Y62102097D01*
X59227000Y62339151D01*
X59227000Y62580849D01*
X59202324Y62704902D01*
X59955423Y63458000D01*
X63416522Y63458000D01*
X63508089Y63320960D01*
X63685960Y63143089D01*
X63895114Y63003337D01*
X63973700Y62970786D01*
X63883708Y62938603D01*
X63758486Y62871671D01*
X63686903Y62627702D01*
X64500000Y61814605D01*
X65313097Y62627702D01*
X65241514Y62871671D01*
X65029364Y62972055D01*
X65104886Y63003337D01*
X65314040Y63143089D01*
X65491911Y63320960D01*
X65631663Y63530114D01*
X65649427Y63573000D01*
X70221010Y63573000D01*
X70143996Y63387072D01*
X70093000Y63130698D01*
X70093000Y62869302D01*
X70143996Y62612928D01*
X70244028Y62371430D01*
X70389252Y62154087D01*
X70574087Y61969252D01*
X70791430Y61824028D01*
X71032928Y61723996D01*
X71289302Y61673000D01*
X71550698Y61673000D01*
X71807072Y61723996D01*
X72048570Y61824028D01*
X72265913Y61969252D01*
X72450748Y62154087D01*
X72595972Y62371430D01*
X72690000Y62598433D01*
X72784028Y62371430D01*
X72929252Y62154087D01*
X73114087Y61969252D01*
X73331430Y61824028D01*
X73572928Y61723996D01*
X73829302Y61673000D01*
X74090698Y61673000D01*
X74347072Y61723996D01*
X74588570Y61824028D01*
X74805913Y61969252D01*
X74990748Y62154087D01*
X75135972Y62371430D01*
X75170693Y62455254D01*
X75170693Y62150000D01*
X75179903Y62056492D01*
X75207178Y61966577D01*
X75251471Y61883711D01*
X75311079Y61811079D01*
X75383711Y61751471D01*
X75466577Y61707178D01*
X75556492Y61679903D01*
X75650000Y61670693D01*
X77350000Y61670693D01*
X77443508Y61679903D01*
X77533423Y61707178D01*
X77616289Y61751471D01*
X77688921Y61811079D01*
X77748529Y61883711D01*
X77792822Y61966577D01*
X77820097Y62056492D01*
X77829307Y62150000D01*
X77829307Y62323000D01*
X84402629Y62323000D01*
X84360498Y62244180D01*
X84324188Y62124482D01*
X84311928Y62000000D01*
X84315000Y60785750D01*
X84473750Y60627000D01*
X85173000Y60627000D01*
X85173000Y60647000D01*
X85427000Y60647000D01*
X85427000Y60627000D01*
X86126250Y60627000D01*
X86285000Y60785750D01*
X86288072Y62000000D01*
X86276655Y62115923D01*
X86870693Y61521885D01*
X86870693Y59000000D01*
X86879903Y58906492D01*
X86907178Y58816577D01*
X86951471Y58733711D01*
X87011079Y58661079D01*
X87083711Y58601471D01*
X87166577Y58557178D01*
X87256492Y58529903D01*
X87350000Y58520693D01*
X88050000Y58520693D01*
X88143508Y58529903D01*
X88233423Y58557178D01*
X88316289Y58601471D01*
X88388921Y58661079D01*
X88448529Y58733711D01*
X88492822Y58816577D01*
X88520097Y58906492D01*
X88529307Y59000000D01*
X88529307Y62000000D01*
X88520097Y62093508D01*
X88492822Y62183423D01*
X88448529Y62266289D01*
X88388921Y62338921D01*
X88316289Y62398529D01*
X88233423Y62442822D01*
X88143508Y62470097D01*
X88050000Y62479307D01*
X87828115Y62479307D01*
X86852226Y63455196D01*
X86831027Y63481027D01*
X86727941Y63565628D01*
X86610330Y63628492D01*
X86482715Y63667204D01*
X86383252Y63677000D01*
X86383245Y63677000D01*
X86350000Y63680274D01*
X86316755Y63677000D01*
X77829307Y63677000D01*
X77829307Y63850000D01*
X77820097Y63943508D01*
X77792822Y64033423D01*
X77748529Y64116289D01*
X77688921Y64188921D01*
X77616289Y64248529D01*
X77533423Y64292822D01*
X77443508Y64320097D01*
X77350000Y64329307D01*
X75650000Y64329307D01*
X75556492Y64320097D01*
X75466577Y64292822D01*
X75383711Y64248529D01*
X75311079Y64188921D01*
X75251471Y64116289D01*
X75207178Y64033423D01*
X75179903Y63943508D01*
X75170693Y63850000D01*
X75170693Y63544746D01*
X75135972Y63628570D01*
X74990748Y63845913D01*
X74805913Y64030748D01*
X74588570Y64175972D01*
X74347072Y64276004D01*
X74090698Y64327000D01*
X73829302Y64327000D01*
X73630055Y64287367D01*
X73212226Y64705196D01*
X73191027Y64731027D01*
X73087941Y64815628D01*
X72970330Y64878492D01*
X72842715Y64917204D01*
X72743252Y64927000D01*
X72743245Y64927000D01*
X72710000Y64930274D01*
X72676755Y64927000D01*
X65506638Y64927000D01*
X65491911Y64949040D01*
X65314040Y65126911D01*
X65104886Y65266663D01*
X64872487Y65362926D01*
X64625774Y65412000D01*
X64374226Y65412000D01*
X64127513Y65362926D01*
X63895114Y65266663D01*
X63685960Y65126911D01*
X63508089Y64949040D01*
X63416522Y64812000D01*
X59708252Y64812000D01*
X59675000Y64815275D01*
X59542285Y64802204D01*
X59414670Y64763492D01*
X59363245Y64736005D01*
X59226250Y64873000D01*
X58127000Y64873000D01*
X58127000Y64853000D01*
X57873000Y64853000D01*
X57873000Y64873000D01*
X56773750Y64873000D01*
X56615000Y64714250D01*
X56611928Y64250000D01*
X53413623Y64250000D01*
X53398787Y64350130D01*
X53303603Y64616292D01*
X53236671Y64741514D01*
X52992702Y64813097D01*
X52179605Y64000000D01*
X51820395Y64000000D01*
X51007298Y64813097D01*
X50763329Y64741514D01*
X50642429Y64486004D01*
X50573700Y64211816D01*
X50559783Y63929488D01*
X43913537Y63929488D01*
X43916079Y63932585D01*
X43969657Y64032824D01*
X44002650Y64141588D01*
X44009080Y64206872D01*
X44062570Y64229028D01*
X44279913Y64374252D01*
X44464748Y64559087D01*
X44609972Y64776430D01*
X44704000Y65003433D01*
X44798028Y64776430D01*
X44943252Y64559087D01*
X45128087Y64374252D01*
X45345430Y64229028D01*
X45586928Y64128996D01*
X45843302Y64078000D01*
X46104698Y64078000D01*
X46361072Y64128996D01*
X46602570Y64229028D01*
X46819913Y64374252D01*
X47004748Y64559087D01*
X47149972Y64776430D01*
X47239555Y64992702D01*
X51186903Y64992702D01*
X52000000Y64179605D01*
X52813097Y64992702D01*
X52741514Y65236671D01*
X52486004Y65357571D01*
X52211816Y65426300D01*
X51929488Y65440217D01*
X51649870Y65398787D01*
X51383708Y65303603D01*
X51258486Y65236671D01*
X51186903Y64992702D01*
X47239555Y64992702D01*
X47250004Y65017928D01*
X47301000Y65274302D01*
X47301000Y65535698D01*
X47258373Y65750000D01*
X56611928Y65750000D01*
X56615000Y65285750D01*
X56773750Y65127000D01*
X57873000Y65127000D01*
X57873000Y66226250D01*
X58127000Y66226250D01*
X58127000Y65127000D01*
X59226250Y65127000D01*
X59385000Y65285750D01*
X59388072Y65750000D01*
X59375812Y65874482D01*
X59339502Y65994180D01*
X59280537Y66104494D01*
X59201185Y66201185D01*
X59104494Y66280537D01*
X58994180Y66339502D01*
X58874482Y66375812D01*
X58750000Y66388072D01*
X58285750Y66385000D01*
X58127000Y66226250D01*
X57873000Y66226250D01*
X57714250Y66385000D01*
X57250000Y66388072D01*
X57125518Y66375812D01*
X57005820Y66339502D01*
X56895506Y66280537D01*
X56798815Y66201185D01*
X56719463Y66104494D01*
X56660498Y65994180D01*
X56624188Y65874482D01*
X56611928Y65750000D01*
X47258373Y65750000D01*
X47250004Y65792072D01*
X47149972Y66033570D01*
X47004748Y66250913D01*
X46819913Y66435748D01*
X46801589Y66447992D01*
X81773000Y66447992D01*
X81773000Y65552007D01*
X81787138Y65408475D01*
X81843004Y65224309D01*
X81933725Y65054582D01*
X82055815Y64905814D01*
X82204583Y64783724D01*
X82374310Y64693003D01*
X82558476Y64637137D01*
X82750000Y64618273D01*
X82941525Y64637137D01*
X83125691Y64693003D01*
X83295418Y64783724D01*
X83444186Y64905814D01*
X83566276Y65054582D01*
X83656997Y65224309D01*
X83712863Y65408476D01*
X83727000Y65552008D01*
X83727000Y66447992D01*
X89173000Y66447992D01*
X89173000Y65552007D01*
X89187138Y65408475D01*
X89243004Y65224309D01*
X89333725Y65054582D01*
X89455815Y64905814D01*
X89604583Y64783724D01*
X89774310Y64693003D01*
X89958476Y64637137D01*
X90150000Y64618273D01*
X90341525Y64637137D01*
X90525691Y64693003D01*
X90695418Y64783724D01*
X90844186Y64905814D01*
X90966276Y65054582D01*
X91056997Y65224309D01*
X91112863Y65408476D01*
X91127000Y65552008D01*
X91127000Y66447993D01*
X91112863Y66591525D01*
X91056997Y66775691D01*
X90966276Y66945418D01*
X90844186Y67094186D01*
X90709686Y67204567D01*
X94923000Y67204567D01*
X94923000Y66795433D01*
X95002818Y66394161D01*
X95159386Y66016171D01*
X95386689Y65675989D01*
X95675989Y65386689D01*
X96016171Y65159386D01*
X96394161Y65002818D01*
X96795433Y64923000D01*
X97204567Y64923000D01*
X97605839Y65002818D01*
X97983829Y65159386D01*
X98324011Y65386689D01*
X98613311Y65675989D01*
X98840614Y66016171D01*
X98997182Y66394161D01*
X99077000Y66795433D01*
X99077000Y67204567D01*
X98997182Y67605839D01*
X98840614Y67983829D01*
X98613311Y68324011D01*
X98324011Y68613311D01*
X97983829Y68840614D01*
X97605839Y68997182D01*
X97204567Y69077000D01*
X96795433Y69077000D01*
X96394161Y68997182D01*
X96016171Y68840614D01*
X95675989Y68613311D01*
X95386689Y68324011D01*
X95159386Y67983829D01*
X95002818Y67605839D01*
X94923000Y67204567D01*
X90709686Y67204567D01*
X90695418Y67216276D01*
X90525690Y67306997D01*
X90341524Y67362863D01*
X90150000Y67381727D01*
X89958475Y67362863D01*
X89774309Y67306997D01*
X89604582Y67216276D01*
X89455814Y67094186D01*
X89333724Y66945418D01*
X89243003Y66775690D01*
X89187137Y66591524D01*
X89173000Y66447992D01*
X83727000Y66447992D01*
X83727000Y66447993D01*
X83712863Y66591525D01*
X83656997Y66775691D01*
X83566276Y66945418D01*
X83444186Y67094186D01*
X83295418Y67216276D01*
X83125690Y67306997D01*
X82941524Y67362863D01*
X82750000Y67381727D01*
X82558475Y67362863D01*
X82374309Y67306997D01*
X82204582Y67216276D01*
X82055814Y67094186D01*
X81933724Y66945418D01*
X81843003Y66775690D01*
X81787137Y66591524D01*
X81773000Y66447992D01*
X46801589Y66447992D01*
X46602570Y66580972D01*
X46361072Y66681004D01*
X46104698Y66732000D01*
X45843302Y66732000D01*
X45586928Y66681004D01*
X45345430Y66580972D01*
X45128087Y66435748D01*
X44943252Y66250913D01*
X44798028Y66033570D01*
X44704000Y65806567D01*
X44609972Y66033570D01*
X44464748Y66250913D01*
X44279913Y66435748D01*
X44062570Y66580972D01*
X43821072Y66681004D01*
X43564698Y66732000D01*
X43303302Y66732000D01*
X43046928Y66681004D01*
X42805430Y66580972D01*
X42588087Y66435748D01*
X42403252Y66250913D01*
X42258028Y66033570D01*
X42164000Y65806567D01*
X42069972Y66033570D01*
X41924748Y66250913D01*
X41739913Y66435748D01*
X41522570Y66580972D01*
X41281072Y66681004D01*
X41024698Y66732000D01*
X40763302Y66732000D01*
X40506928Y66681004D01*
X40265430Y66580972D01*
X40048087Y66435748D01*
X39863252Y66250913D01*
X39718028Y66033570D01*
X39707836Y66008965D01*
X39698157Y66036252D01*
X39549178Y66286355D01*
X39354269Y66502588D01*
X39120920Y66676641D01*
X38858099Y66801825D01*
X38710890Y66846476D01*
X38481000Y66725155D01*
X38481000Y65532000D01*
X38501000Y65532000D01*
X38501000Y65278000D01*
X38481000Y65278000D01*
X38481000Y64084845D01*
X38710890Y63963524D01*
X38858099Y64008175D01*
X39120920Y64133359D01*
X39354269Y64307412D01*
X39549178Y64523645D01*
X39698157Y64773748D01*
X39707836Y64801035D01*
X39718028Y64776430D01*
X39863252Y64559087D01*
X40048087Y64374252D01*
X40265430Y64229028D01*
X40303965Y64213066D01*
X40132679Y64041780D01*
X40013942Y64018162D01*
X39881636Y63963359D01*
X39762564Y63883798D01*
X39661302Y63782536D01*
X39581741Y63663464D01*
X39526938Y63531158D01*
X39499000Y63390703D01*
X39499000Y63247497D01*
X39526938Y63107042D01*
X39581741Y62974736D01*
X39661302Y62855664D01*
X39762564Y62754402D01*
X39881636Y62674841D01*
X39967105Y62639439D01*
X39949902Y62622236D01*
X39870341Y62503164D01*
X39815538Y62370858D01*
X39813883Y62362540D01*
X38138357Y64038065D01*
X38227000Y64084845D01*
X38227000Y65278000D01*
X38207000Y65278000D01*
X38207000Y65532000D01*
X38227000Y65532000D01*
X38227000Y66725155D01*
X37997110Y66846476D01*
X37849901Y66801825D01*
X37587080Y66676641D01*
X37353731Y66502588D01*
X37158822Y66286355D01*
X37009843Y66036252D01*
X37000164Y66008965D01*
X36989972Y66033570D01*
X36844748Y66250913D01*
X36659913Y66435748D01*
X36442570Y66580972D01*
X36201072Y66681004D01*
X35944698Y66732000D01*
X35683302Y66732000D01*
X35484055Y66692367D01*
X35066226Y67110196D01*
X35045027Y67136027D01*
X34941941Y67220628D01*
X34824330Y67283492D01*
X34696715Y67322204D01*
X34597252Y67332000D01*
X34597245Y67332000D01*
X34564000Y67335274D01*
X34530755Y67332000D01*
X29223241Y67332000D01*
X29189999Y67335274D01*
X29156757Y67332000D01*
X29156748Y67332000D01*
X29057285Y67322204D01*
X28929670Y67283492D01*
X28913278Y67274730D01*
X28700774Y67317000D01*
X28449226Y67317000D01*
X28202513Y67267926D01*
X27970114Y67171663D01*
X27760960Y67031911D01*
X27583089Y66854040D01*
X27443337Y66644886D01*
X27347074Y66412487D01*
X27298000Y66165774D01*
X27298000Y65914226D01*
X27347074Y65667513D01*
X27443337Y65435114D01*
X27583089Y65225960D01*
X27760960Y65048089D01*
X27898000Y64956522D01*
X27898001Y63145424D01*
X26196254Y61443676D01*
X26205217Y61625512D01*
X26163787Y61905130D01*
X26068603Y62171292D01*
X26001671Y62296514D01*
X25757702Y62368097D01*
X24944605Y61555000D01*
X24958748Y61540857D01*
X24779143Y61361252D01*
X24765000Y61375395D01*
X23951903Y60562298D01*
X24018798Y60334307D01*
X23965000Y60334307D01*
X23871492Y60325097D01*
X23781577Y60297822D01*
X23698711Y60253529D01*
X23626079Y60193921D01*
X23566471Y60121289D01*
X23522178Y60038423D01*
X23494903Y59948508D01*
X23485693Y59855000D01*
X23485693Y59732000D01*
X15273241Y59732000D01*
X15239999Y59735274D01*
X15206757Y59732000D01*
X15206748Y59732000D01*
X15107285Y59722204D01*
X14979670Y59683492D01*
X14862059Y59620628D01*
X14758973Y59536027D01*
X14737776Y59510198D01*
X12776700Y57549122D01*
X12776700Y61229399D01*
X13722962Y62175661D01*
X13744974Y62193726D01*
X13817079Y62281585D01*
X13870657Y62381824D01*
X13886597Y62434372D01*
X13903651Y62490588D01*
X13910081Y62555872D01*
X13963570Y62578028D01*
X14180913Y62723252D01*
X14365748Y62908087D01*
X14510972Y63125430D01*
X14605000Y63352433D01*
X14699028Y63125430D01*
X14844252Y62908087D01*
X15029087Y62723252D01*
X15246430Y62578028D01*
X15487928Y62477996D01*
X15744302Y62427000D01*
X16005698Y62427000D01*
X16262072Y62477996D01*
X16503570Y62578028D01*
X16720913Y62723252D01*
X16905748Y62908087D01*
X17050972Y63125430D01*
X17151004Y63366928D01*
X17202000Y63623302D01*
X17202000Y63884698D01*
X17151004Y64141072D01*
X17050972Y64382570D01*
X16905748Y64599913D01*
X16720913Y64784748D01*
X16503570Y64929972D01*
X16262072Y65030004D01*
X16005698Y65081000D01*
X15744302Y65081000D01*
X15487928Y65030004D01*
X15246430Y64929972D01*
X15029087Y64784748D01*
X14844252Y64599913D01*
X14699028Y64382570D01*
X14605000Y64155567D01*
X14510972Y64382570D01*
X14365748Y64599913D01*
X14180913Y64784748D01*
X13963570Y64929972D01*
X13722072Y65030004D01*
X13465698Y65081000D01*
X13204302Y65081000D01*
X12947928Y65030004D01*
X12706430Y64929972D01*
X12489087Y64784748D01*
X12304252Y64599913D01*
X12282876Y64567921D01*
X12283072Y64604000D01*
X12270812Y64728482D01*
X12234502Y64848180D01*
X12175537Y64958494D01*
X12096185Y65055185D01*
X11999494Y65134537D01*
X11889180Y65193502D01*
X11769482Y65229812D01*
X11645000Y65242072D01*
X11080750Y65239000D01*
X10922000Y65080250D01*
X10922000Y63881000D01*
X10942000Y63881000D01*
X10942000Y63627000D01*
X10922000Y63627000D01*
X10922000Y62427750D01*
X11080750Y62269000D01*
X11645000Y62265928D01*
X11769482Y62278188D01*
X11889180Y62314498D01*
X11999494Y62373463D01*
X12096185Y62452815D01*
X12175537Y62549506D01*
X12234502Y62659820D01*
X12270812Y62779518D01*
X12283072Y62904000D01*
X12282876Y62940079D01*
X12304252Y62908087D01*
X12489087Y62723252D01*
X12578684Y62663385D01*
X11811734Y61896435D01*
X11789727Y61878374D01*
X11771666Y61856367D01*
X11771663Y61856364D01*
X11748540Y61828188D01*
X11717622Y61790515D01*
X11673078Y61707178D01*
X11664044Y61690276D01*
X11631049Y61581511D01*
X11619910Y61468400D01*
X11622701Y61440059D01*
X11622700Y38147165D01*
X11619003Y38147900D01*
X11475797Y38147900D01*
X11335342Y38119962D01*
X11203036Y38065159D01*
X11083964Y37985598D01*
X10982702Y37884336D01*
X10903141Y37765264D01*
X10848338Y37632958D01*
X10824720Y37514222D01*
X8650138Y35339639D01*
X8628126Y35321574D01*
X8556021Y35233714D01*
X8502443Y35133475D01*
X8492152Y35099551D01*
X8469449Y35024711D01*
X8463740Y34966743D01*
X8461186Y34940800D01*
X8458310Y34911600D01*
X8461100Y34883269D01*
X8461101Y16047841D01*
X8458310Y16019500D01*
X8469449Y15906389D01*
X8500016Y15805628D01*
X8502444Y15797624D01*
X8556022Y15697385D01*
X8586940Y15659712D01*
X8610063Y15631536D01*
X8610066Y15631533D01*
X8628127Y15609526D01*
X8650134Y15591465D01*
X18294469Y5947130D01*
X18273252Y5925913D01*
X18128028Y5708570D01*
X18034000Y5481567D01*
X17939972Y5708570D01*
X17794748Y5925913D01*
X17609913Y6110748D01*
X17392570Y6255972D01*
X17151072Y6356004D01*
X16894698Y6407000D01*
X16633302Y6407000D01*
X16376928Y6356004D01*
X16135430Y6255972D01*
X15918087Y6110748D01*
X15733252Y5925913D01*
X15588028Y5708570D01*
X15554748Y5628224D01*
X15487412Y5648650D01*
X15468528Y5650510D01*
X15422128Y5655080D01*
X15399972Y5708570D01*
X15254748Y5925913D01*
X15069913Y6110748D01*
X14852570Y6255972D01*
X14611072Y6356004D01*
X14354698Y6407000D01*
X14093302Y6407000D01*
X13836928Y6356004D01*
X13595430Y6255972D01*
X13378087Y6110748D01*
X13193252Y5925913D01*
X13048028Y5708570D01*
X12947996Y5467072D01*
X12897000Y5210698D01*
X12897000Y4949302D01*
X12947996Y4692928D01*
X13048028Y4451430D01*
X13193252Y4234087D01*
X13378087Y4049252D01*
X13595430Y3904028D01*
X13679254Y3869307D01*
X13374000Y3869307D01*
X13280492Y3860097D01*
X13190577Y3832822D01*
X13107711Y3788529D01*
X13035079Y3728921D01*
X12975471Y3656289D01*
X12931178Y3573423D01*
X12903903Y3483508D01*
X12894693Y3390000D01*
X12894693Y1690000D01*
X12903903Y1596492D01*
X12931178Y1506577D01*
X12975471Y1423711D01*
X13035079Y1351079D01*
X13107711Y1291471D01*
X13190577Y1247178D01*
X13280492Y1219903D01*
X13374000Y1210693D01*
X15074000Y1210693D01*
X15167508Y1219903D01*
X15257423Y1247178D01*
X15340289Y1291471D01*
X15412921Y1351079D01*
X15433971Y1376728D01*
X16183699Y627000D01*
X627000Y627000D01*
X627000Y3204567D01*
X923000Y3204567D01*
X923000Y2795433D01*
X1002818Y2394161D01*
X1159386Y2016171D01*
X1386689Y1675989D01*
X1675989Y1386689D01*
X2016171Y1159386D01*
X2394161Y1002818D01*
X2795433Y923000D01*
X3204567Y923000D01*
X3605839Y1002818D01*
X3983829Y1159386D01*
X4324011Y1386689D01*
X4613311Y1675989D01*
X4840614Y2016171D01*
X4997182Y2394161D01*
X5077000Y2795433D01*
X5077000Y3204567D01*
X4997182Y3605839D01*
X4840614Y3983829D01*
X4613311Y4324011D01*
X4324011Y4613311D01*
X3983829Y4840614D01*
X3605839Y4997182D01*
X3204567Y5077000D01*
X2795433Y5077000D01*
X2394161Y4997182D01*
X2016171Y4840614D01*
X1675989Y4613311D01*
X1386689Y4324011D01*
X1159386Y3983829D01*
X1002818Y3605839D01*
X923000Y3204567D01*
X627000Y3204567D01*
X627000Y18065961D01*
X3688096Y18065961D01*
X3728754Y17931913D01*
X3848963Y17677580D01*
X4016481Y17451586D01*
X4224869Y17262615D01*
X4466119Y17117930D01*
X4730960Y17023091D01*
X4953000Y17144376D01*
X4953000Y18288000D01*
X5207000Y18288000D01*
X5207000Y17144376D01*
X5429040Y17023091D01*
X5693881Y17117930D01*
X5935131Y17262615D01*
X6143519Y17451586D01*
X6311037Y17677580D01*
X6431246Y17931913D01*
X6471904Y18065961D01*
X6349915Y18288000D01*
X5207000Y18288000D01*
X4953000Y18288000D01*
X3810085Y18288000D01*
X3688096Y18065961D01*
X627000Y18065961D01*
X627000Y18764039D01*
X3688096Y18764039D01*
X3810085Y18542000D01*
X4953000Y18542000D01*
X4953000Y19685624D01*
X5207000Y19685624D01*
X5207000Y18542000D01*
X6349915Y18542000D01*
X6471904Y18764039D01*
X6431246Y18898087D01*
X6311037Y19152420D01*
X6143519Y19378414D01*
X5935131Y19567385D01*
X5693881Y19712070D01*
X5429040Y19806909D01*
X5207000Y19685624D01*
X4953000Y19685624D01*
X4730960Y19806909D01*
X4466119Y19712070D01*
X4224869Y19567385D01*
X4016481Y19378414D01*
X3848963Y19152420D01*
X3728754Y18898087D01*
X3688096Y18764039D01*
X627000Y18764039D01*
X627000Y28892391D01*
X3886538Y28892391D01*
X3911215Y28811029D01*
X4011508Y28590676D01*
X4152863Y28394124D01*
X4329847Y28228925D01*
X4535659Y28101428D01*
X4762390Y28016533D01*
X4953000Y28140291D01*
X4953000Y29083000D01*
X5207000Y29083000D01*
X5207000Y28140291D01*
X5397610Y28016533D01*
X5624341Y28101428D01*
X5830153Y28228925D01*
X6007137Y28394124D01*
X6148492Y28590676D01*
X6248785Y28811029D01*
X6273462Y28892391D01*
X6148731Y29083000D01*
X5207000Y29083000D01*
X4953000Y29083000D01*
X4011269Y29083000D01*
X3886538Y28892391D01*
X627000Y28892391D01*
X627000Y29527609D01*
X3886538Y29527609D01*
X4011269Y29337000D01*
X4953000Y29337000D01*
X4953000Y30279709D01*
X5207000Y30279709D01*
X5207000Y29337000D01*
X6148731Y29337000D01*
X6273462Y29527609D01*
X6248785Y29608971D01*
X6148492Y29829324D01*
X6007137Y30025876D01*
X5830153Y30191075D01*
X5624341Y30318572D01*
X5397610Y30403467D01*
X5207000Y30279709D01*
X4953000Y30279709D01*
X4762390Y30403467D01*
X4535659Y30318572D01*
X4329847Y30191075D01*
X4152863Y30025876D01*
X4011508Y29829324D01*
X3911215Y29608971D01*
X3886538Y29527609D01*
X627000Y29527609D01*
X627000Y62904000D01*
X9306928Y62904000D01*
X9319188Y62779518D01*
X9355498Y62659820D01*
X9414463Y62549506D01*
X9493815Y62452815D01*
X9590506Y62373463D01*
X9700820Y62314498D01*
X9820518Y62278188D01*
X9945000Y62265928D01*
X10509250Y62269000D01*
X10668000Y62427750D01*
X10668000Y63627000D01*
X9468750Y63627000D01*
X9310000Y63468250D01*
X9306928Y62904000D01*
X627000Y62904000D01*
X627000Y64604000D01*
X9306928Y64604000D01*
X9310000Y64039750D01*
X9468750Y63881000D01*
X10668000Y63881000D01*
X10668000Y65080250D01*
X10509250Y65239000D01*
X9945000Y65242072D01*
X9820518Y65229812D01*
X9700820Y65193502D01*
X9590506Y65134537D01*
X9493815Y65055185D01*
X9414463Y64958494D01*
X9355498Y64848180D01*
X9319188Y64728482D01*
X9306928Y64604000D01*
X627000Y64604000D01*
X627000Y67204567D01*
X923000Y67204567D01*
X923000Y66795433D01*
X1002818Y66394161D01*
X1159386Y66016171D01*
X1386689Y65675989D01*
X1675989Y65386689D01*
X2016171Y65159386D01*
X2394161Y65002818D01*
X2795433Y64923000D01*
X3204567Y64923000D01*
X3605839Y65002818D01*
X3983829Y65159386D01*
X4324011Y65386689D01*
X4613311Y65675989D01*
X4840614Y66016171D01*
X4902581Y66165774D01*
X19678000Y66165774D01*
X19678000Y65914226D01*
X19727074Y65667513D01*
X19823337Y65435114D01*
X19963089Y65225960D01*
X20140960Y65048089D01*
X20350114Y64908337D01*
X20582513Y64812074D01*
X20829226Y64763000D01*
X21080774Y64763000D01*
X21327487Y64812074D01*
X21355374Y64823625D01*
X22353500Y63825499D01*
X22353501Y61331326D01*
X22286241Y61230664D01*
X22231438Y61098358D01*
X22203500Y60957903D01*
X22203500Y60814697D01*
X22231438Y60674242D01*
X22286241Y60541936D01*
X22365802Y60422864D01*
X22467064Y60321602D01*
X22586136Y60242041D01*
X22718442Y60187238D01*
X22858897Y60159300D01*
X23002103Y60159300D01*
X23142558Y60187238D01*
X23274864Y60242041D01*
X23393936Y60321602D01*
X23495198Y60422864D01*
X23574759Y60541936D01*
X23629562Y60674242D01*
X23650149Y60777743D01*
X23772298Y60741903D01*
X24585395Y61555000D01*
X23772298Y62368097D01*
X23528329Y62296514D01*
X23507500Y62252494D01*
X23507500Y62547702D01*
X23951903Y62547702D01*
X24765000Y61734605D01*
X25578097Y62547702D01*
X25506514Y62791671D01*
X25251004Y62912571D01*
X24976816Y62981300D01*
X24694488Y62995217D01*
X24414870Y62953787D01*
X24148708Y62858603D01*
X24023486Y62791671D01*
X23951903Y62547702D01*
X23507500Y62547702D01*
X23507500Y64036169D01*
X23510290Y64064500D01*
X23506774Y64100211D01*
X23504281Y64125518D01*
X23499151Y64177612D01*
X23471818Y64267714D01*
X23466157Y64286376D01*
X23412579Y64386615D01*
X23340474Y64474474D01*
X23318463Y64492538D01*
X22171375Y65639626D01*
X22182926Y65667513D01*
X22232000Y65914226D01*
X22232000Y66165774D01*
X22182926Y66412487D01*
X22086663Y66644886D01*
X21946911Y66854040D01*
X21769040Y67031911D01*
X21559886Y67171663D01*
X21327487Y67267926D01*
X21080774Y67317000D01*
X20829226Y67317000D01*
X20582513Y67267926D01*
X20350114Y67171663D01*
X20140960Y67031911D01*
X19963089Y66854040D01*
X19823337Y66644886D01*
X19727074Y66412487D01*
X19678000Y66165774D01*
X4902581Y66165774D01*
X4997182Y66394161D01*
X5077000Y66795433D01*
X5077000Y67204567D01*
X4997182Y67605839D01*
X4840614Y67983829D01*
X4613311Y68324011D01*
X4324011Y68613311D01*
X3983829Y68840614D01*
X3605839Y68997182D01*
X3204567Y69077000D01*
X2795433Y69077000D01*
X2394161Y68997182D01*
X2016171Y68840614D01*
X1675989Y68613311D01*
X1386689Y68324011D01*
X1159386Y67983829D01*
X1002818Y67605839D01*
X923000Y67204567D01*
X627000Y67204567D01*
X627000Y69373000D01*
X99373000Y69373000D01*
X99373000Y627000D01*
G04 #@! TA.AperFunction,Conductor*
D28*
G36*
X99373000Y627000D02*
G01*
X36065000Y627000D01*
X36065000Y721103D01*
X36046940Y811900D01*
X41535269Y811900D01*
X41563600Y809110D01*
X41591931Y811900D01*
X41591936Y811900D01*
X41621645Y814826D01*
X41676711Y820249D01*
X41721370Y833797D01*
X41785476Y853243D01*
X41885715Y906821D01*
X41973574Y978926D01*
X41991639Y1000938D01*
X44050460Y3059759D01*
X44093089Y2995960D01*
X44270960Y2818089D01*
X44480114Y2678337D01*
X44712513Y2582074D01*
X44959226Y2533000D01*
X45210774Y2533000D01*
X45457487Y2582074D01*
X45689886Y2678337D01*
X45899040Y2818089D01*
X46076911Y2995960D01*
X46216297Y3204567D01*
X94923000Y3204567D01*
X94923000Y2795433D01*
X95002818Y2394161D01*
X95159386Y2016171D01*
X95386689Y1675989D01*
X95675989Y1386689D01*
X96016171Y1159386D01*
X96394161Y1002818D01*
X96795433Y923000D01*
X97204567Y923000D01*
X97605839Y1002818D01*
X97983829Y1159386D01*
X98324011Y1386689D01*
X98613311Y1675989D01*
X98840614Y2016171D01*
X98997182Y2394161D01*
X99077000Y2795433D01*
X99077000Y3204567D01*
X98997182Y3605839D01*
X98840614Y3983829D01*
X98613311Y4324011D01*
X98324011Y4613311D01*
X97983829Y4840614D01*
X97605839Y4997182D01*
X97204567Y5077000D01*
X96795433Y5077000D01*
X96394161Y4997182D01*
X96016171Y4840614D01*
X95675989Y4613311D01*
X95386689Y4324011D01*
X95159386Y3983829D01*
X95002818Y3605839D01*
X94923000Y3204567D01*
X46216297Y3204567D01*
X46216663Y3205114D01*
X46312926Y3437513D01*
X46362000Y3684226D01*
X46362000Y3935774D01*
X46312926Y4182487D01*
X46216663Y4414886D01*
X46076911Y4624040D01*
X45899040Y4801911D01*
X45689886Y4941663D01*
X45457487Y5037926D01*
X45210774Y5087000D01*
X44959226Y5087000D01*
X44712513Y5037926D01*
X44480114Y4941663D01*
X44270960Y4801911D01*
X44093089Y4624040D01*
X43953337Y4414886D01*
X43941166Y4385503D01*
X43871588Y4378650D01*
X43762824Y4345657D01*
X43662585Y4292079D01*
X43574726Y4219974D01*
X43556661Y4197962D01*
X41324599Y1965900D01*
X30828431Y1965900D01*
X30905481Y2183109D01*
X30784814Y2413000D01*
X29591000Y2413000D01*
X29591000Y2393000D01*
X29337000Y2393000D01*
X29337000Y2413000D01*
X29317000Y2413000D01*
X29317000Y2667000D01*
X29337000Y2667000D01*
X29337000Y2687000D01*
X29591000Y2687000D01*
X29591000Y2667000D01*
X30784814Y2667000D01*
X30905481Y2896891D01*
X30884686Y2955513D01*
X31533861Y2306338D01*
X31551926Y2284326D01*
X31639785Y2212221D01*
X31694251Y2183109D01*
X31740023Y2158643D01*
X31848788Y2125649D01*
X31961900Y2114509D01*
X31990239Y2117300D01*
X39030669Y2117300D01*
X39059000Y2114510D01*
X39087331Y2117300D01*
X39087336Y2117300D01*
X39117045Y2120226D01*
X39172111Y2125649D01*
X39217074Y2139289D01*
X39280876Y2158643D01*
X39381115Y2212221D01*
X39468974Y2284326D01*
X39487039Y2306338D01*
X40240460Y3059759D01*
X40283089Y2995960D01*
X40460960Y2818089D01*
X40670114Y2678337D01*
X40902513Y2582074D01*
X41149226Y2533000D01*
X41400774Y2533000D01*
X41647487Y2582074D01*
X41879886Y2678337D01*
X42089040Y2818089D01*
X42266911Y2995960D01*
X42406663Y3205114D01*
X42502926Y3437513D01*
X42552000Y3684226D01*
X42552000Y3935774D01*
X42502926Y4182487D01*
X42406663Y4414886D01*
X42266911Y4624040D01*
X42089040Y4801911D01*
X41879886Y4941663D01*
X41647487Y5037926D01*
X41400774Y5087000D01*
X41149226Y5087000D01*
X40902513Y5037926D01*
X40670114Y4941663D01*
X40460960Y4801911D01*
X40283089Y4624040D01*
X40143337Y4414886D01*
X40131166Y4385503D01*
X40061588Y4378650D01*
X39952824Y4345657D01*
X39852585Y4292079D01*
X39809190Y4256465D01*
X39786735Y4238037D01*
X39786734Y4238036D01*
X39764726Y4219974D01*
X39746665Y4197967D01*
X38819999Y3271300D01*
X38624078Y3271300D01*
X38692926Y3437513D01*
X38742000Y3684226D01*
X38742000Y3935774D01*
X38692926Y4182487D01*
X38596663Y4414886D01*
X38456911Y4624040D01*
X38279040Y4801911D01*
X38069886Y4941663D01*
X37837487Y5037926D01*
X37590774Y5087000D01*
X37339226Y5087000D01*
X37092513Y5037926D01*
X36860114Y4941663D01*
X36650960Y4801911D01*
X36473089Y4624040D01*
X36333337Y4414886D01*
X36237074Y4182487D01*
X36188000Y3935774D01*
X36188000Y3684226D01*
X36237074Y3437513D01*
X36305922Y3271300D01*
X32200901Y3271300D01*
X31215739Y4256462D01*
X31197674Y4278474D01*
X31109815Y4350579D01*
X31009576Y4404157D01*
X30945470Y4423603D01*
X30900811Y4437151D01*
X30845745Y4442574D01*
X30816036Y4445500D01*
X30816031Y4445500D01*
X30787700Y4448290D01*
X30759369Y4445500D01*
X30636010Y4445500D01*
X30639972Y4451430D01*
X30740004Y4692928D01*
X30791000Y4949302D01*
X30791000Y5210698D01*
X30740004Y5467072D01*
X30639972Y5708570D01*
X30494748Y5925913D01*
X30309913Y6110748D01*
X30092570Y6255972D01*
X30041000Y6277333D01*
X30041000Y7566183D01*
X30051459Y7581836D01*
X30106262Y7714142D01*
X30134200Y7854597D01*
X30134200Y7997803D01*
X30106262Y8138258D01*
X30105582Y8139900D01*
X34391969Y8139900D01*
X34420300Y8137110D01*
X34448631Y8139900D01*
X34448636Y8139900D01*
X34478345Y8142826D01*
X34533411Y8148249D01*
X34578070Y8161797D01*
X34642176Y8181243D01*
X34742415Y8234821D01*
X34830274Y8306926D01*
X34848339Y8328938D01*
X36203121Y9683720D01*
X36321858Y9707338D01*
X36454164Y9762141D01*
X36573236Y9841702D01*
X36674498Y9942964D01*
X36754059Y10062036D01*
X36808862Y10194342D01*
X36833134Y10316365D01*
X36860114Y10298337D01*
X37092513Y10202074D01*
X37339226Y10153000D01*
X37590774Y10153000D01*
X37837487Y10202074D01*
X38069886Y10298337D01*
X38279040Y10438089D01*
X38456911Y10615960D01*
X38548478Y10753000D01*
X40191522Y10753000D01*
X40283089Y10615960D01*
X40460960Y10438089D01*
X40670114Y10298337D01*
X40902513Y10202074D01*
X41149226Y10153000D01*
X41400774Y10153000D01*
X41647487Y10202074D01*
X41879886Y10298337D01*
X42089040Y10438089D01*
X42266911Y10615960D01*
X42358478Y10753000D01*
X44001522Y10753000D01*
X44093089Y10615960D01*
X44270960Y10438089D01*
X44480114Y10298337D01*
X44712513Y10202074D01*
X44959226Y10153000D01*
X45210774Y10153000D01*
X45457487Y10202074D01*
X45689886Y10298337D01*
X45899040Y10438089D01*
X46076911Y10615960D01*
X46168478Y10753000D01*
X51996755Y10753000D01*
X52030000Y10749726D01*
X52063245Y10753000D01*
X52063252Y10753000D01*
X52162715Y10762796D01*
X52290330Y10801508D01*
X52407941Y10864372D01*
X52472105Y10917031D01*
X81311000Y10917031D01*
X81311000Y10672969D01*
X81358614Y10433597D01*
X81452012Y10208113D01*
X81587606Y10005184D01*
X81760184Y9832606D01*
X81963113Y9697012D01*
X82188597Y9603614D01*
X82427969Y9556000D01*
X82672031Y9556000D01*
X82911403Y9603614D01*
X83136887Y9697012D01*
X83339816Y9832606D01*
X83512394Y10005184D01*
X83647988Y10208113D01*
X83741386Y10433597D01*
X83789000Y10672969D01*
X83789000Y10917031D01*
X83741386Y11156403D01*
X83647988Y11381887D01*
X83512394Y11584816D01*
X83339816Y11757394D01*
X83136887Y11892988D01*
X82911403Y11986386D01*
X82672031Y12034000D01*
X82427969Y12034000D01*
X82188597Y11986386D01*
X81963113Y11892988D01*
X81760184Y11757394D01*
X81587606Y11584816D01*
X81452012Y11381887D01*
X81358614Y11156403D01*
X81311000Y10917031D01*
X52472105Y10917031D01*
X52511027Y10948973D01*
X52532226Y10974804D01*
X55014453Y13457031D01*
X81311000Y13457031D01*
X81311000Y13212969D01*
X81358614Y12973597D01*
X81452012Y12748113D01*
X81587606Y12545184D01*
X81760184Y12372606D01*
X81963113Y12237012D01*
X82188597Y12143614D01*
X82427969Y12096000D01*
X82672031Y12096000D01*
X82911403Y12143614D01*
X83136887Y12237012D01*
X83339816Y12372606D01*
X83512394Y12545184D01*
X83647988Y12748113D01*
X83741386Y12973597D01*
X83789000Y13212969D01*
X83789000Y13457031D01*
X94011000Y13457031D01*
X94011000Y13212969D01*
X94058614Y12973597D01*
X94152012Y12748113D01*
X94287606Y12545184D01*
X94460184Y12372606D01*
X94663113Y12237012D01*
X94888597Y12143614D01*
X95127969Y12096000D01*
X95372031Y12096000D01*
X95611403Y12143614D01*
X95836887Y12237012D01*
X96039816Y12372606D01*
X96212394Y12545184D01*
X96347988Y12748113D01*
X96441386Y12973597D01*
X96489000Y13212969D01*
X96489000Y13457031D01*
X96551000Y13457031D01*
X96551000Y13212969D01*
X96598614Y12973597D01*
X96692012Y12748113D01*
X96827606Y12545184D01*
X97000184Y12372606D01*
X97203113Y12237012D01*
X97428597Y12143614D01*
X97667969Y12096000D01*
X97912031Y12096000D01*
X98151403Y12143614D01*
X98376887Y12237012D01*
X98579816Y12372606D01*
X98752394Y12545184D01*
X98887988Y12748113D01*
X98981386Y12973597D01*
X99029000Y13212969D01*
X99029000Y13457031D01*
X98981386Y13696403D01*
X98887988Y13921887D01*
X98752394Y14124816D01*
X98579816Y14297394D01*
X98376887Y14432988D01*
X98151403Y14526386D01*
X97912031Y14574000D01*
X97667969Y14574000D01*
X97428597Y14526386D01*
X97203113Y14432988D01*
X97000184Y14297394D01*
X96827606Y14124816D01*
X96692012Y13921887D01*
X96598614Y13696403D01*
X96551000Y13457031D01*
X96489000Y13457031D01*
X96441386Y13696403D01*
X96347988Y13921887D01*
X96212394Y14124816D01*
X96039816Y14297394D01*
X95836887Y14432988D01*
X95611403Y14526386D01*
X95372031Y14574000D01*
X95127969Y14574000D01*
X94888597Y14526386D01*
X94663113Y14432988D01*
X94460184Y14297394D01*
X94287606Y14124816D01*
X94152012Y13921887D01*
X94058614Y13696403D01*
X94011000Y13457031D01*
X83789000Y13457031D01*
X83741386Y13696403D01*
X83647988Y13921887D01*
X83512394Y14124816D01*
X83339816Y14297394D01*
X83136887Y14432988D01*
X82911403Y14526386D01*
X82672031Y14574000D01*
X82427969Y14574000D01*
X82188597Y14526386D01*
X81963113Y14432988D01*
X81760184Y14297394D01*
X81587606Y14124816D01*
X81452012Y13921887D01*
X81358614Y13696403D01*
X81311000Y13457031D01*
X55014453Y13457031D01*
X55552577Y13995154D01*
X55714226Y13963000D01*
X55965774Y13963000D01*
X56212487Y14012074D01*
X56444886Y14108337D01*
X56654040Y14248089D01*
X56831911Y14425960D01*
X56923478Y14563000D01*
X71721755Y14563000D01*
X71755000Y14559726D01*
X71788245Y14563000D01*
X71788252Y14563000D01*
X71887715Y14572796D01*
X72015330Y14611508D01*
X72132941Y14674372D01*
X72236027Y14758973D01*
X72257226Y14784804D01*
X73469453Y15997031D01*
X81311000Y15997031D01*
X81311000Y15752969D01*
X81358614Y15513597D01*
X81452012Y15288113D01*
X81587606Y15085184D01*
X81760184Y14912606D01*
X81963113Y14777012D01*
X82188597Y14683614D01*
X82427969Y14636000D01*
X82672031Y14636000D01*
X82911403Y14683614D01*
X83136887Y14777012D01*
X83339816Y14912606D01*
X83512394Y15085184D01*
X83647988Y15288113D01*
X83741386Y15513597D01*
X83789000Y15752969D01*
X83789000Y15997031D01*
X83741386Y16236403D01*
X83647988Y16461887D01*
X83512394Y16664816D01*
X83339816Y16837394D01*
X83136887Y16972988D01*
X82911403Y17066386D01*
X82672031Y17114000D01*
X82427969Y17114000D01*
X82188597Y17066386D01*
X81963113Y16972988D01*
X81760184Y16837394D01*
X81587606Y16664816D01*
X81452012Y16461887D01*
X81358614Y16236403D01*
X81311000Y15997031D01*
X73469453Y15997031D01*
X76009453Y18537031D01*
X81311000Y18537031D01*
X81311000Y18292969D01*
X81358614Y18053597D01*
X81452012Y17828113D01*
X81587606Y17625184D01*
X81760184Y17452606D01*
X81963113Y17317012D01*
X82188597Y17223614D01*
X82427969Y17176000D01*
X82672031Y17176000D01*
X82911403Y17223614D01*
X83136887Y17317012D01*
X83339816Y17452606D01*
X83512394Y17625184D01*
X83647988Y17828113D01*
X83741386Y18053597D01*
X83789000Y18292969D01*
X83789000Y18537031D01*
X83741386Y18776403D01*
X83647988Y19001887D01*
X83512394Y19204816D01*
X83339816Y19377394D01*
X83136887Y19512988D01*
X82919259Y19603132D01*
X83153023Y19687364D01*
X83268980Y19749344D01*
X83335960Y19989435D01*
X82550000Y20775395D01*
X81764040Y19989435D01*
X81831020Y19749344D01*
X82080048Y19632244D01*
X82186975Y19605714D01*
X81963113Y19512988D01*
X81760184Y19377394D01*
X81587606Y19204816D01*
X81452012Y19001887D01*
X81358614Y18776403D01*
X81311000Y18537031D01*
X76009453Y18537031D01*
X78355405Y20882983D01*
X81148090Y20882983D01*
X81189078Y20610867D01*
X81282364Y20351977D01*
X81344344Y20236020D01*
X81584435Y20169040D01*
X82370395Y20955000D01*
X82729605Y20955000D01*
X83515565Y20169040D01*
X83755656Y20236020D01*
X83872756Y20485048D01*
X83939023Y20752135D01*
X83951910Y21027017D01*
X83910922Y21299133D01*
X83817636Y21558023D01*
X83755656Y21673980D01*
X83515565Y21740960D01*
X82729605Y20955000D01*
X82370395Y20955000D01*
X81584435Y21740960D01*
X81344344Y21673980D01*
X81227244Y21424952D01*
X81160977Y21157865D01*
X81148090Y20882983D01*
X78355405Y20882983D01*
X81379678Y23907256D01*
X81358614Y23856403D01*
X81311000Y23617031D01*
X81311000Y23372969D01*
X81358614Y23133597D01*
X81452012Y22908113D01*
X81587606Y22705184D01*
X81760184Y22532606D01*
X81963113Y22397012D01*
X82180741Y22306868D01*
X81946977Y22222636D01*
X81831020Y22160656D01*
X81764040Y21920565D01*
X82550000Y21134605D01*
X83335960Y21920565D01*
X83268980Y22160656D01*
X83019952Y22277756D01*
X82913025Y22304286D01*
X83136887Y22397012D01*
X83339816Y22532606D01*
X83512394Y22705184D01*
X83647988Y22908113D01*
X83741386Y23133597D01*
X83789000Y23372969D01*
X83789000Y23617031D01*
X83741386Y23856403D01*
X83737291Y23866290D01*
X84039762Y24168761D01*
X84061774Y24186826D01*
X84133879Y24274685D01*
X84180209Y24361364D01*
X84187457Y24374923D01*
X84220451Y24483688D01*
X84231591Y24596800D01*
X84228800Y24625139D01*
X84228800Y28989869D01*
X84231590Y29018200D01*
X84228502Y29049564D01*
X84225920Y29075779D01*
X84220451Y29131312D01*
X84194025Y29218424D01*
X84187457Y29240076D01*
X84133879Y29340315D01*
X84061774Y29428174D01*
X84039763Y29446238D01*
X83335967Y30150034D01*
X83339816Y30152606D01*
X83512394Y30325184D01*
X83647988Y30528113D01*
X83741386Y30753597D01*
X83789000Y30992969D01*
X83789000Y31237031D01*
X94011000Y31237031D01*
X94011000Y30992969D01*
X94058614Y30753597D01*
X94152012Y30528113D01*
X94287606Y30325184D01*
X94460184Y30152606D01*
X94663113Y30017012D01*
X94888597Y29923614D01*
X95127969Y29876000D01*
X95372031Y29876000D01*
X95611403Y29923614D01*
X95836887Y30017012D01*
X96039816Y30152606D01*
X96212394Y30325184D01*
X96347988Y30528113D01*
X96441386Y30753597D01*
X96489000Y30992969D01*
X96489000Y31237031D01*
X96551000Y31237031D01*
X96551000Y30992969D01*
X96598614Y30753597D01*
X96692012Y30528113D01*
X96827606Y30325184D01*
X97000184Y30152606D01*
X97203113Y30017012D01*
X97428597Y29923614D01*
X97667969Y29876000D01*
X97912031Y29876000D01*
X98151403Y29923614D01*
X98376887Y30017012D01*
X98579816Y30152606D01*
X98752394Y30325184D01*
X98887988Y30528113D01*
X98981386Y30753597D01*
X99029000Y30992969D01*
X99029000Y31237031D01*
X98981386Y31476403D01*
X98887988Y31701887D01*
X98752394Y31904816D01*
X98579816Y32077394D01*
X98376887Y32212988D01*
X98151403Y32306386D01*
X97912031Y32354000D01*
X97667969Y32354000D01*
X97428597Y32306386D01*
X97203113Y32212988D01*
X97000184Y32077394D01*
X96827606Y31904816D01*
X96692012Y31701887D01*
X96598614Y31476403D01*
X96551000Y31237031D01*
X96489000Y31237031D01*
X96441386Y31476403D01*
X96347988Y31701887D01*
X96212394Y31904816D01*
X96039816Y32077394D01*
X95836887Y32212988D01*
X95611403Y32306386D01*
X95372031Y32354000D01*
X95127969Y32354000D01*
X94888597Y32306386D01*
X94663113Y32212988D01*
X94460184Y32077394D01*
X94287606Y31904816D01*
X94152012Y31701887D01*
X94058614Y31476403D01*
X94011000Y31237031D01*
X83789000Y31237031D01*
X83741386Y31476403D01*
X83647988Y31701887D01*
X83512394Y31904816D01*
X83339816Y32077394D01*
X83136887Y32212988D01*
X82911403Y32306386D01*
X82672031Y32354000D01*
X82427969Y32354000D01*
X82188597Y32306386D01*
X81963113Y32212988D01*
X81760184Y32077394D01*
X81587606Y31904816D01*
X81452012Y31701887D01*
X81447917Y31692000D01*
X62457801Y31692000D01*
X64155711Y33389910D01*
X64177074Y33282513D01*
X64273337Y33050114D01*
X64413089Y32840960D01*
X64590960Y32663089D01*
X64800114Y32523337D01*
X65032513Y32427074D01*
X65279226Y32378000D01*
X65530774Y32378000D01*
X65777487Y32427074D01*
X66009886Y32523337D01*
X66219040Y32663089D01*
X66396911Y32840960D01*
X66536663Y33050114D01*
X66632926Y33282513D01*
X66682000Y33529226D01*
X66682000Y33780774D01*
X66632926Y34027487D01*
X66561220Y34200600D01*
X68058780Y34200600D01*
X67987074Y34027487D01*
X67938000Y33780774D01*
X67938000Y33529226D01*
X67987074Y33282513D01*
X68083337Y33050114D01*
X68223089Y32840960D01*
X68400960Y32663089D01*
X68610114Y32523337D01*
X68842513Y32427074D01*
X69089226Y32378000D01*
X69340774Y32378000D01*
X69587487Y32427074D01*
X69819886Y32523337D01*
X70029040Y32663089D01*
X70206911Y32840960D01*
X70346663Y33050114D01*
X70442926Y33282513D01*
X70492000Y33529226D01*
X70492000Y33780774D01*
X71748000Y33780774D01*
X71748000Y33529226D01*
X71797074Y33282513D01*
X71893337Y33050114D01*
X72033089Y32840960D01*
X72210960Y32663089D01*
X72420114Y32523337D01*
X72652513Y32427074D01*
X72899226Y32378000D01*
X73150774Y32378000D01*
X73397487Y32427074D01*
X73629886Y32523337D01*
X73839040Y32663089D01*
X74016911Y32840960D01*
X74156663Y33050114D01*
X74252926Y33282513D01*
X74302000Y33529226D01*
X74302000Y33780774D01*
X74252926Y34027487D01*
X74156663Y34259886D01*
X74016911Y34469040D01*
X73839040Y34646911D01*
X73629886Y34786663D01*
X73397487Y34882926D01*
X73150774Y34932000D01*
X72899226Y34932000D01*
X72652513Y34882926D01*
X72420114Y34786663D01*
X72210960Y34646911D01*
X72033089Y34469040D01*
X71893337Y34259886D01*
X71797074Y34027487D01*
X71748000Y33780774D01*
X70492000Y33780774D01*
X70442926Y34027487D01*
X70428972Y34061176D01*
X70516258Y34078538D01*
X70648564Y34133341D01*
X70767636Y34212902D01*
X70868898Y34314164D01*
X70948459Y34433236D01*
X71003262Y34565542D01*
X71031200Y34705997D01*
X71031200Y34849203D01*
X71003262Y34989658D01*
X70948459Y35121964D01*
X70868898Y35241036D01*
X70767636Y35342298D01*
X70648564Y35421859D01*
X70516258Y35476662D01*
X70375803Y35504600D01*
X70232597Y35504600D01*
X70092142Y35476662D01*
X69959836Y35421859D01*
X69859175Y35354600D01*
X64755728Y35354600D01*
X64727399Y35357390D01*
X64699070Y35354600D01*
X64699064Y35354600D01*
X64614288Y35346250D01*
X64505524Y35313257D01*
X64405285Y35259679D01*
X64317426Y35187574D01*
X64299361Y35165562D01*
X61226199Y32092400D01*
X51609601Y32092400D01*
X55313101Y35795900D01*
X74444569Y35795900D01*
X74472900Y35793110D01*
X74501231Y35795900D01*
X74501236Y35795900D01*
X74530945Y35798826D01*
X74586011Y35804249D01*
X74630670Y35817797D01*
X74694776Y35837243D01*
X74795015Y35890821D01*
X74882874Y35962926D01*
X74900939Y35984938D01*
X76472895Y37556894D01*
X76477097Y37555153D01*
X76714151Y37508000D01*
X76955849Y37508000D01*
X77192903Y37555153D01*
X77416202Y37647647D01*
X77617167Y37781927D01*
X77788073Y37952833D01*
X77796962Y37966137D01*
X78513399Y37249700D01*
X76447034Y35183335D01*
X76425027Y35165274D01*
X76406966Y35143267D01*
X76406963Y35143264D01*
X76389483Y35121964D01*
X76352922Y35077415D01*
X76308535Y34994372D01*
X76299344Y34977176D01*
X76266349Y34868411D01*
X76259497Y34798834D01*
X76230114Y34786663D01*
X76020960Y34646911D01*
X75843089Y34469040D01*
X75703337Y34259886D01*
X75607074Y34027487D01*
X75558000Y33780774D01*
X75558000Y33529226D01*
X75607074Y33282513D01*
X75703337Y33050114D01*
X75843089Y32840960D01*
X76020960Y32663089D01*
X76230114Y32523337D01*
X76462513Y32427074D01*
X76709226Y32378000D01*
X76960774Y32378000D01*
X77207487Y32427074D01*
X77439886Y32523337D01*
X77649040Y32663089D01*
X77826911Y32840960D01*
X77966663Y33050114D01*
X78062926Y33282513D01*
X78112000Y33529226D01*
X78112000Y33777031D01*
X81311000Y33777031D01*
X81311000Y33532969D01*
X81358614Y33293597D01*
X81452012Y33068113D01*
X81587606Y32865184D01*
X81760184Y32692606D01*
X81963113Y32557012D01*
X82188597Y32463614D01*
X82427969Y32416000D01*
X82672031Y32416000D01*
X82911403Y32463614D01*
X83136887Y32557012D01*
X83339816Y32692606D01*
X83512394Y32865184D01*
X83647988Y33068113D01*
X83741386Y33293597D01*
X83789000Y33532969D01*
X83789000Y33777031D01*
X83741386Y34016403D01*
X83647988Y34241887D01*
X83512394Y34444816D01*
X83339816Y34617394D01*
X83136887Y34752988D01*
X82911403Y34846386D01*
X82672031Y34894000D01*
X82427969Y34894000D01*
X82188597Y34846386D01*
X81963113Y34752988D01*
X81760184Y34617394D01*
X81587606Y34444816D01*
X81452012Y34241887D01*
X81358614Y34016403D01*
X81311000Y33777031D01*
X78112000Y33777031D01*
X78112000Y33780774D01*
X78062926Y34027487D01*
X77966663Y34259886D01*
X77826911Y34469040D01*
X77649040Y34646911D01*
X77585241Y34689540D01*
X79598762Y36703061D01*
X79620774Y36721126D01*
X79678365Y36791300D01*
X80519969Y36791300D01*
X80548300Y36788510D01*
X80576631Y36791300D01*
X80576636Y36791300D01*
X80606345Y36794226D01*
X80661411Y36799649D01*
X80706070Y36813197D01*
X80770176Y36832643D01*
X80870415Y36886221D01*
X80958274Y36958326D01*
X80976339Y36980338D01*
X81552895Y37556894D01*
X81557097Y37555153D01*
X81794151Y37508000D01*
X82035849Y37508000D01*
X82272903Y37555153D01*
X82496202Y37647647D01*
X82697167Y37781927D01*
X82868073Y37952833D01*
X83002353Y38153798D01*
X83094847Y38377097D01*
X83142000Y38614151D01*
X83142000Y38855849D01*
X83094847Y39092903D01*
X83002353Y39316202D01*
X82868073Y39517167D01*
X82697167Y39688073D01*
X82496202Y39822353D01*
X82272903Y39914847D01*
X82035849Y39962000D01*
X81794151Y39962000D01*
X81557097Y39914847D01*
X81333798Y39822353D01*
X81132833Y39688073D01*
X80961927Y39517167D01*
X80827647Y39316202D01*
X80735153Y39092903D01*
X80688000Y38855849D01*
X80688000Y38614151D01*
X80735153Y38377097D01*
X80736894Y38372895D01*
X80350708Y37986709D01*
X80462353Y38153798D01*
X80554847Y38377097D01*
X80602000Y38614151D01*
X80602000Y38855849D01*
X80554847Y39092903D01*
X80462353Y39316202D01*
X80328073Y39517167D01*
X80157167Y39688073D01*
X79956202Y39822353D01*
X79732903Y39914847D01*
X79495849Y39962000D01*
X79254151Y39962000D01*
X79017097Y39914847D01*
X78793798Y39822353D01*
X78592833Y39688073D01*
X78431031Y39526271D01*
X77775939Y40181362D01*
X77757874Y40203374D01*
X77670015Y40275479D01*
X77569776Y40329057D01*
X77505670Y40348503D01*
X77461011Y40362051D01*
X77405945Y40367474D01*
X77376236Y40370400D01*
X77376231Y40370400D01*
X77347900Y40373190D01*
X77319569Y40370400D01*
X76418128Y40370400D01*
X76389799Y40373190D01*
X76361470Y40370400D01*
X76361464Y40370400D01*
X76276688Y40362050D01*
X76167924Y40329057D01*
X76067685Y40275479D01*
X75979826Y40203374D01*
X75961761Y40181362D01*
X75267897Y39487498D01*
X75248073Y39517167D01*
X75077167Y39688073D01*
X74876202Y39822353D01*
X74652903Y39914847D01*
X74415849Y39962000D01*
X74174151Y39962000D01*
X73937097Y39914847D01*
X73932895Y39913106D01*
X73616439Y40229562D01*
X73598374Y40251574D01*
X73510515Y40323679D01*
X73410276Y40377257D01*
X73346170Y40396703D01*
X73301511Y40410251D01*
X73246445Y40415674D01*
X73216736Y40418600D01*
X73216731Y40418600D01*
X73188400Y40421390D01*
X73160069Y40418600D01*
X46516790Y40418600D01*
X46522100Y40445297D01*
X46522100Y40588503D01*
X46494162Y40728958D01*
X46439359Y40861264D01*
X46359798Y40980336D01*
X46258536Y41081598D01*
X46139464Y41161159D01*
X46007158Y41215962D01*
X45866703Y41243900D01*
X45723497Y41243900D01*
X45583042Y41215962D01*
X45450736Y41161159D01*
X45350075Y41093900D01*
X20640528Y41093900D01*
X20612199Y41096690D01*
X20583870Y41093900D01*
X20583864Y41093900D01*
X20499088Y41085550D01*
X20390324Y41052557D01*
X20290085Y40998979D01*
X20267369Y40980336D01*
X20224235Y40944937D01*
X20224233Y40944935D01*
X20202226Y40926874D01*
X20184165Y40904867D01*
X18964079Y39684780D01*
X18928529Y39751289D01*
X18868921Y39823921D01*
X18796289Y39883529D01*
X18713423Y39927822D01*
X18623508Y39955097D01*
X18530000Y39964307D01*
X17306600Y39964307D01*
X17306600Y50145599D01*
X19957895Y52796894D01*
X19962097Y52795153D01*
X20199151Y52748000D01*
X20440849Y52748000D01*
X20677903Y52795153D01*
X20901202Y52887647D01*
X21102167Y53021927D01*
X21273073Y53192833D01*
X21407353Y53393798D01*
X21499847Y53617097D01*
X21547000Y53854151D01*
X21547000Y54095849D01*
X21499847Y54332903D01*
X21442852Y54470500D01*
X21737148Y54470500D01*
X21680153Y54332903D01*
X21633000Y54095849D01*
X21633000Y53854151D01*
X21680153Y53617097D01*
X21772647Y53393798D01*
X21906927Y53192833D01*
X22077833Y53021927D01*
X22278798Y52887647D01*
X22502097Y52795153D01*
X22739151Y52748000D01*
X22980849Y52748000D01*
X23217903Y52795153D01*
X23441202Y52887647D01*
X23642167Y53021927D01*
X23813073Y53192833D01*
X23947353Y53393798D01*
X24039847Y53617097D01*
X24087000Y53854151D01*
X24087000Y54095849D01*
X24039847Y54332903D01*
X23982852Y54470500D01*
X24277148Y54470500D01*
X24220153Y54332903D01*
X24173000Y54095849D01*
X24173000Y53854151D01*
X24220153Y53617097D01*
X24312647Y53393798D01*
X24446927Y53192833D01*
X24617833Y53021927D01*
X24818798Y52887647D01*
X25042097Y52795153D01*
X25279151Y52748000D01*
X25520849Y52748000D01*
X25757903Y52795153D01*
X25762105Y52796894D01*
X26431361Y52127638D01*
X26449426Y52105626D01*
X26537285Y52033521D01*
X26637524Y51979943D01*
X26746288Y51946950D01*
X26831064Y51938600D01*
X26831070Y51938600D01*
X26859399Y51935810D01*
X26887728Y51938600D01*
X34698729Y51938600D01*
X34670441Y51896264D01*
X34615638Y51763958D01*
X34587700Y51623503D01*
X34587700Y51480297D01*
X34615638Y51339842D01*
X34670441Y51207536D01*
X34750002Y51088464D01*
X34851264Y50987202D01*
X34970336Y50907641D01*
X35102642Y50852838D01*
X35243097Y50824900D01*
X35386303Y50824900D01*
X35526758Y50852838D01*
X35659064Y50907641D01*
X35759725Y50974900D01*
X79463569Y50974900D01*
X79491900Y50972110D01*
X79520231Y50974900D01*
X79520236Y50974900D01*
X79549945Y50977826D01*
X79605011Y50983249D01*
X79649670Y50996797D01*
X79713776Y51016243D01*
X79814015Y51069821D01*
X79901874Y51141926D01*
X79919939Y51163938D01*
X81552895Y52796894D01*
X81557097Y52795153D01*
X81794151Y52748000D01*
X82035849Y52748000D01*
X82272903Y52795153D01*
X82496202Y52887647D01*
X82697167Y53021927D01*
X82868073Y53192833D01*
X83002353Y53393798D01*
X83094847Y53617097D01*
X83142000Y53854151D01*
X83142000Y54095849D01*
X83094847Y54332903D01*
X83002353Y54556202D01*
X82868073Y54757167D01*
X82697167Y54928073D01*
X82496202Y55062353D01*
X82272903Y55154847D01*
X82035849Y55202000D01*
X81794151Y55202000D01*
X81557097Y55154847D01*
X81333798Y55062353D01*
X81132833Y54928073D01*
X80961927Y54757167D01*
X80947890Y54736159D01*
X80931879Y54766115D01*
X80859774Y54853974D01*
X80837762Y54872039D01*
X80294839Y55414962D01*
X80276774Y55436974D01*
X80188915Y55509079D01*
X80088676Y55562657D01*
X80024570Y55582103D01*
X79979911Y55595651D01*
X79924845Y55601074D01*
X79895136Y55604000D01*
X79895131Y55604000D01*
X79866800Y55606790D01*
X79838469Y55604000D01*
X77915339Y55604000D01*
X77887000Y55606791D01*
X77773888Y55595651D01*
X77709782Y55576204D01*
X77665124Y55562657D01*
X77564885Y55509079D01*
X77477026Y55436974D01*
X77458961Y55414962D01*
X77197105Y55153106D01*
X77192903Y55154847D01*
X76955849Y55202000D01*
X76714151Y55202000D01*
X76477097Y55154847D01*
X76253798Y55062353D01*
X76052833Y54928073D01*
X75881927Y54757167D01*
X75747647Y54556202D01*
X75655153Y54332903D01*
X75608000Y54095849D01*
X75608000Y53854151D01*
X75655153Y53617097D01*
X75705686Y53495100D01*
X75424314Y53495100D01*
X75474847Y53617097D01*
X75522000Y53854151D01*
X75522000Y54095849D01*
X75474847Y54332903D01*
X75382353Y54556202D01*
X75248073Y54757167D01*
X75077167Y54928073D01*
X74876202Y55062353D01*
X74652903Y55154847D01*
X74415849Y55202000D01*
X74174151Y55202000D01*
X73937097Y55154847D01*
X73932895Y55153106D01*
X73671039Y55414962D01*
X73652974Y55436974D01*
X73565115Y55509079D01*
X73464876Y55562657D01*
X73400770Y55582103D01*
X73356111Y55595651D01*
X73301045Y55601074D01*
X73271336Y55604000D01*
X73271331Y55604000D01*
X73243000Y55606790D01*
X73214669Y55604000D01*
X45266928Y55604000D01*
X45238599Y55606790D01*
X45210270Y55604000D01*
X45210264Y55604000D01*
X45125488Y55595650D01*
X45016724Y55562657D01*
X44916485Y55509079D01*
X44875615Y55475537D01*
X44850635Y55455037D01*
X44850633Y55455035D01*
X44828626Y55436974D01*
X44810565Y55414967D01*
X44359679Y54964080D01*
X44240942Y54940462D01*
X44108636Y54885659D01*
X43989564Y54806098D01*
X43888302Y54704836D01*
X43808741Y54585764D01*
X43753938Y54453458D01*
X43726000Y54313003D01*
X43726000Y54265500D01*
X33802602Y54265500D01*
X32632639Y55435462D01*
X32614574Y55457474D01*
X32526715Y55529579D01*
X32426476Y55583157D01*
X32362370Y55602603D01*
X32317711Y55616151D01*
X32262645Y55621574D01*
X32232936Y55624500D01*
X32232931Y55624500D01*
X32204600Y55627290D01*
X32176269Y55624500D01*
X18880828Y55624500D01*
X18852499Y55627290D01*
X18824170Y55624500D01*
X18824164Y55624500D01*
X18739388Y55616150D01*
X18731584Y55613783D01*
X20495502Y57377700D01*
X25723469Y57377700D01*
X25751800Y57374910D01*
X25780131Y57377700D01*
X25780136Y57377700D01*
X25809845Y57380626D01*
X25864911Y57386049D01*
X25909570Y57399597D01*
X25973676Y57419043D01*
X26073915Y57472621D01*
X26161774Y57544726D01*
X26179839Y57566738D01*
X32511662Y63898561D01*
X32533674Y63916626D01*
X32605779Y64004485D01*
X32643840Y64075693D01*
X34124000Y64075693D01*
X34217508Y64084903D01*
X34307423Y64112178D01*
X34390289Y64156471D01*
X34462921Y64216079D01*
X34522529Y64288711D01*
X34566822Y64371577D01*
X34594097Y64461492D01*
X34603307Y64555000D01*
X34603307Y64860254D01*
X34638028Y64776430D01*
X34783252Y64559087D01*
X34968087Y64374252D01*
X35185430Y64229028D01*
X35426928Y64128996D01*
X35683302Y64078000D01*
X35944698Y64078000D01*
X36143945Y64117633D01*
X39216778Y61044799D01*
X39237973Y61018973D01*
X39263799Y60997778D01*
X39263801Y60997776D01*
X39335776Y60938708D01*
X39341059Y60934372D01*
X39458670Y60871508D01*
X39586285Y60832796D01*
X39685748Y60823000D01*
X39685755Y60823000D01*
X39719000Y60819726D01*
X39752245Y60823000D01*
X50916522Y60823000D01*
X51008089Y60685960D01*
X51185960Y60508089D01*
X51395114Y60368337D01*
X51627513Y60272074D01*
X51874226Y60223000D01*
X52125774Y60223000D01*
X52287424Y60255154D01*
X53077774Y59464804D01*
X53098973Y59438973D01*
X53202059Y59354372D01*
X53319670Y59291508D01*
X53447285Y59252796D01*
X53546748Y59243000D01*
X53546757Y59243000D01*
X53579999Y59239726D01*
X53613241Y59243000D01*
X56976657Y59243000D01*
X57046927Y59137833D01*
X57217833Y58966927D01*
X57418798Y58832647D01*
X57642097Y58740153D01*
X57879151Y58693000D01*
X58120849Y58693000D01*
X58357903Y58740153D01*
X58581202Y58832647D01*
X58782167Y58966927D01*
X58815240Y59000000D01*
X84311928Y59000000D01*
X84324188Y58875518D01*
X84360498Y58755820D01*
X84419463Y58645506D01*
X84498815Y58548815D01*
X84595506Y58469463D01*
X84705820Y58410498D01*
X84825518Y58374188D01*
X84950000Y58361928D01*
X85014250Y58365000D01*
X85173000Y58523750D01*
X85173000Y60373000D01*
X85427000Y60373000D01*
X85427000Y58523750D01*
X85585750Y58365000D01*
X85650000Y58361928D01*
X85774482Y58374188D01*
X85894180Y58410498D01*
X86004494Y58469463D01*
X86101185Y58548815D01*
X86180537Y58645506D01*
X86239502Y58755820D01*
X86275812Y58875518D01*
X86288072Y59000000D01*
X86285000Y60214250D01*
X86126250Y60373000D01*
X85427000Y60373000D01*
X85173000Y60373000D01*
X84473750Y60373000D01*
X84315000Y60214250D01*
X84311928Y59000000D01*
X58815240Y59000000D01*
X58953073Y59137833D01*
X59087353Y59338798D01*
X59179847Y59562097D01*
X59227000Y59799151D01*
X59227000Y60040849D01*
X59179847Y60277903D01*
X59087353Y60501202D01*
X58993077Y60642298D01*
X63686903Y60642298D01*
X63758486Y60398329D01*
X64013996Y60277429D01*
X64288184Y60208700D01*
X64570512Y60194783D01*
X64850130Y60236213D01*
X65116292Y60331397D01*
X65241514Y60398329D01*
X65313097Y60642298D01*
X64500000Y61455395D01*
X63686903Y60642298D01*
X58993077Y60642298D01*
X58953073Y60702167D01*
X58782167Y60873073D01*
X58581202Y61007353D01*
X58357903Y61099847D01*
X58120849Y61147000D01*
X57879151Y61147000D01*
X57642097Y61099847D01*
X57418798Y61007353D01*
X57217833Y60873073D01*
X57046927Y60702167D01*
X56976657Y60597000D01*
X53860422Y60597000D01*
X53244846Y61212576D01*
X53277000Y61374226D01*
X53277000Y61625774D01*
X53227926Y61872487D01*
X53131663Y62104886D01*
X52991911Y62314040D01*
X52814040Y62491911D01*
X52604886Y62631663D01*
X52526300Y62664214D01*
X52616292Y62696397D01*
X52741514Y62763329D01*
X52813097Y63007298D01*
X52000000Y63820395D01*
X51186903Y63007298D01*
X51258486Y62763329D01*
X51470636Y62662945D01*
X51395114Y62631663D01*
X51185960Y62491911D01*
X51008089Y62314040D01*
X50916522Y62177000D01*
X41348801Y62177000D01*
X42849502Y63677700D01*
X43405664Y63677700D01*
X43434000Y63674909D01*
X43462336Y63677700D01*
X43488470Y63680274D01*
X43547112Y63686050D01*
X43655876Y63719043D01*
X43756115Y63772621D01*
X43843974Y63844726D01*
X43913537Y63929488D01*
X50559783Y63929488D01*
X50601213Y63649870D01*
X50696397Y63383708D01*
X50763329Y63258486D01*
X51007298Y63186903D01*
X51820395Y64000000D01*
X52179605Y64000000D01*
X52992702Y63186903D01*
X53236671Y63258486D01*
X53357571Y63513996D01*
X53426300Y63788184D01*
X53440217Y64070512D01*
X53413623Y64250000D01*
X56611928Y64250000D01*
X56624188Y64125518D01*
X56660498Y64005820D01*
X56719463Y63895506D01*
X56798815Y63798815D01*
X56895506Y63719463D01*
X57005820Y63660498D01*
X57125518Y63624188D01*
X57250000Y63611928D01*
X57579966Y63614111D01*
X57418798Y63547353D01*
X57217833Y63413073D01*
X57046927Y63242167D01*
X56912647Y63041202D01*
X56820153Y62817903D01*
X56773000Y62580849D01*
X56773000Y62339151D01*
X56820153Y62102097D01*
X56912647Y61878798D01*
X57046927Y61677833D01*
X57217833Y61506927D01*
X57418798Y61372647D01*
X57642097Y61280153D01*
X57879151Y61233000D01*
X58120849Y61233000D01*
X58357903Y61280153D01*
X58581202Y61372647D01*
X58782167Y61506927D01*
X58839728Y61564488D01*
X63059783Y61564488D01*
X63101213Y61284870D01*
X63196397Y61018708D01*
X63263329Y60893486D01*
X63507298Y60821903D01*
X64320395Y61635000D01*
X64679605Y61635000D01*
X65492702Y60821903D01*
X65736671Y60893486D01*
X65857571Y61148996D01*
X65926300Y61423184D01*
X65940217Y61705512D01*
X65898787Y61985130D01*
X65803603Y62251292D01*
X65736671Y62376514D01*
X65492702Y62448097D01*
X64679605Y61635000D01*
X64320395Y61635000D01*
X63507298Y62448097D01*
X63263329Y62376514D01*
X63142429Y62121004D01*
X63073700Y61846816D01*
X63059783Y61564488D01*
X58839728Y61564488D01*
X58953073Y61677833D01*
X59087353Y61878798D01*
X59179847Y62102097D01*
X59227000Y62339151D01*
X59227000Y62580849D01*
X59202324Y62704902D01*
X59955423Y63458000D01*
X63416522Y63458000D01*
X63508089Y63320960D01*
X63685960Y63143089D01*
X63895114Y63003337D01*
X63973700Y62970786D01*
X63883708Y62938603D01*
X63758486Y62871671D01*
X63686903Y62627702D01*
X64500000Y61814605D01*
X65313097Y62627702D01*
X65241514Y62871671D01*
X65029364Y62972055D01*
X65104886Y63003337D01*
X65314040Y63143089D01*
X65491911Y63320960D01*
X65631663Y63530114D01*
X65649427Y63573000D01*
X70221010Y63573000D01*
X70143996Y63387072D01*
X70093000Y63130698D01*
X70093000Y62869302D01*
X70143996Y62612928D01*
X70244028Y62371430D01*
X70389252Y62154087D01*
X70574087Y61969252D01*
X70791430Y61824028D01*
X71032928Y61723996D01*
X71289302Y61673000D01*
X71550698Y61673000D01*
X71807072Y61723996D01*
X72048570Y61824028D01*
X72265913Y61969252D01*
X72450748Y62154087D01*
X72595972Y62371430D01*
X72690000Y62598433D01*
X72784028Y62371430D01*
X72929252Y62154087D01*
X73114087Y61969252D01*
X73331430Y61824028D01*
X73572928Y61723996D01*
X73829302Y61673000D01*
X74090698Y61673000D01*
X74347072Y61723996D01*
X74588570Y61824028D01*
X74805913Y61969252D01*
X74990748Y62154087D01*
X75135972Y62371430D01*
X75170693Y62455254D01*
X75170693Y62150000D01*
X75179903Y62056492D01*
X75207178Y61966577D01*
X75251471Y61883711D01*
X75311079Y61811079D01*
X75383711Y61751471D01*
X75466577Y61707178D01*
X75556492Y61679903D01*
X75650000Y61670693D01*
X77350000Y61670693D01*
X77443508Y61679903D01*
X77533423Y61707178D01*
X77616289Y61751471D01*
X77688921Y61811079D01*
X77748529Y61883711D01*
X77792822Y61966577D01*
X77820097Y62056492D01*
X77829307Y62150000D01*
X77829307Y62323000D01*
X84402629Y62323000D01*
X84360498Y62244180D01*
X84324188Y62124482D01*
X84311928Y62000000D01*
X84315000Y60785750D01*
X84473750Y60627000D01*
X85173000Y60627000D01*
X85173000Y60647000D01*
X85427000Y60647000D01*
X85427000Y60627000D01*
X86126250Y60627000D01*
X86285000Y60785750D01*
X86288072Y62000000D01*
X86276655Y62115923D01*
X86870693Y61521885D01*
X86870693Y59000000D01*
X86879903Y58906492D01*
X86907178Y58816577D01*
X86951471Y58733711D01*
X87011079Y58661079D01*
X87083711Y58601471D01*
X87166577Y58557178D01*
X87256492Y58529903D01*
X87350000Y58520693D01*
X88050000Y58520693D01*
X88143508Y58529903D01*
X88233423Y58557178D01*
X88316289Y58601471D01*
X88388921Y58661079D01*
X88448529Y58733711D01*
X88492822Y58816577D01*
X88520097Y58906492D01*
X88529307Y59000000D01*
X88529307Y62000000D01*
X88520097Y62093508D01*
X88492822Y62183423D01*
X88448529Y62266289D01*
X88388921Y62338921D01*
X88316289Y62398529D01*
X88233423Y62442822D01*
X88143508Y62470097D01*
X88050000Y62479307D01*
X87828115Y62479307D01*
X86852226Y63455196D01*
X86831027Y63481027D01*
X86727941Y63565628D01*
X86610330Y63628492D01*
X86482715Y63667204D01*
X86383252Y63677000D01*
X86383245Y63677000D01*
X86350000Y63680274D01*
X86316755Y63677000D01*
X77829307Y63677000D01*
X77829307Y63850000D01*
X77820097Y63943508D01*
X77792822Y64033423D01*
X77748529Y64116289D01*
X77688921Y64188921D01*
X77616289Y64248529D01*
X77533423Y64292822D01*
X77443508Y64320097D01*
X77350000Y64329307D01*
X75650000Y64329307D01*
X75556492Y64320097D01*
X75466577Y64292822D01*
X75383711Y64248529D01*
X75311079Y64188921D01*
X75251471Y64116289D01*
X75207178Y64033423D01*
X75179903Y63943508D01*
X75170693Y63850000D01*
X75170693Y63544746D01*
X75135972Y63628570D01*
X74990748Y63845913D01*
X74805913Y64030748D01*
X74588570Y64175972D01*
X74347072Y64276004D01*
X74090698Y64327000D01*
X73829302Y64327000D01*
X73630055Y64287367D01*
X73212226Y64705196D01*
X73191027Y64731027D01*
X73087941Y64815628D01*
X72970330Y64878492D01*
X72842715Y64917204D01*
X72743252Y64927000D01*
X72743245Y64927000D01*
X72710000Y64930274D01*
X72676755Y64927000D01*
X65506638Y64927000D01*
X65491911Y64949040D01*
X65314040Y65126911D01*
X65104886Y65266663D01*
X64872487Y65362926D01*
X64625774Y65412000D01*
X64374226Y65412000D01*
X64127513Y65362926D01*
X63895114Y65266663D01*
X63685960Y65126911D01*
X63508089Y64949040D01*
X63416522Y64812000D01*
X59708252Y64812000D01*
X59675000Y64815275D01*
X59542285Y64802204D01*
X59414670Y64763492D01*
X59363245Y64736005D01*
X59226250Y64873000D01*
X58127000Y64873000D01*
X58127000Y64853000D01*
X57873000Y64853000D01*
X57873000Y64873000D01*
X56773750Y64873000D01*
X56615000Y64714250D01*
X56611928Y64250000D01*
X53413623Y64250000D01*
X53398787Y64350130D01*
X53303603Y64616292D01*
X53236671Y64741514D01*
X52992702Y64813097D01*
X52179605Y64000000D01*
X51820395Y64000000D01*
X51007298Y64813097D01*
X50763329Y64741514D01*
X50642429Y64486004D01*
X50573700Y64211816D01*
X50559783Y63929488D01*
X43913537Y63929488D01*
X43916079Y63932585D01*
X43969657Y64032824D01*
X44002650Y64141588D01*
X44009080Y64206872D01*
X44062570Y64229028D01*
X44279913Y64374252D01*
X44464748Y64559087D01*
X44609972Y64776430D01*
X44704000Y65003433D01*
X44798028Y64776430D01*
X44943252Y64559087D01*
X45128087Y64374252D01*
X45345430Y64229028D01*
X45586928Y64128996D01*
X45843302Y64078000D01*
X46104698Y64078000D01*
X46361072Y64128996D01*
X46602570Y64229028D01*
X46819913Y64374252D01*
X47004748Y64559087D01*
X47149972Y64776430D01*
X47239555Y64992702D01*
X51186903Y64992702D01*
X52000000Y64179605D01*
X52813097Y64992702D01*
X52741514Y65236671D01*
X52486004Y65357571D01*
X52211816Y65426300D01*
X51929488Y65440217D01*
X51649870Y65398787D01*
X51383708Y65303603D01*
X51258486Y65236671D01*
X51186903Y64992702D01*
X47239555Y64992702D01*
X47250004Y65017928D01*
X47301000Y65274302D01*
X47301000Y65535698D01*
X47258373Y65750000D01*
X56611928Y65750000D01*
X56615000Y65285750D01*
X56773750Y65127000D01*
X57873000Y65127000D01*
X57873000Y66226250D01*
X58127000Y66226250D01*
X58127000Y65127000D01*
X59226250Y65127000D01*
X59385000Y65285750D01*
X59388072Y65750000D01*
X59375812Y65874482D01*
X59339502Y65994180D01*
X59280537Y66104494D01*
X59201185Y66201185D01*
X59104494Y66280537D01*
X58994180Y66339502D01*
X58874482Y66375812D01*
X58750000Y66388072D01*
X58285750Y66385000D01*
X58127000Y66226250D01*
X57873000Y66226250D01*
X57714250Y66385000D01*
X57250000Y66388072D01*
X57125518Y66375812D01*
X57005820Y66339502D01*
X56895506Y66280537D01*
X56798815Y66201185D01*
X56719463Y66104494D01*
X56660498Y65994180D01*
X56624188Y65874482D01*
X56611928Y65750000D01*
X47258373Y65750000D01*
X47250004Y65792072D01*
X47149972Y66033570D01*
X47004748Y66250913D01*
X46819913Y66435748D01*
X46801589Y66447992D01*
X81773000Y66447992D01*
X81773000Y65552007D01*
X81787138Y65408475D01*
X81843004Y65224309D01*
X81933725Y65054582D01*
X82055815Y64905814D01*
X82204583Y64783724D01*
X82374310Y64693003D01*
X82558476Y64637137D01*
X82750000Y64618273D01*
X82941525Y64637137D01*
X83125691Y64693003D01*
X83295418Y64783724D01*
X83444186Y64905814D01*
X83566276Y65054582D01*
X83656997Y65224309D01*
X83712863Y65408476D01*
X83727000Y65552008D01*
X83727000Y66447992D01*
X89173000Y66447992D01*
X89173000Y65552007D01*
X89187138Y65408475D01*
X89243004Y65224309D01*
X89333725Y65054582D01*
X89455815Y64905814D01*
X89604583Y64783724D01*
X89774310Y64693003D01*
X89958476Y64637137D01*
X90150000Y64618273D01*
X90341525Y64637137D01*
X90525691Y64693003D01*
X90695418Y64783724D01*
X90844186Y64905814D01*
X90966276Y65054582D01*
X91056997Y65224309D01*
X91112863Y65408476D01*
X91127000Y65552008D01*
X91127000Y66447993D01*
X91112863Y66591525D01*
X91056997Y66775691D01*
X90966276Y66945418D01*
X90844186Y67094186D01*
X90709686Y67204567D01*
X94923000Y67204567D01*
X94923000Y66795433D01*
X95002818Y66394161D01*
X95159386Y66016171D01*
X95386689Y65675989D01*
X95675989Y65386689D01*
X96016171Y65159386D01*
X96394161Y65002818D01*
X96795433Y64923000D01*
X97204567Y64923000D01*
X97605839Y65002818D01*
X97983829Y65159386D01*
X98324011Y65386689D01*
X98613311Y65675989D01*
X98840614Y66016171D01*
X98997182Y66394161D01*
X99077000Y66795433D01*
X99077000Y67204567D01*
X98997182Y67605839D01*
X98840614Y67983829D01*
X98613311Y68324011D01*
X98324011Y68613311D01*
X97983829Y68840614D01*
X97605839Y68997182D01*
X97204567Y69077000D01*
X96795433Y69077000D01*
X96394161Y68997182D01*
X96016171Y68840614D01*
X95675989Y68613311D01*
X95386689Y68324011D01*
X95159386Y67983829D01*
X95002818Y67605839D01*
X94923000Y67204567D01*
X90709686Y67204567D01*
X90695418Y67216276D01*
X90525690Y67306997D01*
X90341524Y67362863D01*
X90150000Y67381727D01*
X89958475Y67362863D01*
X89774309Y67306997D01*
X89604582Y67216276D01*
X89455814Y67094186D01*
X89333724Y66945418D01*
X89243003Y66775690D01*
X89187137Y66591524D01*
X89173000Y66447992D01*
X83727000Y66447992D01*
X83727000Y66447993D01*
X83712863Y66591525D01*
X83656997Y66775691D01*
X83566276Y66945418D01*
X83444186Y67094186D01*
X83295418Y67216276D01*
X83125690Y67306997D01*
X82941524Y67362863D01*
X82750000Y67381727D01*
X82558475Y67362863D01*
X82374309Y67306997D01*
X82204582Y67216276D01*
X82055814Y67094186D01*
X81933724Y66945418D01*
X81843003Y66775690D01*
X81787137Y66591524D01*
X81773000Y66447992D01*
X46801589Y66447992D01*
X46602570Y66580972D01*
X46361072Y66681004D01*
X46104698Y66732000D01*
X45843302Y66732000D01*
X45586928Y66681004D01*
X45345430Y66580972D01*
X45128087Y66435748D01*
X44943252Y66250913D01*
X44798028Y66033570D01*
X44704000Y65806567D01*
X44609972Y66033570D01*
X44464748Y66250913D01*
X44279913Y66435748D01*
X44062570Y66580972D01*
X43821072Y66681004D01*
X43564698Y66732000D01*
X43303302Y66732000D01*
X43046928Y66681004D01*
X42805430Y66580972D01*
X42588087Y66435748D01*
X42403252Y66250913D01*
X42258028Y66033570D01*
X42164000Y65806567D01*
X42069972Y66033570D01*
X41924748Y66250913D01*
X41739913Y66435748D01*
X41522570Y66580972D01*
X41281072Y66681004D01*
X41024698Y66732000D01*
X40763302Y66732000D01*
X40506928Y66681004D01*
X40265430Y66580972D01*
X40048087Y66435748D01*
X39863252Y66250913D01*
X39718028Y66033570D01*
X39707836Y66008965D01*
X39698157Y66036252D01*
X39549178Y66286355D01*
X39354269Y66502588D01*
X39120920Y66676641D01*
X38858099Y66801825D01*
X38710890Y66846476D01*
X38481000Y66725155D01*
X38481000Y65532000D01*
X38501000Y65532000D01*
X38501000Y65278000D01*
X38481000Y65278000D01*
X38481000Y64084845D01*
X38710890Y63963524D01*
X38858099Y64008175D01*
X39120920Y64133359D01*
X39354269Y64307412D01*
X39549178Y64523645D01*
X39698157Y64773748D01*
X39707836Y64801035D01*
X39718028Y64776430D01*
X39863252Y64559087D01*
X40048087Y64374252D01*
X40265430Y64229028D01*
X40303965Y64213066D01*
X40132679Y64041780D01*
X40013942Y64018162D01*
X39881636Y63963359D01*
X39762564Y63883798D01*
X39661302Y63782536D01*
X39581741Y63663464D01*
X39526938Y63531158D01*
X39499000Y63390703D01*
X39499000Y63247497D01*
X39526938Y63107042D01*
X39581741Y62974736D01*
X39661302Y62855664D01*
X39762564Y62754402D01*
X39881636Y62674841D01*
X39967105Y62639439D01*
X39949902Y62622236D01*
X39870341Y62503164D01*
X39815538Y62370858D01*
X39813883Y62362540D01*
X38138357Y64038065D01*
X38227000Y64084845D01*
X38227000Y65278000D01*
X38207000Y65278000D01*
X38207000Y65532000D01*
X38227000Y65532000D01*
X38227000Y66725155D01*
X37997110Y66846476D01*
X37849901Y66801825D01*
X37587080Y66676641D01*
X37353731Y66502588D01*
X37158822Y66286355D01*
X37009843Y66036252D01*
X37000164Y66008965D01*
X36989972Y66033570D01*
X36844748Y66250913D01*
X36659913Y66435748D01*
X36442570Y66580972D01*
X36201072Y66681004D01*
X35944698Y66732000D01*
X35683302Y66732000D01*
X35484055Y66692367D01*
X35066226Y67110196D01*
X35045027Y67136027D01*
X34941941Y67220628D01*
X34824330Y67283492D01*
X34696715Y67322204D01*
X34597252Y67332000D01*
X34597245Y67332000D01*
X34564000Y67335274D01*
X34530755Y67332000D01*
X29223241Y67332000D01*
X29189999Y67335274D01*
X29156757Y67332000D01*
X29156748Y67332000D01*
X29057285Y67322204D01*
X28929670Y67283492D01*
X28913278Y67274730D01*
X28700774Y67317000D01*
X28449226Y67317000D01*
X28202513Y67267926D01*
X27970114Y67171663D01*
X27760960Y67031911D01*
X27583089Y66854040D01*
X27443337Y66644886D01*
X27347074Y66412487D01*
X27298000Y66165774D01*
X27298000Y65914226D01*
X27347074Y65667513D01*
X27443337Y65435114D01*
X27583089Y65225960D01*
X27760960Y65048089D01*
X27898000Y64956522D01*
X27898001Y63145424D01*
X26196254Y61443676D01*
X26205217Y61625512D01*
X26163787Y61905130D01*
X26068603Y62171292D01*
X26001671Y62296514D01*
X25757702Y62368097D01*
X24944605Y61555000D01*
X24958748Y61540857D01*
X24779143Y61361252D01*
X24765000Y61375395D01*
X23951903Y60562298D01*
X24018798Y60334307D01*
X23965000Y60334307D01*
X23871492Y60325097D01*
X23781577Y60297822D01*
X23698711Y60253529D01*
X23626079Y60193921D01*
X23566471Y60121289D01*
X23522178Y60038423D01*
X23494903Y59948508D01*
X23485693Y59855000D01*
X23485693Y59732000D01*
X15273241Y59732000D01*
X15239999Y59735274D01*
X15206757Y59732000D01*
X15206748Y59732000D01*
X15107285Y59722204D01*
X14979670Y59683492D01*
X14862059Y59620628D01*
X14758973Y59536027D01*
X14737776Y59510198D01*
X12776700Y57549122D01*
X12776700Y61229399D01*
X13722962Y62175661D01*
X13744974Y62193726D01*
X13817079Y62281585D01*
X13870657Y62381824D01*
X13886597Y62434372D01*
X13903651Y62490588D01*
X13910081Y62555872D01*
X13963570Y62578028D01*
X14180913Y62723252D01*
X14365748Y62908087D01*
X14510972Y63125430D01*
X14605000Y63352433D01*
X14699028Y63125430D01*
X14844252Y62908087D01*
X15029087Y62723252D01*
X15246430Y62578028D01*
X15487928Y62477996D01*
X15744302Y62427000D01*
X16005698Y62427000D01*
X16262072Y62477996D01*
X16503570Y62578028D01*
X16720913Y62723252D01*
X16905748Y62908087D01*
X17050972Y63125430D01*
X17151004Y63366928D01*
X17202000Y63623302D01*
X17202000Y63884698D01*
X17151004Y64141072D01*
X17050972Y64382570D01*
X16905748Y64599913D01*
X16720913Y64784748D01*
X16503570Y64929972D01*
X16262072Y65030004D01*
X16005698Y65081000D01*
X15744302Y65081000D01*
X15487928Y65030004D01*
X15246430Y64929972D01*
X15029087Y64784748D01*
X14844252Y64599913D01*
X14699028Y64382570D01*
X14605000Y64155567D01*
X14510972Y64382570D01*
X14365748Y64599913D01*
X14180913Y64784748D01*
X13963570Y64929972D01*
X13722072Y65030004D01*
X13465698Y65081000D01*
X13204302Y65081000D01*
X12947928Y65030004D01*
X12706430Y64929972D01*
X12489087Y64784748D01*
X12304252Y64599913D01*
X12282876Y64567921D01*
X12283072Y64604000D01*
X12270812Y64728482D01*
X12234502Y64848180D01*
X12175537Y64958494D01*
X12096185Y65055185D01*
X11999494Y65134537D01*
X11889180Y65193502D01*
X11769482Y65229812D01*
X11645000Y65242072D01*
X11080750Y65239000D01*
X10922000Y65080250D01*
X10922000Y63881000D01*
X10942000Y63881000D01*
X10942000Y63627000D01*
X10922000Y63627000D01*
X10922000Y62427750D01*
X11080750Y62269000D01*
X11645000Y62265928D01*
X11769482Y62278188D01*
X11889180Y62314498D01*
X11999494Y62373463D01*
X12096185Y62452815D01*
X12175537Y62549506D01*
X12234502Y62659820D01*
X12270812Y62779518D01*
X12283072Y62904000D01*
X12282876Y62940079D01*
X12304252Y62908087D01*
X12489087Y62723252D01*
X12578684Y62663385D01*
X11811734Y61896435D01*
X11789727Y61878374D01*
X11771666Y61856367D01*
X11771663Y61856364D01*
X11748540Y61828188D01*
X11717622Y61790515D01*
X11673078Y61707178D01*
X11664044Y61690276D01*
X11631049Y61581511D01*
X11619910Y61468400D01*
X11622701Y61440059D01*
X11622700Y38147165D01*
X11619003Y38147900D01*
X11475797Y38147900D01*
X11335342Y38119962D01*
X11203036Y38065159D01*
X11083964Y37985598D01*
X10982702Y37884336D01*
X10903141Y37765264D01*
X10848338Y37632958D01*
X10824720Y37514222D01*
X8650138Y35339639D01*
X8628126Y35321574D01*
X8556021Y35233714D01*
X8502443Y35133475D01*
X8492152Y35099551D01*
X8469449Y35024711D01*
X8463740Y34966743D01*
X8461186Y34940800D01*
X8458310Y34911600D01*
X8461100Y34883269D01*
X8461101Y16047841D01*
X8458310Y16019500D01*
X8469449Y15906389D01*
X8500016Y15805628D01*
X8502444Y15797624D01*
X8556022Y15697385D01*
X8586940Y15659712D01*
X8610063Y15631536D01*
X8610066Y15631533D01*
X8628127Y15609526D01*
X8650134Y15591465D01*
X18294469Y5947130D01*
X18273252Y5925913D01*
X18128028Y5708570D01*
X18034000Y5481567D01*
X17939972Y5708570D01*
X17794748Y5925913D01*
X17609913Y6110748D01*
X17392570Y6255972D01*
X17151072Y6356004D01*
X16894698Y6407000D01*
X16633302Y6407000D01*
X16376928Y6356004D01*
X16135430Y6255972D01*
X15918087Y6110748D01*
X15733252Y5925913D01*
X15588028Y5708570D01*
X15554748Y5628224D01*
X15487412Y5648650D01*
X15468528Y5650510D01*
X15422128Y5655080D01*
X15399972Y5708570D01*
X15254748Y5925913D01*
X15069913Y6110748D01*
X14852570Y6255972D01*
X14611072Y6356004D01*
X14354698Y6407000D01*
X14093302Y6407000D01*
X13836928Y6356004D01*
X13595430Y6255972D01*
X13378087Y6110748D01*
X13193252Y5925913D01*
X13048028Y5708570D01*
X12947996Y5467072D01*
X12897000Y5210698D01*
X12897000Y4949302D01*
X12947996Y4692928D01*
X13048028Y4451430D01*
X13193252Y4234087D01*
X13378087Y4049252D01*
X13595430Y3904028D01*
X13679254Y3869307D01*
X13374000Y3869307D01*
X13280492Y3860097D01*
X13190577Y3832822D01*
X13107711Y3788529D01*
X13035079Y3728921D01*
X12975471Y3656289D01*
X12931178Y3573423D01*
X12903903Y3483508D01*
X12894693Y3390000D01*
X12894693Y1690000D01*
X12903903Y1596492D01*
X12931178Y1506577D01*
X12975471Y1423711D01*
X13035079Y1351079D01*
X13107711Y1291471D01*
X13190577Y1247178D01*
X13280492Y1219903D01*
X13374000Y1210693D01*
X15074000Y1210693D01*
X15167508Y1219903D01*
X15257423Y1247178D01*
X15340289Y1291471D01*
X15412921Y1351079D01*
X15433971Y1376728D01*
X16183699Y627000D01*
X627000Y627000D01*
X627000Y3204567D01*
X923000Y3204567D01*
X923000Y2795433D01*
X1002818Y2394161D01*
X1159386Y2016171D01*
X1386689Y1675989D01*
X1675989Y1386689D01*
X2016171Y1159386D01*
X2394161Y1002818D01*
X2795433Y923000D01*
X3204567Y923000D01*
X3605839Y1002818D01*
X3983829Y1159386D01*
X4324011Y1386689D01*
X4613311Y1675989D01*
X4840614Y2016171D01*
X4997182Y2394161D01*
X5077000Y2795433D01*
X5077000Y3204567D01*
X4997182Y3605839D01*
X4840614Y3983829D01*
X4613311Y4324011D01*
X4324011Y4613311D01*
X3983829Y4840614D01*
X3605839Y4997182D01*
X3204567Y5077000D01*
X2795433Y5077000D01*
X2394161Y4997182D01*
X2016171Y4840614D01*
X1675989Y4613311D01*
X1386689Y4324011D01*
X1159386Y3983829D01*
X1002818Y3605839D01*
X923000Y3204567D01*
X627000Y3204567D01*
X627000Y18065961D01*
X3688096Y18065961D01*
X3728754Y17931913D01*
X3848963Y17677580D01*
X4016481Y17451586D01*
X4224869Y17262615D01*
X4466119Y17117930D01*
X4730960Y17023091D01*
X4953000Y17144376D01*
X4953000Y18288000D01*
X5207000Y18288000D01*
X5207000Y17144376D01*
X5429040Y17023091D01*
X5693881Y17117930D01*
X5935131Y17262615D01*
X6143519Y17451586D01*
X6311037Y17677580D01*
X6431246Y17931913D01*
X6471904Y18065961D01*
X6349915Y18288000D01*
X5207000Y18288000D01*
X4953000Y18288000D01*
X3810085Y18288000D01*
X3688096Y18065961D01*
X627000Y18065961D01*
X627000Y18764039D01*
X3688096Y18764039D01*
X3810085Y18542000D01*
X4953000Y18542000D01*
X4953000Y19685624D01*
X5207000Y19685624D01*
X5207000Y18542000D01*
X6349915Y18542000D01*
X6471904Y18764039D01*
X6431246Y18898087D01*
X6311037Y19152420D01*
X6143519Y19378414D01*
X5935131Y19567385D01*
X5693881Y19712070D01*
X5429040Y19806909D01*
X5207000Y19685624D01*
X4953000Y19685624D01*
X4730960Y19806909D01*
X4466119Y19712070D01*
X4224869Y19567385D01*
X4016481Y19378414D01*
X3848963Y19152420D01*
X3728754Y18898087D01*
X3688096Y18764039D01*
X627000Y18764039D01*
X627000Y28892391D01*
X3886538Y28892391D01*
X3911215Y28811029D01*
X4011508Y28590676D01*
X4152863Y28394124D01*
X4329847Y28228925D01*
X4535659Y28101428D01*
X4762390Y28016533D01*
X4953000Y28140291D01*
X4953000Y29083000D01*
X5207000Y29083000D01*
X5207000Y28140291D01*
X5397610Y28016533D01*
X5624341Y28101428D01*
X5830153Y28228925D01*
X6007137Y28394124D01*
X6148492Y28590676D01*
X6248785Y28811029D01*
X6273462Y28892391D01*
X6148731Y29083000D01*
X5207000Y29083000D01*
X4953000Y29083000D01*
X4011269Y29083000D01*
X3886538Y28892391D01*
X627000Y28892391D01*
X627000Y29527609D01*
X3886538Y29527609D01*
X4011269Y29337000D01*
X4953000Y29337000D01*
X4953000Y30279709D01*
X5207000Y30279709D01*
X5207000Y29337000D01*
X6148731Y29337000D01*
X6273462Y29527609D01*
X6248785Y29608971D01*
X6148492Y29829324D01*
X6007137Y30025876D01*
X5830153Y30191075D01*
X5624341Y30318572D01*
X5397610Y30403467D01*
X5207000Y30279709D01*
X4953000Y30279709D01*
X4762390Y30403467D01*
X4535659Y30318572D01*
X4329847Y30191075D01*
X4152863Y30025876D01*
X4011508Y29829324D01*
X3911215Y29608971D01*
X3886538Y29527609D01*
X627000Y29527609D01*
X627000Y62904000D01*
X9306928Y62904000D01*
X9319188Y62779518D01*
X9355498Y62659820D01*
X9414463Y62549506D01*
X9493815Y62452815D01*
X9590506Y62373463D01*
X9700820Y62314498D01*
X9820518Y62278188D01*
X9945000Y62265928D01*
X10509250Y62269000D01*
X10668000Y62427750D01*
X10668000Y63627000D01*
X9468750Y63627000D01*
X9310000Y63468250D01*
X9306928Y62904000D01*
X627000Y62904000D01*
X627000Y64604000D01*
X9306928Y64604000D01*
X9310000Y64039750D01*
X9468750Y63881000D01*
X10668000Y63881000D01*
X10668000Y65080250D01*
X10509250Y65239000D01*
X9945000Y65242072D01*
X9820518Y65229812D01*
X9700820Y65193502D01*
X9590506Y65134537D01*
X9493815Y65055185D01*
X9414463Y64958494D01*
X9355498Y64848180D01*
X9319188Y64728482D01*
X9306928Y64604000D01*
X627000Y64604000D01*
X627000Y67204567D01*
X923000Y67204567D01*
X923000Y66795433D01*
X1002818Y66394161D01*
X1159386Y66016171D01*
X1386689Y65675989D01*
X1675989Y65386689D01*
X2016171Y65159386D01*
X2394161Y65002818D01*
X2795433Y64923000D01*
X3204567Y64923000D01*
X3605839Y65002818D01*
X3983829Y65159386D01*
X4324011Y65386689D01*
X4613311Y65675989D01*
X4840614Y66016171D01*
X4902581Y66165774D01*
X19678000Y66165774D01*
X19678000Y65914226D01*
X19727074Y65667513D01*
X19823337Y65435114D01*
X19963089Y65225960D01*
X20140960Y65048089D01*
X20350114Y64908337D01*
X20582513Y64812074D01*
X20829226Y64763000D01*
X21080774Y64763000D01*
X21327487Y64812074D01*
X21355374Y64823625D01*
X22353500Y63825499D01*
X22353501Y61331326D01*
X22286241Y61230664D01*
X22231438Y61098358D01*
X22203500Y60957903D01*
X22203500Y60814697D01*
X22231438Y60674242D01*
X22286241Y60541936D01*
X22365802Y60422864D01*
X22467064Y60321602D01*
X22586136Y60242041D01*
X22718442Y60187238D01*
X22858897Y60159300D01*
X23002103Y60159300D01*
X23142558Y60187238D01*
X23274864Y60242041D01*
X23393936Y60321602D01*
X23495198Y60422864D01*
X23574759Y60541936D01*
X23629562Y60674242D01*
X23650149Y60777743D01*
X23772298Y60741903D01*
X24585395Y61555000D01*
X23772298Y62368097D01*
X23528329Y62296514D01*
X23507500Y62252494D01*
X23507500Y62547702D01*
X23951903Y62547702D01*
X24765000Y61734605D01*
X25578097Y62547702D01*
X25506514Y62791671D01*
X25251004Y62912571D01*
X24976816Y62981300D01*
X24694488Y62995217D01*
X24414870Y62953787D01*
X24148708Y62858603D01*
X24023486Y62791671D01*
X23951903Y62547702D01*
X23507500Y62547702D01*
X23507500Y64036169D01*
X23510290Y64064500D01*
X23506774Y64100211D01*
X23504281Y64125518D01*
X23499151Y64177612D01*
X23471818Y64267714D01*
X23466157Y64286376D01*
X23412579Y64386615D01*
X23340474Y64474474D01*
X23318463Y64492538D01*
X22171375Y65639626D01*
X22182926Y65667513D01*
X22232000Y65914226D01*
X22232000Y66165774D01*
X22182926Y66412487D01*
X22086663Y66644886D01*
X21946911Y66854040D01*
X21769040Y67031911D01*
X21559886Y67171663D01*
X21327487Y67267926D01*
X21080774Y67317000D01*
X20829226Y67317000D01*
X20582513Y67267926D01*
X20350114Y67171663D01*
X20140960Y67031911D01*
X19963089Y66854040D01*
X19823337Y66644886D01*
X19727074Y66412487D01*
X19678000Y66165774D01*
X4902581Y66165774D01*
X4997182Y66394161D01*
X5077000Y66795433D01*
X5077000Y67204567D01*
X4997182Y67605839D01*
X4840614Y67983829D01*
X4613311Y68324011D01*
X4324011Y68613311D01*
X3983829Y68840614D01*
X3605839Y68997182D01*
X3204567Y69077000D01*
X2795433Y69077000D01*
X2394161Y68997182D01*
X2016171Y68840614D01*
X1675989Y68613311D01*
X1386689Y68324011D01*
X1159386Y67983829D01*
X1002818Y67605839D01*
X923000Y67204567D01*
X627000Y67204567D01*
X627000Y69373000D01*
X99373000Y69373000D01*
X99373000Y627000D01*
G37*
G04 #@! TD.AperFunction*
D27*
X54621478Y19669664D02*
X54694498Y19428949D01*
X54813076Y19207104D01*
X54972657Y19012656D01*
X55163001Y18856444D01*
X55163000Y16323478D01*
X55025960Y16231911D01*
X54848089Y16054040D01*
X54708337Y15844886D01*
X54675786Y15766300D01*
X54643603Y15856292D01*
X54576671Y15981514D01*
X54332702Y16053097D01*
X53519605Y15240000D01*
X53533748Y15225857D01*
X53354143Y15046252D01*
X53340000Y15060395D01*
X52526903Y14247298D01*
X52598486Y14003329D01*
X52853996Y13882429D01*
X53128184Y13813700D01*
X53410512Y13799783D01*
X53447900Y13805323D01*
X51749578Y12107000D01*
X46168478Y12107000D01*
X46076911Y12244040D01*
X45899040Y12421911D01*
X45689886Y12561663D01*
X45457487Y12657926D01*
X45210774Y12707000D01*
X44959226Y12707000D01*
X44712513Y12657926D01*
X44480114Y12561663D01*
X44270960Y12421911D01*
X44093089Y12244040D01*
X44001522Y12107000D01*
X42358478Y12107000D01*
X42266911Y12244040D01*
X42089040Y12421911D01*
X41879886Y12561663D01*
X41647487Y12657926D01*
X41400774Y12707000D01*
X41149226Y12707000D01*
X40902513Y12657926D01*
X40670114Y12561663D01*
X40581210Y12502259D01*
X40522500Y12590125D01*
X40522500Y12806199D01*
X46107967Y18391665D01*
X46129974Y18409726D01*
X46148038Y18431736D01*
X46193046Y18486579D01*
X46202079Y18497585D01*
X46255657Y18597824D01*
X46288650Y18706588D01*
X46295864Y18779831D01*
X46432896Y18853076D01*
X46627344Y19012656D01*
X46786924Y19207104D01*
X46905502Y19428949D01*
X46978522Y19669664D01*
X46990000Y19786202D01*
X47001478Y19669664D01*
X47074498Y19428949D01*
X47193076Y19207104D01*
X47352657Y19012656D01*
X47500787Y18891089D01*
X42574579Y13964880D01*
X42455842Y13941262D01*
X42323536Y13886459D01*
X42204464Y13806898D01*
X42103202Y13705636D01*
X42023641Y13586564D01*
X41968838Y13454258D01*
X41940900Y13313803D01*
X41940900Y13170597D01*
X41968838Y13030142D01*
X42023641Y12897836D01*
X42103202Y12778764D01*
X42204464Y12677502D01*
X42323536Y12597941D01*
X42455842Y12543138D01*
X42596297Y12515200D01*
X42739503Y12515200D01*
X42879958Y12543138D01*
X43012264Y12597941D01*
X43131336Y12677502D01*
X43232598Y12778764D01*
X43312159Y12897836D01*
X43366962Y13030142D01*
X43390580Y13148879D01*
X45411189Y15169488D01*
X51899783Y15169488D01*
X51941213Y14889870D01*
X52036397Y14623708D01*
X52103329Y14498486D01*
X52347298Y14426903D01*
X53160395Y15240000D01*
X52347298Y16053097D01*
X52103329Y15981514D01*
X51982429Y15726004D01*
X51913700Y15451816D01*
X51899783Y15169488D01*
X45411189Y15169488D01*
X46474403Y16232702D01*
X52526903Y16232702D01*
X53340000Y15419605D01*
X54153097Y16232702D01*
X54081514Y16476671D01*
X53826004Y16597571D01*
X53551816Y16666300D01*
X53269488Y16680217D01*
X52989870Y16638787D01*
X52723708Y16543603D01*
X52598486Y16476671D01*
X52526903Y16232702D01*
X46474403Y16232702D01*
X48576117Y18334415D01*
X48582115Y18337621D01*
X48669974Y18409726D01*
X48742079Y18497585D01*
X48795657Y18597824D01*
X48828650Y18706588D01*
X48835864Y18779831D01*
X48972896Y18853076D01*
X49167344Y19012656D01*
X49326924Y19207104D01*
X49445502Y19428949D01*
X49518522Y19669664D01*
X49530000Y19786202D01*
X49541478Y19669664D01*
X49614498Y19428949D01*
X49733076Y19207104D01*
X49892657Y19012656D01*
X50087105Y18853076D01*
X50308950Y18734498D01*
X50549665Y18661478D01*
X50800000Y18636822D01*
X51050336Y18661478D01*
X51291051Y18734498D01*
X51512896Y18853076D01*
X51707344Y19012656D01*
X51866924Y19207104D01*
X51985502Y19428949D01*
X52058522Y19669664D01*
X52070000Y19786202D01*
X52081478Y19669664D01*
X52154498Y19428949D01*
X52273076Y19207104D01*
X52432657Y19012656D01*
X52627105Y18853076D01*
X52848950Y18734498D01*
X53089665Y18661478D01*
X53340000Y18636822D01*
X53590336Y18661478D01*
X53831051Y18734498D01*
X54052896Y18853076D01*
X54247344Y19012656D01*
X54406924Y19207104D01*
X54525502Y19428949D01*
X54598522Y19669664D01*
X54610000Y19786202D01*
X54621478Y19669664D01*
G04 #@! TA.AperFunction,Conductor*
D28*
G36*
X54621478Y19669664D02*
G01*
X54694498Y19428949D01*
X54813076Y19207104D01*
X54972657Y19012656D01*
X55163001Y18856444D01*
X55163000Y16323478D01*
X55025960Y16231911D01*
X54848089Y16054040D01*
X54708337Y15844886D01*
X54675786Y15766300D01*
X54643603Y15856292D01*
X54576671Y15981514D01*
X54332702Y16053097D01*
X53519605Y15240000D01*
X53533748Y15225857D01*
X53354143Y15046252D01*
X53340000Y15060395D01*
X52526903Y14247298D01*
X52598486Y14003329D01*
X52853996Y13882429D01*
X53128184Y13813700D01*
X53410512Y13799783D01*
X53447900Y13805323D01*
X51749578Y12107000D01*
X46168478Y12107000D01*
X46076911Y12244040D01*
X45899040Y12421911D01*
X45689886Y12561663D01*
X45457487Y12657926D01*
X45210774Y12707000D01*
X44959226Y12707000D01*
X44712513Y12657926D01*
X44480114Y12561663D01*
X44270960Y12421911D01*
X44093089Y12244040D01*
X44001522Y12107000D01*
X42358478Y12107000D01*
X42266911Y12244040D01*
X42089040Y12421911D01*
X41879886Y12561663D01*
X41647487Y12657926D01*
X41400774Y12707000D01*
X41149226Y12707000D01*
X40902513Y12657926D01*
X40670114Y12561663D01*
X40581210Y12502259D01*
X40522500Y12590125D01*
X40522500Y12806199D01*
X46107967Y18391665D01*
X46129974Y18409726D01*
X46148038Y18431736D01*
X46193046Y18486579D01*
X46202079Y18497585D01*
X46255657Y18597824D01*
X46288650Y18706588D01*
X46295864Y18779831D01*
X46432896Y18853076D01*
X46627344Y19012656D01*
X46786924Y19207104D01*
X46905502Y19428949D01*
X46978522Y19669664D01*
X46990000Y19786202D01*
X47001478Y19669664D01*
X47074498Y19428949D01*
X47193076Y19207104D01*
X47352657Y19012656D01*
X47500787Y18891089D01*
X42574579Y13964880D01*
X42455842Y13941262D01*
X42323536Y13886459D01*
X42204464Y13806898D01*
X42103202Y13705636D01*
X42023641Y13586564D01*
X41968838Y13454258D01*
X41940900Y13313803D01*
X41940900Y13170597D01*
X41968838Y13030142D01*
X42023641Y12897836D01*
X42103202Y12778764D01*
X42204464Y12677502D01*
X42323536Y12597941D01*
X42455842Y12543138D01*
X42596297Y12515200D01*
X42739503Y12515200D01*
X42879958Y12543138D01*
X43012264Y12597941D01*
X43131336Y12677502D01*
X43232598Y12778764D01*
X43312159Y12897836D01*
X43366962Y13030142D01*
X43390580Y13148879D01*
X45411189Y15169488D01*
X51899783Y15169488D01*
X51941213Y14889870D01*
X52036397Y14623708D01*
X52103329Y14498486D01*
X52347298Y14426903D01*
X53160395Y15240000D01*
X52347298Y16053097D01*
X52103329Y15981514D01*
X51982429Y15726004D01*
X51913700Y15451816D01*
X51899783Y15169488D01*
X45411189Y15169488D01*
X46474403Y16232702D01*
X52526903Y16232702D01*
X53340000Y15419605D01*
X54153097Y16232702D01*
X54081514Y16476671D01*
X53826004Y16597571D01*
X53551816Y16666300D01*
X53269488Y16680217D01*
X52989870Y16638787D01*
X52723708Y16543603D01*
X52598486Y16476671D01*
X52526903Y16232702D01*
X46474403Y16232702D01*
X48576117Y18334415D01*
X48582115Y18337621D01*
X48669974Y18409726D01*
X48742079Y18497585D01*
X48795657Y18597824D01*
X48828650Y18706588D01*
X48835864Y18779831D01*
X48972896Y18853076D01*
X49167344Y19012656D01*
X49326924Y19207104D01*
X49445502Y19428949D01*
X49518522Y19669664D01*
X49530000Y19786202D01*
X49541478Y19669664D01*
X49614498Y19428949D01*
X49733076Y19207104D01*
X49892657Y19012656D01*
X50087105Y18853076D01*
X50308950Y18734498D01*
X50549665Y18661478D01*
X50800000Y18636822D01*
X51050336Y18661478D01*
X51291051Y18734498D01*
X51512896Y18853076D01*
X51707344Y19012656D01*
X51866924Y19207104D01*
X51985502Y19428949D01*
X52058522Y19669664D01*
X52070000Y19786202D01*
X52081478Y19669664D01*
X52154498Y19428949D01*
X52273076Y19207104D01*
X52432657Y19012656D01*
X52627105Y18853076D01*
X52848950Y18734498D01*
X53089665Y18661478D01*
X53340000Y18636822D01*
X53590336Y18661478D01*
X53831051Y18734498D01*
X54052896Y18853076D01*
X54247344Y19012656D01*
X54406924Y19207104D01*
X54525502Y19428949D01*
X54598522Y19669664D01*
X54610000Y19786202D01*
X54621478Y19669664D01*
G37*
G04 #@! TD.AperFunction*
D27*
X48387000Y28067000D02*
X48407000Y28067000D01*
X48407000Y27813000D01*
X48387000Y27813000D01*
X48387000Y26270085D01*
X48609039Y26148096D01*
X48691818Y26165633D01*
X48831878Y26225280D01*
X44266382Y21659783D01*
X44104895Y21824500D01*
X43871646Y21983715D01*
X43611818Y22094367D01*
X43529039Y22111904D01*
X43307000Y21989915D01*
X43307000Y20447000D01*
X43327000Y20447000D01*
X43327000Y20193000D01*
X43307000Y20193000D01*
X43307000Y20173000D01*
X43053000Y20173000D01*
X43053000Y20193000D01*
X43033000Y20193000D01*
X43033000Y20447000D01*
X43053000Y20447000D01*
X43053000Y21989915D01*
X42830961Y22111904D01*
X42748182Y22094367D01*
X42488354Y21983715D01*
X42255105Y21824500D01*
X42057399Y21622839D01*
X41902834Y21386483D01*
X41828378Y21201571D01*
X41825502Y21211051D01*
X41706924Y21432896D01*
X41547344Y21627344D01*
X41352895Y21786924D01*
X41131050Y21905502D01*
X41075618Y21922317D01*
X43741301Y24588000D01*
X44962769Y24588000D01*
X44991100Y24585210D01*
X45019431Y24588000D01*
X45019436Y24588000D01*
X45049145Y24590926D01*
X45104211Y24596349D01*
X45148870Y24609897D01*
X45212976Y24629343D01*
X45313215Y24682921D01*
X45401074Y24755026D01*
X45419139Y24777038D01*
X47207628Y26565527D01*
X47335105Y26435500D01*
X47568354Y26276285D01*
X47828182Y26165633D01*
X47910961Y26148096D01*
X48133000Y26270085D01*
X48133000Y27813000D01*
X48113000Y27813000D01*
X48113000Y28067000D01*
X48133000Y28067000D01*
X48133000Y28087000D01*
X48387000Y28087000D01*
X48387000Y28067000D01*
G04 #@! TA.AperFunction,Conductor*
D28*
G36*
X48387000Y28067000D02*
G01*
X48407000Y28067000D01*
X48407000Y27813000D01*
X48387000Y27813000D01*
X48387000Y26270085D01*
X48609039Y26148096D01*
X48691818Y26165633D01*
X48831878Y26225280D01*
X44266382Y21659783D01*
X44104895Y21824500D01*
X43871646Y21983715D01*
X43611818Y22094367D01*
X43529039Y22111904D01*
X43307000Y21989915D01*
X43307000Y20447000D01*
X43327000Y20447000D01*
X43327000Y20193000D01*
X43307000Y20193000D01*
X43307000Y20173000D01*
X43053000Y20173000D01*
X43053000Y20193000D01*
X43033000Y20193000D01*
X43033000Y20447000D01*
X43053000Y20447000D01*
X43053000Y21989915D01*
X42830961Y22111904D01*
X42748182Y22094367D01*
X42488354Y21983715D01*
X42255105Y21824500D01*
X42057399Y21622839D01*
X41902834Y21386483D01*
X41828378Y21201571D01*
X41825502Y21211051D01*
X41706924Y21432896D01*
X41547344Y21627344D01*
X41352895Y21786924D01*
X41131050Y21905502D01*
X41075618Y21922317D01*
X43741301Y24588000D01*
X44962769Y24588000D01*
X44991100Y24585210D01*
X45019431Y24588000D01*
X45019436Y24588000D01*
X45049145Y24590926D01*
X45104211Y24596349D01*
X45148870Y24609897D01*
X45212976Y24629343D01*
X45313215Y24682921D01*
X45401074Y24755026D01*
X45419139Y24777038D01*
X47207628Y26565527D01*
X47335105Y26435500D01*
X47568354Y26276285D01*
X47828182Y26165633D01*
X47910961Y26148096D01*
X48133000Y26270085D01*
X48133000Y27813000D01*
X48113000Y27813000D01*
X48113000Y28067000D01*
X48133000Y28067000D01*
X48133000Y28087000D01*
X48387000Y28087000D01*
X48387000Y28067000D01*
G37*
G04 #@! TD.AperFunction*
D27*
X27330620Y34340379D02*
X27283708Y34323603D01*
X27158486Y34256671D01*
X27086903Y34012702D01*
X27900000Y33199605D01*
X27914143Y33213747D01*
X28093748Y33034142D01*
X28079605Y33020000D01*
X28892702Y32206903D01*
X29136671Y32278486D01*
X29218845Y32452154D01*
X31173001Y30497998D01*
X31173001Y29417558D01*
X30971050Y29525502D01*
X30730335Y29598522D01*
X30480000Y29623178D01*
X30229664Y29598522D01*
X29988949Y29525502D01*
X29767104Y29406924D01*
X29572656Y29247344D01*
X29413076Y29052895D01*
X29294498Y28831050D01*
X29291622Y28821571D01*
X29217166Y29006483D01*
X29062601Y29242839D01*
X28864895Y29444500D01*
X28631646Y29603715D01*
X28371818Y29714367D01*
X28289039Y29731904D01*
X28067000Y29609915D01*
X28067000Y28067000D01*
X28087000Y28067000D01*
X28087000Y27813000D01*
X28067000Y27813000D01*
X28067000Y26270085D01*
X28289039Y26148096D01*
X28371818Y26165633D01*
X28631646Y26276285D01*
X28864895Y26435500D01*
X29062601Y26637161D01*
X29217166Y26873517D01*
X29291622Y27058429D01*
X29294498Y27048949D01*
X29413076Y26827104D01*
X29572657Y26632656D01*
X29767105Y26473076D01*
X29790545Y26460547D01*
X27077400Y23747401D01*
X27077400Y26392978D01*
X27248354Y26276285D01*
X27508182Y26165633D01*
X27590961Y26148096D01*
X27813000Y26270085D01*
X27813000Y27813000D01*
X27793000Y27813000D01*
X27793000Y28067000D01*
X27813000Y28067000D01*
X27813000Y29609915D01*
X27590961Y29731904D01*
X27508182Y29714367D01*
X27248354Y29603715D01*
X27077400Y29487022D01*
X27077400Y32017793D01*
X27086903Y32027296D01*
X27158486Y31783329D01*
X27413996Y31662429D01*
X27688184Y31593700D01*
X27970512Y31579783D01*
X28250130Y31621213D01*
X28516292Y31716397D01*
X28641514Y31783329D01*
X28713097Y32027298D01*
X27900000Y32840395D01*
X27885858Y32826252D01*
X27706253Y33005857D01*
X27720395Y33020000D01*
X27046175Y33694220D01*
X27045332Y33697000D01*
X27036057Y33727576D01*
X26982479Y33827815D01*
X26910374Y33915674D01*
X26888363Y33933738D01*
X25903237Y34918864D01*
X25897873Y34925400D01*
X26745599Y34925400D01*
X27330620Y34340379D01*
G04 #@! TA.AperFunction,Conductor*
D28*
G36*
X27330620Y34340379D02*
G01*
X27283708Y34323603D01*
X27158486Y34256671D01*
X27086903Y34012702D01*
X27900000Y33199605D01*
X27914143Y33213747D01*
X28093748Y33034142D01*
X28079605Y33020000D01*
X28892702Y32206903D01*
X29136671Y32278486D01*
X29218845Y32452154D01*
X31173001Y30497998D01*
X31173001Y29417558D01*
X30971050Y29525502D01*
X30730335Y29598522D01*
X30480000Y29623178D01*
X30229664Y29598522D01*
X29988949Y29525502D01*
X29767104Y29406924D01*
X29572656Y29247344D01*
X29413076Y29052895D01*
X29294498Y28831050D01*
X29291622Y28821571D01*
X29217166Y29006483D01*
X29062601Y29242839D01*
X28864895Y29444500D01*
X28631646Y29603715D01*
X28371818Y29714367D01*
X28289039Y29731904D01*
X28067000Y29609915D01*
X28067000Y28067000D01*
X28087000Y28067000D01*
X28087000Y27813000D01*
X28067000Y27813000D01*
X28067000Y26270085D01*
X28289039Y26148096D01*
X28371818Y26165633D01*
X28631646Y26276285D01*
X28864895Y26435500D01*
X29062601Y26637161D01*
X29217166Y26873517D01*
X29291622Y27058429D01*
X29294498Y27048949D01*
X29413076Y26827104D01*
X29572657Y26632656D01*
X29767105Y26473076D01*
X29790545Y26460547D01*
X27077400Y23747401D01*
X27077400Y26392978D01*
X27248354Y26276285D01*
X27508182Y26165633D01*
X27590961Y26148096D01*
X27813000Y26270085D01*
X27813000Y27813000D01*
X27793000Y27813000D01*
X27793000Y28067000D01*
X27813000Y28067000D01*
X27813000Y29609915D01*
X27590961Y29731904D01*
X27508182Y29714367D01*
X27248354Y29603715D01*
X27077400Y29487022D01*
X27077400Y32017793D01*
X27086903Y32027296D01*
X27158486Y31783329D01*
X27413996Y31662429D01*
X27688184Y31593700D01*
X27970512Y31579783D01*
X28250130Y31621213D01*
X28516292Y31716397D01*
X28641514Y31783329D01*
X28713097Y32027298D01*
X27900000Y32840395D01*
X27885858Y32826252D01*
X27706253Y33005857D01*
X27720395Y33020000D01*
X27046175Y33694220D01*
X27045332Y33697000D01*
X27036057Y33727576D01*
X26982479Y33827815D01*
X26910374Y33915674D01*
X26888363Y33933738D01*
X25903237Y34918864D01*
X25897873Y34925400D01*
X26745599Y34925400D01*
X27330620Y34340379D01*
G37*
G04 #@! TD.AperFunction*
D27*
X29898798Y37647647D02*
X30122097Y37555153D01*
X30359151Y37508000D01*
X30600849Y37508000D01*
X30837903Y37555153D01*
X30842105Y37556894D01*
X31102261Y37296738D01*
X31120326Y37274726D01*
X31208185Y37202621D01*
X31274503Y37167174D01*
X31308423Y37149043D01*
X31417188Y37116049D01*
X31530300Y37104909D01*
X31558639Y37107700D01*
X74391699Y37107700D01*
X74233899Y36949900D01*
X55102431Y36949900D01*
X55074100Y36952690D01*
X55045769Y36949900D01*
X55045764Y36949900D01*
X55018986Y36947263D01*
X54960988Y36941551D01*
X54896882Y36922104D01*
X54852224Y36908557D01*
X54751985Y36854979D01*
X54664126Y36782874D01*
X54646063Y36760864D01*
X50381899Y32496700D01*
X49559924Y32496700D01*
X49577571Y32533996D01*
X49646300Y32808184D01*
X49660217Y33090512D01*
X49618787Y33370130D01*
X49523603Y33636292D01*
X49456671Y33761514D01*
X49212702Y33833097D01*
X48399605Y33020000D01*
X48413748Y33005857D01*
X48234143Y32826252D01*
X48220000Y32840395D01*
X48205858Y32826252D01*
X48026253Y33005857D01*
X48040395Y33020000D01*
X48026253Y33034142D01*
X48205858Y33213747D01*
X48220000Y33199605D01*
X49033097Y34012702D01*
X48961514Y34256671D01*
X48706004Y34377571D01*
X48431816Y34446300D01*
X48149488Y34460217D01*
X47869870Y34418787D01*
X47821750Y34401579D01*
X47824300Y34414397D01*
X47824300Y34557603D01*
X47796362Y34698058D01*
X47741559Y34830364D01*
X47661998Y34949436D01*
X47560736Y35050698D01*
X47441664Y35130259D01*
X47309358Y35185062D01*
X47168903Y35213000D01*
X47025697Y35213000D01*
X46885242Y35185062D01*
X46752936Y35130259D01*
X46652275Y35063000D01*
X32428001Y35063000D01*
X29731709Y37759292D01*
X29898798Y37647647D01*
G04 #@! TA.AperFunction,Conductor*
D28*
G36*
X29898798Y37647647D02*
G01*
X30122097Y37555153D01*
X30359151Y37508000D01*
X30600849Y37508000D01*
X30837903Y37555153D01*
X30842105Y37556894D01*
X31102261Y37296738D01*
X31120326Y37274726D01*
X31208185Y37202621D01*
X31274503Y37167174D01*
X31308423Y37149043D01*
X31417188Y37116049D01*
X31530300Y37104909D01*
X31558639Y37107700D01*
X74391699Y37107700D01*
X74233899Y36949900D01*
X55102431Y36949900D01*
X55074100Y36952690D01*
X55045769Y36949900D01*
X55045764Y36949900D01*
X55018986Y36947263D01*
X54960988Y36941551D01*
X54896882Y36922104D01*
X54852224Y36908557D01*
X54751985Y36854979D01*
X54664126Y36782874D01*
X54646063Y36760864D01*
X50381899Y32496700D01*
X49559924Y32496700D01*
X49577571Y32533996D01*
X49646300Y32808184D01*
X49660217Y33090512D01*
X49618787Y33370130D01*
X49523603Y33636292D01*
X49456671Y33761514D01*
X49212702Y33833097D01*
X48399605Y33020000D01*
X48413748Y33005857D01*
X48234143Y32826252D01*
X48220000Y32840395D01*
X48205858Y32826252D01*
X48026253Y33005857D01*
X48040395Y33020000D01*
X48026253Y33034142D01*
X48205858Y33213747D01*
X48220000Y33199605D01*
X49033097Y34012702D01*
X48961514Y34256671D01*
X48706004Y34377571D01*
X48431816Y34446300D01*
X48149488Y34460217D01*
X47869870Y34418787D01*
X47821750Y34401579D01*
X47824300Y34414397D01*
X47824300Y34557603D01*
X47796362Y34698058D01*
X47741559Y34830364D01*
X47661998Y34949436D01*
X47560736Y35050698D01*
X47441664Y35130259D01*
X47309358Y35185062D01*
X47168903Y35213000D01*
X47025697Y35213000D01*
X46885242Y35185062D01*
X46752936Y35130259D01*
X46652275Y35063000D01*
X32428001Y35063000D01*
X29731709Y37759292D01*
X29898798Y37647647D01*
G37*
G04 #@! TD.AperFunction*
M02*
