M48
; DRILL file {KiCad (5.1.9)-1} date 05/03/22 11:16:22
; FORMAT={-:-/ absolute / metric / decimal}
; #@! TF.CreationDate,2022-05-03T11:16:22+09:00
; #@! TF.GenerationSoftware,Kicad,Pcbnew,(5.1.9)-1
FMAT,2
METRIC
T1C0.300
T2C0.600
T3C0.700
T4C0.762
T5C0.800
T6C1.000
T7C3.200
%
G90
G05
T1
X11.545Y35.668
X11.547Y37.421
X17.537Y16.298
X18.23Y30.159
X18.945Y6.903
X22.93Y60.886
X28.144Y10.285
X29.407Y7.926
X34.974Y10.406
X35.243Y24.966
X35.315Y51.552
X35.338Y0.649
X35.56Y22.283
X35.97Y23.114
X36.11Y10.406
X37.782Y13.327
X39.945Y12.145
X40.226Y63.319
X40.515Y62.159
X42.668Y13.242
X42.899Y30.654
X44.453Y54.241
X45.114Y39.842
X45.795Y40.517
X47.097Y34.486
X70.304Y34.778
T3
X5.08Y29.21
X10.16Y29.21
T4
X82.55Y33.655
X82.55Y31.115
X82.55Y28.575
X82.55Y26.035
X82.55Y23.495
X82.55Y20.955
X82.55Y18.415
X82.55Y15.875
X82.55Y13.335
X82.55Y10.795
X95.25Y31.115
X95.25Y13.335
X97.79Y31.115
X97.79Y13.335
T5
X5.08Y18.415
X12.7Y18.415
X20.955Y66.04
X24.765Y61.555
X24.765Y59.055
X25.4Y33.02
X25.4Y27.94
X25.4Y20.32
X27.9Y33.02
X27.94Y27.94
X27.94Y20.32
X28.575Y66.04
X30.48Y27.94
X30.48Y20.32
X33.02Y27.94
X33.02Y20.32
X35.56Y27.94
X35.56Y20.32
X37.465Y11.43
X37.465Y3.81
X38.1Y27.94
X38.1Y20.32
X40.64Y27.94
X40.64Y20.32
X41.275Y11.43
X41.275Y3.81
X43.18Y27.94
X43.18Y20.32
X45.085Y11.43
X45.085Y3.81
X45.72Y33.02
X45.72Y27.94
X45.72Y20.32
X48.22Y33.02
X48.26Y27.94
X48.26Y20.32
X50.8Y27.94
X50.8Y20.32
X52.0Y64.0
X52.0Y61.5
X53.34Y27.94
X53.34Y20.32
X53.34Y15.24
X55.84Y15.24
X55.88Y27.94
X55.88Y20.32
X58.0Y65.0
X58.0Y62.46
X58.0Y59.92
X58.42Y27.94
X58.42Y20.32
X64.5Y64.135
X64.5Y61.635
X65.405Y33.655
X65.405Y26.035
X69.215Y33.655
X69.215Y26.035
X73.025Y33.655
X73.025Y26.035
X76.835Y33.655
X76.835Y26.035
T6
X10.795Y63.754
X13.335Y63.754
X14.224Y5.08
X14.224Y2.54
X15.875Y63.754
X16.764Y5.08
X16.764Y2.54
X17.78Y53.975
X17.78Y38.735
X19.304Y5.08
X19.304Y2.54
X20.32Y53.975
X20.32Y38.735
X21.844Y5.08
X21.844Y2.54
X22.86Y53.975
X22.86Y38.735
X24.384Y5.08
X24.384Y2.54
X25.4Y53.975
X25.4Y38.735
X26.924Y5.08
X26.924Y2.54
X27.94Y53.975
X27.94Y38.735
X29.464Y5.08
X29.464Y2.54
X30.48Y53.975
X30.48Y38.735
X33.274Y65.405
X35.814Y65.405
X38.354Y65.405
X40.894Y65.405
X43.434Y65.405
X45.974Y65.405
X69.215Y53.975
X69.215Y38.735
X71.42Y63.0
X71.755Y53.975
X71.755Y38.735
X73.96Y63.0
X74.295Y53.975
X74.295Y38.735
X76.5Y63.0
X76.835Y53.975
X76.835Y38.735
X79.375Y53.975
X79.375Y38.735
X81.915Y53.975
X81.915Y38.735
T7
X3.0Y67.0
X3.0Y3.0
X97.0Y67.0
X97.0Y3.0
T2
G00X82.75Y66.4
M15
G01X82.75Y65.6
M16
G05
G00X90.15Y66.4
M15
G01X90.15Y65.6
M16
G05
T0
M30
